Suranna.ufo
<glyph name="exclam" format="1">
  <advance width="202"/>
  <unicode hex="0021"/>
  <outline>
    <contour>
      <point x="126" y="-3"/>
      <point x="115" y="-8"/>
      <point x="101" y="-8" type="curve" smooth="yes"/>
      <point x="75" y="-8"/>
      <point x="55" y="13"/>
      <point x="55" y="40" type="curve" smooth="yes"/>
      <point x="55" y="66"/>
      <point x="75" y="85"/>
      <point x="101" y="85" type="curve" smooth="yes"/>
      <point x="127" y="85"/>
      <point x="148" y="66"/>
      <point x="148" y="40" type="curve" smooth="yes"/>
      <point x="148" y="26"/>
      <point x="143" y="15"/>
      <point x="134" y="6" type="curve"/>
    </contour>
    <contour>
      <point x="92" y="130" type="line"/>
      <point x="91" y="206"/>
      <point x="85" y="297"/>
      <point x="74" y="402" type="curve" smooth="yes"/>
      <point x="63" y="507"/>
      <point x="58" y="568"/>
      <point x="58" y="586" type="curve" smooth="yes"/>
      <point x="58" y="621"/>
      <point x="75" y="640"/>
      <point x="101" y="640" type="curve" smooth="yes"/>
      <point x="127" y="640"/>
      <point x="145" y="621"/>
      <point x="145" y="585" type="curve" smooth="yes"/>
      <point x="145" y="567"/>
      <point x="139" y="506"/>
      <point x="129" y="401" type="curve" smooth="yes"/>
      <point x="119" y="296"/>
      <point x="112" y="205"/>
      <point x="111" y="130" type="curve"/>
    </contour>
  </outline>
</glyph>
<glyph name="quotedbl" format="1">
  <advance width="215"/>
  <unicode hex="0022"/>
  <outline>
    <contour>
      <point x="58" y="446" type="line"/>
      <point x="55" y="481"/>
      <point x="51" y="514"/>
      <point x="44" y="547" type="curve" smooth="yes"/>
      <point x="38" y="578"/>
      <point x="35" y="599"/>
      <point x="35" y="608" type="curve" smooth="yes"/>
      <point x="35" y="626"/>
      <point x="45" y="640"/>
      <point x="64" y="640" type="curve" smooth="yes"/>
      <point x="83" y="640"/>
      <point x="94" y="626"/>
      <point x="94" y="608" type="curve" smooth="yes"/>
      <point x="94" y="599"/>
      <point x="91" y="578"/>
      <point x="85" y="547" type="curve" smooth="yes"/>
      <point x="78" y="514"/>
      <point x="73" y="481"/>
      <point x="71" y="446" type="curve"/>
    </contour>
    <contour>
      <point x="145" y="446" type="line"/>
      <point x="142" y="481"/>
      <point x="137" y="514"/>
      <point x="131" y="547" type="curve" smooth="yes"/>
      <point x="125" y="578"/>
      <point x="122" y="599"/>
      <point x="122" y="608" type="curve" smooth="yes"/>
      <point x="122" y="626"/>
      <point x="132" y="640"/>
      <point x="151" y="640" type="curve" smooth="yes"/>
      <point x="170" y="640"/>
      <point x="181" y="626"/>
      <point x="181" y="608" type="curve" smooth="yes"/>
      <point x="181" y="599"/>
      <point x="178" y="578"/>
      <point x="171" y="547" type="curve" smooth="yes"/>
      <point x="165" y="514"/>
      <point x="160" y="481"/>
      <point x="158" y="446" type="curve"/>
    </contour>
  </outline>
</glyph>
<glyph name="numbersign" format="1">
  <advance width="459"/>
  <unicode hex="0023"/>
  <outline>
    <contour>
      <point x="55" y="303" type="line"/>
      <point x="55" y="338" type="line"/>
      <point x="142" y="338" type="line"/>
      <point x="185" y="565" type="line"/>
      <point x="221" y="565" type="line"/>
      <point x="178" y="338" type="line"/>
      <point x="300" y="338" type="line"/>
      <point x="343" y="565" type="line"/>
      <point x="379" y="565" type="line"/>
      <point x="336" y="338" type="line"/>
      <point x="427" y="338" type="line"/>
      <point x="427" y="303" type="line"/>
      <point x="329" y="303" type="line"/>
      <point x="310" y="201" type="line"/>
      <point x="401" y="201" type="line"/>
      <point x="401" y="166" type="line"/>
      <point x="303" y="166" type="line"/>
      <point x="273" y="0" type="line"/>
      <point x="237" y="0" type="line"/>
      <point x="268" y="166" type="line"/>
      <point x="145" y="166" type="line"/>
      <point x="115" y="0" type="line"/>
      <point x="79" y="0" type="line"/>
      <point x="110" y="166" type="line"/>
      <point x="28" y="166" type="line"/>
      <point x="28" y="201" type="line"/>
      <point x="117" y="201" type="line"/>
      <point x="136" y="303" type="line"/>
    </contour>
    <contour>
      <point x="171" y="303" type="line"/>
      <point x="152" y="201" type="line"/>
      <point x="275" y="201" type="line"/>
      <point x="294" y="303" type="line"/>
    </contour>
  </outline>
</glyph>
<glyph name="dollar" format="1">
  <advance width="519"/>
  <unicode hex="0024"/>
  <outline>
    <contour>
      <point x="280" y="-16" type="line"/>
      <point x="269" y="-15" type="line"/>
      <point x="269" y="-83" type="line"/>
      <point x="256" y="-83" type="line"/>
      <point x="256" y="-14" type="line"/>
      <point x="214" y="-10"/>
      <point x="175" y="3"/>
      <point x="136" y="26" type="curve"/>
      <point x="69" y="-8" type="line"/>
      <point x="51" y="-8" type="line"/>
      <point x="51" y="195" type="line"/>
      <point x="69" y="195" type="line"/>
      <point x="137" y="48" type="line"/>
      <point x="173" y="23"/>
      <point x="213" y="8"/>
      <point x="256" y="3" type="curve"/>
      <point x="256" y="284" type="line"/>
      <point x="192" y="300" type="line" smooth="yes"/>
      <point x="100" y="325"/>
      <point x="54" y="383"/>
      <point x="54" y="462" type="curve" smooth="yes"/>
      <point x="54" y="574"/>
      <point x="122" y="648"/>
      <point x="239" y="648" type="curve" smooth="yes"/>
      <point x="246" y="648"/>
      <point x="252" y="648"/>
      <point x="256" y="647" type="curve"/>
      <point x="256" y="707" type="line"/>
      <point x="269" y="707" type="line"/>
      <point x="269" y="646" type="line"/>
      <point x="272" y="646"/>
      <point x="277" y="645"/>
      <point x="284" y="645" type="curve"/>
      <point x="284" y="707" type="line"/>
      <point x="297" y="707" type="line"/>
      <point x="297" y="643" type="line"/>
      <point x="322" y="639"/>
      <point x="345" y="632"/>
      <point x="367" y="623" type="curve"/>
      <point x="425" y="648" type="line"/>
      <point x="442" y="648" type="line"/>
      <point x="442" y="487" type="line"/>
      <point x="425" y="487" type="line"/>
      <point x="368" y="602" type="line"/>
      <point x="346" y="612"/>
      <point x="322" y="620"/>
      <point x="297" y="625" type="curve"/>
      <point x="297" y="369" type="line"/>
      <point x="344" y="357" type="line" smooth="yes"/>
      <point x="436" y="333"/>
      <point x="480" y="286"/>
      <point x="480" y="173" type="curve" smooth="yes"/>
      <point x="480" y="59"/>
      <point x="408" y="-9"/>
      <point x="297" y="-15" type="curve"/>
      <point x="297" y="-83" type="line"/>
      <point x="284" y="-83" type="line"/>
      <point x="284" y="-16" type="line"/>
    </contour>
    <contour>
      <point x="92" y="450"/>
      <point x="129" y="413"/>
      <point x="202" y="394" type="curve" smooth="yes"/>
      <point x="256" y="380" type="line"/>
      <point x="256" y="630" type="line"/>
      <point x="252" y="630"/>
      <point x="246" y="630"/>
      <point x="239" y="630" type="curve" smooth="yes"/>
      <point x="148" y="630"/>
      <point x="92" y="579"/>
      <point x="92" y="502" type="curve" smooth="yes"/>
    </contour>
    <contour>
      <point x="297" y="273" type="line"/>
      <point x="297" y="2" type="line"/>
      <point x="386" y="6"/>
      <point x="447" y="56"/>
      <point x="447" y="141" type="curve" smooth="yes"/>
      <point x="447" y="207"/>
      <point x="409" y="244"/>
      <point x="323" y="266" type="curve" smooth="yes"/>
    </contour>
    <contour>
      <point x="269" y="2" type="line"/>
      <point x="273" y="2"/>
      <point x="277" y="2"/>
      <point x="284" y="2" type="curve"/>
      <point x="284" y="276" type="line"/>
      <point x="269" y="280" type="line"/>
    </contour>
    <contour>
      <point x="284" y="627" type="line"/>
      <point x="269" y="629" type="line"/>
      <point x="269" y="376" type="line"/>
      <point x="284" y="372" type="line"/>
    </contour>
  </outline>
</glyph>
<glyph name="percent" format="1">
  <advance width="652"/>
  <unicode hex="0025"/>
  <outline>
    <contour>
      <point x="423" y="-4"/>
      <point x="373" y="57"/>
      <point x="373" y="168" type="curve" smooth="yes"/>
      <point x="373" y="280"/>
      <point x="423" y="340"/>
      <point x="498" y="340" type="curve" smooth="yes"/>
      <point x="574" y="340"/>
      <point x="623" y="280"/>
      <point x="623" y="168" type="curve" smooth="yes"/>
      <point x="623" y="57"/>
      <point x="574" y="-4"/>
      <point x="498" y="-4" type="curve" smooth="yes"/>
    </contour>
    <contour>
      <point x="562" y="209" type="line" smooth="yes"/>
      <point x="562" y="285"/>
      <point x="541" y="323"/>
      <point x="498" y="323" type="curve" smooth="yes"/>
      <point x="456" y="323"/>
      <point x="435" y="285"/>
      <point x="435" y="209" type="curve" smooth="yes"/>
      <point x="435" y="128" type="line" smooth="yes"/>
      <point x="435" y="51"/>
      <point x="456" y="13"/>
      <point x="498" y="13" type="curve" smooth="yes"/>
      <point x="541" y="13"/>
      <point x="562" y="51"/>
      <point x="562" y="128" type="curve" smooth="yes"/>
    </contour>
    <contour>
      <point x="77" y="292"/>
      <point x="28" y="353"/>
      <point x="28" y="465" type="curve" smooth="yes"/>
      <point x="28" y="576"/>
      <point x="77" y="636"/>
      <point x="153" y="636" type="curve" smooth="yes"/>
      <point x="229" y="636"/>
      <point x="279" y="576"/>
      <point x="279" y="465" type="curve" smooth="yes"/>
      <point x="279" y="353"/>
      <point x="229" y="292"/>
      <point x="153" y="292" type="curve" smooth="yes"/>
    </contour>
    <contour>
      <point x="217" y="505" type="line" smooth="yes"/>
      <point x="217" y="581"/>
      <point x="196" y="619"/>
      <point x="153" y="619" type="curve" smooth="yes"/>
      <point x="111" y="619"/>
      <point x="89" y="581"/>
      <point x="89" y="505" type="curve" smooth="yes"/>
      <point x="89" y="424" type="line" smooth="yes"/>
      <point x="89" y="348"/>
      <point x="111" y="310"/>
      <point x="153" y="310" type="curve" smooth="yes"/>
      <point x="196" y="310"/>
      <point x="217" y="348"/>
      <point x="217" y="424" type="curve" smooth="yes"/>
    </contour>
    <contour>
      <point x="504" y="632" type="line"/>
      <point x="189" y="0" type="line"/>
      <point x="148" y="0" type="line"/>
      <point x="464" y="632" type="line"/>
    </contour>
  </outline>
</glyph>
<glyph name="ampersand" format="1">
  <advance width="645"/>
  <unicode hex="0026"/>
  <outline>
    <contour>
      <point x="296" y="228"/>
      <point x="270" y="214"/>
      <point x="270" y="185" type="curve" smooth="yes"/>
      <point x="270" y="170"/>
      <point x="279" y="163"/>
      <point x="295" y="163" type="curve" smooth="yes"/>
      <point x="312" y="163"/>
      <point x="324" y="170"/>
      <point x="331" y="184" type="curve"/>
      <point x="357" y="178"/>
      <point x="370" y="164"/>
      <point x="370" y="141" type="curve" smooth="yes"/>
      <point x="370" y="115"/>
      <point x="351" y="93"/>
      <point x="317" y="93" type="curve" smooth="yes"/>
      <point x="283" y="93"/>
      <point x="252" y="131"/>
      <point x="252" y="188" type="curve" smooth="yes"/>
      <point x="252" y="245"/>
      <point x="300" y="297"/>
      <point x="378" y="297" type="curve" smooth="yes"/>
      <point x="403" y="297"/>
      <point x="431" y="295"/>
      <point x="462" y="290" type="curve" smooth="yes"/>
      <point x="494" y="284"/>
      <point x="520" y="282"/>
      <point x="540" y="282" type="curve" smooth="yes"/>
      <point x="581" y="282"/>
      <point x="615" y="298"/>
      <point x="615" y="325" type="curve" smooth="yes"/>
      <point x="615" y="340"/>
      <point x="608" y="348"/>
      <point x="591" y="348" type="curve" smooth="yes"/>
      <point x="574" y="348"/>
      <point x="562" y="341"/>
      <point x="555" y="326" type="curve"/>
      <point x="529" y="332"/>
      <point x="517" y="347"/>
      <point x="517" y="370" type="curve" smooth="yes"/>
      <point x="517" y="395"/>
      <point x="536" y="417"/>
      <point x="570" y="417" type="curve" smooth="yes"/>
      <point x="604" y="417"/>
      <point x="632" y="382"/>
      <point x="632" y="334" type="curve" smooth="yes"/>
      <point x="632" y="251"/>
      <point x="593" y="210"/>
      <point x="514" y="210" type="curve" smooth="yes"/>
      <point x="491" y="210"/>
      <point x="472" y="211"/>
      <point x="457" y="213" type="curve"/>
      <point x="461" y="192"/>
      <point x="464" y="173"/>
      <point x="464" y="156" type="curve" smooth="yes"/>
      <point x="464" y="47"/>
      <point x="398" y="-16"/>
      <point x="294" y="-16" type="curve" smooth="yes"/>
      <point x="123" y="-16"/>
      <point x="40" y="58"/>
      <point x="40" y="171" type="curve" smooth="yes"/>
      <point x="40" y="284"/>
      <point x="129" y="344"/>
      <point x="259" y="351" type="curve"/>
      <point x="259" y="353" type="line"/>
      <point x="129" y="370"/>
      <point x="67" y="411"/>
      <point x="67" y="506" type="curve" smooth="yes"/>
      <point x="67" y="600"/>
      <point x="142" y="648"/>
      <point x="269" y="648" type="curve" smooth="yes"/>
      <point x="355" y="648"/>
      <point x="419" y="604"/>
      <point x="419" y="535" type="curve" smooth="yes"/>
      <point x="419" y="500"/>
      <point x="397" y="480"/>
      <point x="371" y="480" type="curve" smooth="yes"/>
      <point x="345" y="480"/>
      <point x="325" y="495"/>
      <point x="325" y="526" type="curve"/>
      <point x="347" y="536"/>
      <point x="358" y="553"/>
      <point x="358" y="576" type="curve" smooth="yes"/>
      <point x="358" y="608"/>
      <point x="328" y="630"/>
      <point x="278" y="630" type="curve" smooth="yes"/>
      <point x="206" y="630"/>
      <point x="160" y="584"/>
      <point x="160" y="514" type="curve" smooth="yes"/>
      <point x="160" y="412"/>
      <point x="221" y="367"/>
      <point x="336" y="361" type="curve"/>
      <point x="336" y="344" type="line"/>
      <point x="211" y="336"/>
      <point x="149" y="279"/>
      <point x="149" y="172" type="curve" smooth="yes"/>
      <point x="149" y="67"/>
      <point x="213" y="2"/>
      <point x="299" y="2" type="curve" smooth="yes"/>
      <point x="386" y="2"/>
      <point x="445" y="56"/>
      <point x="445" y="154" type="curve" smooth="yes"/>
      <point x="445" y="174"/>
      <point x="442" y="194"/>
      <point x="436" y="216" type="curve"/>
      <point x="429" y="217"/>
      <point x="419" y="219"/>
      <point x="406" y="221" type="curve" smooth="yes"/>
      <point x="383" y="226"/>
      <point x="364" y="228"/>
      <point x="349" y="228" type="curve" smooth="yes"/>
    </contour>
  </outline>
</glyph>
<glyph name="quotesingle" format="1">
  <advance width="128"/>
  <unicode hex="0027"/>
  <outline>
    <contour>
      <point x="58" y="446" type="line"/>
      <point x="55" y="481"/>
      <point x="51" y="514"/>
      <point x="44" y="547" type="curve" smooth="yes"/>
      <point x="38" y="578"/>
      <point x="35" y="599"/>
      <point x="35" y="608" type="curve" smooth="yes"/>
      <point x="35" y="626"/>
      <point x="45" y="640"/>
      <point x="64" y="640" type="curve" smooth="yes"/>
      <point x="83" y="640"/>
      <point x="94" y="626"/>
      <point x="94" y="608" type="curve" smooth="yes"/>
      <point x="94" y="599"/>
      <point x="91" y="578"/>
      <point x="85" y="547" type="curve" smooth="yes"/>
      <point x="78" y="514"/>
      <point x="73" y="481"/>
      <point x="71" y="446" type="curve"/>
    </contour>
  </outline>
</glyph>
<glyph name="parenleft" format="1">
  <advance width="272"/>
  <unicode hex="0028"/>
  <outline>
    <contour>
      <point x="124" y="156"/>
      <point x="145" y="50"/>
      <point x="177" y="-16" type="curve" smooth="yes"/>
      <point x="208" y="-78"/>
      <point x="241" y="-118"/>
      <point x="277" y="-135" type="curve"/>
      <point x="272" y="-154" type="line"/>
      <point x="122" y="-111"/>
      <point x="29" y="56"/>
      <point x="29" y="282" type="curve" smooth="yes"/>
      <point x="29" y="508"/>
      <point x="122" y="673"/>
      <point x="271" y="717" type="curve"/>
      <point x="277" y="698" type="line"/>
      <point x="175" y="661"/>
      <point x="124" y="522"/>
      <point x="124" y="281" type="curve" smooth="yes"/>
    </contour>
  </outline>
</glyph>
<glyph name="parenright" format="1">
  <advance width="272"/>
  <unicode hex="0029"/>
  <outline>
    <contour>
      <point x="148" y="156"/>
      <point x="126" y="50"/>
      <point x="95" y="-16" type="curve" smooth="yes"/>
      <point x="64" y="-78"/>
      <point x="31" y="-118"/>
      <point x="-5" y="-135" type="curve"/>
      <point x="0" y="-154" type="line"/>
      <point x="149" y="-111"/>
      <point x="243" y="56"/>
      <point x="243" y="282" type="curve" smooth="yes"/>
      <point x="243" y="508"/>
      <point x="150" y="673"/>
      <point x="1" y="717" type="curve"/>
      <point x="-5" y="698" type="line"/>
      <point x="97" y="661"/>
      <point x="148" y="522"/>
      <point x="148" y="281" type="curve" smooth="yes"/>
    </contour>
  </outline>
</glyph>
<glyph name="asterisk" format="1">
  <advance width="356"/>
  <unicode hex="002A"/>
  <outline>
    <contour>
      <point x="156" y="574" type="line"/>
      <point x="156" y="587"/>
      <point x="165" y="596"/>
      <point x="178" y="596" type="curve" smooth="yes"/>
      <point x="190" y="596"/>
      <point x="199" y="587"/>
      <point x="199" y="575" type="curve" smooth="yes"/>
      <point x="199" y="570"/>
      <point x="197" y="549"/>
      <point x="191" y="515" type="curve" smooth="yes"/>
      <point x="186" y="480"/>
      <point x="183" y="460"/>
      <point x="183" y="454" type="curve"/>
      <point x="188" y="457"/>
      <point x="204" y="469"/>
      <point x="231" y="491" type="curve" smooth="yes"/>
      <point x="258" y="513"/>
      <point x="274" y="525"/>
      <point x="280" y="529" type="curve"/>
      <point x="284" y="531"/>
      <point x="289" y="532"/>
      <point x="295" y="532" type="curve" smooth="yes"/>
      <point x="304" y="532"/>
      <point x="312" y="517"/>
      <point x="312" y="511" type="curve" smooth="yes"/>
      <point x="312" y="502"/>
      <point x="308" y="495"/>
      <point x="300" y="491" type="curve"/>
      <point x="295" y="488"/>
      <point x="277" y="480"/>
      <point x="245" y="468" type="curve" smooth="yes"/>
      <point x="213" y="457"/>
      <point x="194" y="449"/>
      <point x="189" y="446" type="curve"/>
      <point x="194" y="442"/>
      <point x="212" y="435"/>
      <point x="244" y="422" type="curve" smooth="yes"/>
      <point x="277" y="409"/>
      <point x="295" y="401"/>
      <point x="303" y="397" type="curve"/>
      <point x="309" y="393"/>
      <point x="312" y="389"/>
      <point x="312" y="384" type="curve" smooth="yes"/>
      <point x="312" y="374"/>
      <point x="306" y="359"/>
      <point x="295" y="359" type="curve" smooth="yes"/>
      <point x="289" y="359"/>
      <point x="284" y="360"/>
      <point x="279" y="363" type="curve" smooth="yes"/>
      <point x="274" y="365"/>
      <point x="258" y="378"/>
      <point x="231" y="400" type="curve" smooth="yes"/>
      <point x="205" y="421"/>
      <point x="189" y="434"/>
      <point x="183" y="436" type="curve"/>
      <point x="200" y="317" type="line"/>
      <point x="200" y="304"/>
      <point x="191" y="295"/>
      <point x="179" y="295" type="curve"/>
      <point x="164" y="295"/>
      <point x="157" y="303"/>
      <point x="157" y="317" type="curve" smooth="yes"/>
      <point x="157" y="322"/>
      <point x="160" y="341"/>
      <point x="165" y="376" type="curve" smooth="yes"/>
      <point x="171" y="410"/>
      <point x="173" y="431"/>
      <point x="173" y="436" type="curve"/>
      <point x="168" y="434"/>
      <point x="152" y="421"/>
      <point x="126" y="400" type="curve" smooth="yes"/>
      <point x="98" y="378"/>
      <point x="83" y="366"/>
      <point x="79" y="363" type="curve" smooth="yes"/>
      <point x="75" y="361"/>
      <point x="70" y="359"/>
      <point x="65" y="359" type="curve" smooth="yes"/>
      <point x="55" y="359"/>
      <point x="45" y="368"/>
      <point x="45" y="382" type="curve" smooth="yes"/>
      <point x="45" y="389"/>
      <point x="48" y="394"/>
      <point x="55" y="398" type="curve"/>
      <point x="61" y="401"/>
      <point x="80" y="409"/>
      <point x="112" y="422" type="curve" smooth="yes"/>
      <point x="145" y="435"/>
      <point x="163" y="442"/>
      <point x="167" y="446" type="curve"/>
      <point x="163" y="449"/>
      <point x="145" y="457"/>
      <point x="112" y="468" type="curve" smooth="yes"/>
      <point x="80" y="480"/>
      <point x="61" y="488"/>
      <point x="56" y="491" type="curve"/>
      <point x="48" y="495"/>
      <point x="44" y="502"/>
      <point x="44" y="509" type="curve" smooth="yes"/>
      <point x="44" y="523"/>
      <point x="55" y="531"/>
      <point x="65" y="531" type="curve" smooth="yes"/>
      <point x="70" y="531"/>
      <point x="74" y="530"/>
      <point x="78" y="528" type="curve" smooth="yes"/>
      <point x="82" y="525"/>
      <point x="98" y="513"/>
      <point x="126" y="491" type="curve" smooth="yes"/>
      <point x="152" y="469"/>
      <point x="168" y="457"/>
      <point x="173" y="454" type="curve"/>
    </contour>
  </outline>
</glyph>
<glyph name="plus" format="1">
  <advance width="415"/>
  <unicode hex="002B"/>
  <outline>
    <contour>
      <point x="192" y="463" type="line"/>
      <point x="222" y="463" type="line"/>
      <point x="222" y="297" type="line"/>
      <point x="389" y="297" type="line"/>
      <point x="389" y="267" type="line"/>
      <point x="222" y="267" type="line"/>
      <point x="222" y="100" type="line"/>
      <point x="192" y="100" type="line"/>
      <point x="192" y="267" type="line"/>
      <point x="26" y="267" type="line"/>
      <point x="26" y="297" type="line"/>
      <point x="192" y="297" type="line"/>
    </contour>
  </outline>
</glyph>
<glyph name="comma" format="1">
  <advance width="180"/>
  <unicode hex="002C"/>
  <outline>
    <contour>
      <point x="39" y="-115" type="line"/>
      <point x="71" y="-96"/>
      <point x="101" y="-58"/>
      <point x="101" y="-24" type="curve" smooth="yes"/>
      <point x="101" y="-13"/>
      <point x="96" y="-8"/>
      <point x="84" y="-8" type="curve" smooth="yes"/>
      <point x="60" y="-8"/>
      <point x="38" y="13"/>
      <point x="38" y="40" type="curve" smooth="yes"/>
      <point x="38" y="66"/>
      <point x="58" y="85"/>
      <point x="89" y="85" type="curve" smooth="yes"/>
      <point x="121" y="85"/>
      <point x="145" y="57"/>
      <point x="145" y="13" type="curve" smooth="yes"/>
      <point x="145" y="-49"/>
      <point x="113" y="-96"/>
      <point x="47" y="-128" type="curve"/>
    </contour>
  </outline>
</glyph>
<glyph name="hyphen" format="1">
  <advance width="271"/>
  <unicode hex="002D"/>
  <outline>
    <contour>
      <point x="49" y="203" type="line"/>
      <point x="49" y="229" type="line"/>
      <point x="222" y="229" type="line"/>
      <point x="222" y="203" type="line"/>
    </contour>
  </outline>
</glyph>
<glyph name="period" format="1">
  <advance width="170"/>
  <unicode hex="002E"/>
  <outline>
    <contour>
      <point x="43" y="14"/>
      <point x="38" y="26"/>
      <point x="38" y="40" type="curve" smooth="yes"/>
      <point x="38" y="66"/>
      <point x="61" y="85"/>
      <point x="85" y="85" type="curve" smooth="yes"/>
      <point x="110" y="85"/>
      <point x="132" y="66"/>
      <point x="132" y="40" type="curve" smooth="yes"/>
      <point x="132" y="13"/>
      <point x="112" y="-8"/>
      <point x="85" y="-8" type="curve" smooth="yes"/>
      <point x="72" y="-8"/>
      <point x="60" y="-3"/>
      <point x="51" y="6" type="curve" smooth="yes"/>
    </contour>
  </outline>
</glyph>
<glyph name="slash" format="1">
  <advance width="344"/>
  <unicode hex="002F"/>
  <outline>
    <contour>
      <point x="311" y="553" type="line"/>
      <point x="66" y="0" type="line"/>
      <point x="25" y="0" type="line"/>
      <point x="271" y="553" type="line"/>
    </contour>
  </outline>
</glyph>
<glyph name="zero" format="1">
  <advance width="545"/>
  <unicode hex="0030"/>
  <outline>
    <contour>
      <point x="501" y="100"/>
      <point x="412" y="-16"/>
      <point x="273" y="-16" type="curve" smooth="yes"/>
      <point x="130" y="-16"/>
      <point x="44" y="103"/>
      <point x="44" y="316" type="curve" smooth="yes"/>
      <point x="44" y="529"/>
      <point x="130" y="648"/>
      <point x="273" y="648" type="curve" smooth="yes"/>
      <point x="412" y="648"/>
      <point x="501" y="530"/>
      <point x="501" y="315" type="curve" smooth="yes"/>
    </contour>
    <contour>
      <point x="400" y="393" type="line" smooth="yes"/>
      <point x="400" y="555"/>
      <point x="352" y="630"/>
      <point x="273" y="630" type="curve" smooth="yes"/>
      <point x="194" y="630"/>
      <point x="145" y="555"/>
      <point x="145" y="393" type="curve" smooth="yes"/>
      <point x="145" y="240" type="line" smooth="yes"/>
      <point x="145" y="78"/>
      <point x="194" y="2"/>
      <point x="273" y="2" type="curve" smooth="yes"/>
      <point x="352" y="2"/>
      <point x="400" y="76"/>
      <point x="400" y="240" type="curve" smooth="yes"/>
    </contour>
  </outline>
</glyph>
<glyph name="one" format="1">
  <advance width="269"/>
  <unicode hex="0031"/>
  <outline>
    <contour>
      <point x="41" y="616" type="line"/>
      <point x="41" y="632" type="line"/>
      <point x="175" y="632" type="line"/>
      <point x="175" y="24" type="line"/>
      <point x="231" y="16" type="line"/>
      <point x="231" y="0" type="line"/>
      <point x="41" y="0" type="line"/>
      <point x="41" y="16" type="line"/>
      <point x="96" y="24" type="line"/>
      <point x="96" y="608" type="line"/>
    </contour>
  </outline>
</glyph>
<glyph name="two" format="1">
  <advance width="480"/>
  <unicode hex="0032"/>
  <outline>
    <contour>
      <point x="426" y="200" type="line"/>
      <point x="426" y="0" type="line"/>
      <point x="28" y="0" type="line"/>
      <point x="28" y="61" type="line"/>
      <point x="195" y="231" type="line" smooth="yes"/>
      <point x="284" y="322"/>
      <point x="329" y="411"/>
      <point x="329" y="498" type="curve" smooth="yes"/>
      <point x="329" y="586"/>
      <point x="293" y="630"/>
      <point x="220" y="630" type="curve" smooth="yes"/>
      <point x="167" y="630"/>
      <point x="122" y="600"/>
      <point x="122" y="549" type="curve" smooth="yes"/>
      <point x="122" y="523"/>
      <point x="136" y="503"/>
      <point x="164" y="490" type="curve"/>
      <point x="164" y="452"/>
      <point x="137" y="431"/>
      <point x="104" y="431" type="curve" smooth="yes"/>
      <point x="72" y="431"/>
      <point x="43" y="457"/>
      <point x="43" y="501" type="curve" smooth="yes"/>
      <point x="43" y="586"/>
      <point x="130" y="648"/>
      <point x="232" y="648" type="curve" smooth="yes"/>
      <point x="362" y="648"/>
      <point x="422" y="581"/>
      <point x="422" y="483" type="curve" smooth="yes"/>
      <point x="422" y="376"/>
      <point x="352" y="323"/>
      <point x="267" y="250" type="curve" smooth="yes"/>
      <point x="78" y="83" type="line"/>
      <point x="373" y="83" type="line"/>
      <point x="405" y="200" type="line"/>
    </contour>
  </outline>
</glyph>
<glyph name="three" format="1">
  <advance width="486"/>
  <unicode hex="0033"/>
  <outline>
    <contour>
      <point x="150" y="361" type="line"/>
      <point x="261" y="367"/>
      <point x="325" y="423"/>
      <point x="325" y="514" type="curve" smooth="yes"/>
      <point x="325" y="584"/>
      <point x="283" y="630"/>
      <point x="222" y="630" type="curve" smooth="yes"/>
      <point x="161" y="630"/>
      <point x="126" y="609"/>
      <point x="126" y="574" type="curve" smooth="yes"/>
      <point x="126" y="547"/>
      <point x="140" y="526"/>
      <point x="166" y="514" type="curve"/>
      <point x="166" y="477"/>
      <point x="141" y="458"/>
      <point x="111" y="458" type="curve" smooth="yes"/>
      <point x="79" y="458"/>
      <point x="52" y="484"/>
      <point x="52" y="525" type="curve" smooth="yes"/>
      <point x="52" y="595"/>
      <point x="130" y="648"/>
      <point x="238" y="648" type="curve" smooth="yes"/>
      <point x="345" y="648"/>
      <point x="419" y="597"/>
      <point x="419" y="510" type="curve" smooth="yes"/>
      <point x="419" y="422"/>
      <point x="356" y="370"/>
      <point x="227" y="353" type="curve"/>
      <point x="227" y="351" type="line"/>
      <point x="359" y="344"/>
      <point x="446" y="277"/>
      <point x="446" y="170" type="curve" smooth="yes"/>
      <point x="446" y="62"/>
      <point x="362" y="-16"/>
      <point x="209" y="-16" type="curve" smooth="yes"/>
      <point x="111" y="-16"/>
      <point x="32" y="46"/>
      <point x="32" y="127" type="curve" smooth="yes"/>
      <point x="32" y="171"/>
      <point x="60" y="197"/>
      <point x="92" y="197" type="curve" smooth="yes"/>
      <point x="125" y="197"/>
      <point x="152" y="176"/>
      <point x="152" y="138" type="curve"/>
      <point x="124" y="125"/>
      <point x="110" y="103"/>
      <point x="110" y="75" type="curve" smooth="yes"/>
      <point x="110" y="32"/>
      <point x="148" y="2"/>
      <point x="216" y="2" type="curve" smooth="yes"/>
      <point x="284" y="2"/>
      <point x="337" y="62"/>
      <point x="337" y="164" type="curve" smooth="yes"/>
      <point x="337" y="276"/>
      <point x="275" y="336"/>
      <point x="150" y="344" type="curve"/>
    </contour>
  </outline>
</glyph>
<glyph name="four" format="1">
  <advance width="461"/>
  <unicode hex="0034"/>
  <outline>
    <contour>
      <point x="0" y="152" type="line"/>
      <point x="0" y="168" type="line"/>
      <point x="335" y="632" type="line"/>
      <point x="353" y="632" type="line"/>
      <point x="353" y="189" type="line"/>
      <point x="426" y="189" type="line"/>
      <point x="426" y="152" type="line"/>
      <point x="353" y="152" type="line"/>
      <point x="353" y="28" type="line"/>
      <point x="426" y="17" type="line"/>
      <point x="426" y="0" type="line"/>
      <point x="194" y="0" type="line"/>
      <point x="194" y="17" type="line"/>
      <point x="266" y="28" type="line"/>
      <point x="266" y="152" type="line"/>
    </contour>
    <contour>
      <point x="39" y="189" type="line"/>
      <point x="266" y="189" type="line"/>
      <point x="266" y="504" type="line"/>
    </contour>
  </outline>
</glyph>
<glyph name="five" format="1">
  <advance width="476"/>
  <unicode hex="0035"/>
  <outline>
    <contour>
      <point x="85" y="368" type="line"/>
      <point x="120" y="632" type="line"/>
      <point x="329" y="632" type="line" smooth="yes"/>
      <point x="393" y="632"/>
      <point x="418" y="638"/>
      <point x="428" y="675" type="curve"/>
      <point x="446" y="674" type="line"/>
      <point x="438" y="572"/>
      <point x="396" y="540"/>
      <point x="318" y="540" type="curve" smooth="yes"/>
      <point x="129" y="540" type="line"/>
      <point x="108" y="382" type="line"/>
      <point x="134" y="389"/>
      <point x="162" y="393"/>
      <point x="191" y="393" type="curve" smooth="yes"/>
      <point x="333" y="393"/>
      <point x="435" y="303"/>
      <point x="435" y="183" type="curve" smooth="yes"/>
      <point x="435" y="85"/>
      <point x="368" y="26"/>
      <point x="305" y="2" type="curve" smooth="yes"/>
      <point x="273" y="-9"/>
      <point x="235" y="-16"/>
      <point x="190" y="-16" type="curve" smooth="yes"/>
      <point x="101" y="-16"/>
      <point x="20" y="46"/>
      <point x="20" y="127" type="curve" smooth="yes"/>
      <point x="20" y="171"/>
      <point x="48" y="197"/>
      <point x="81" y="197" type="curve" smooth="yes"/>
      <point x="113" y="197"/>
      <point x="140" y="176"/>
      <point x="140" y="138" type="curve"/>
      <point x="112" y="125"/>
      <point x="98" y="103"/>
      <point x="98" y="75" type="curve" smooth="yes"/>
      <point x="98" y="32"/>
      <point x="137" y="2"/>
      <point x="198" y="2" type="curve" smooth="yes"/>
      <point x="277" y="2"/>
      <point x="325" y="74"/>
      <point x="325" y="190" type="curve" smooth="yes"/>
      <point x="325" y="307"/>
      <point x="266" y="371"/>
      <point x="177" y="371" type="curve" smooth="yes"/>
      <point x="153" y="371"/>
      <point x="127" y="367"/>
      <point x="100" y="358" type="curve"/>
    </contour>
  </outline>
</glyph>
<glyph name="six" format="1">
  <advance width="509"/>
  <unicode hex="0036"/>
  <outline>
    <contour>
      <point x="142" y="334" type="line"/>
      <point x="175" y="374"/>
      <point x="220" y="393"/>
      <point x="276" y="393" type="curve" smooth="yes"/>
      <point x="388" y="393"/>
      <point x="470" y="318"/>
      <point x="470" y="192" type="curve" smooth="yes"/>
      <point x="470" y="65"/>
      <point x="377" y="-16"/>
      <point x="258" y="-16" type="curve" smooth="yes"/>
      <point x="99" y="-16"/>
      <point x="45" y="117"/>
      <point x="45" y="326" type="curve" smooth="yes"/>
      <point x="45" y="536"/>
      <point x="133" y="648"/>
      <point x="278" y="648" type="curve" smooth="yes"/>
      <point x="377" y="648"/>
      <point x="450" y="602"/>
      <point x="450" y="541" type="curve" smooth="yes"/>
      <point x="450" y="506"/>
      <point x="424" y="477"/>
      <point x="393" y="477" type="curve" smooth="yes"/>
      <point x="362" y="477"/>
      <point x="341" y="494"/>
      <point x="341" y="521" type="curve"/>
      <point x="356" y="533"/>
      <point x="363" y="547"/>
      <point x="363" y="566" type="curve" smooth="yes"/>
      <point x="363" y="601"/>
      <point x="329" y="632"/>
      <point x="278" y="632" type="curve" smooth="yes"/>
      <point x="189" y="632"/>
      <point x="144" y="562"/>
      <point x="143" y="423" type="curve" smooth="yes"/>
    </contour>
    <contour>
      <point x="214" y="374"/>
      <point x="167" y="344"/>
      <point x="142" y="296" type="curve"/>
      <point x="141" y="186" type="line" smooth="yes"/>
      <point x="141" y="185"/>
      <point x="141" y="183"/>
      <point x="141" y="182" type="curve" smooth="yes"/>
      <point x="141" y="62"/>
      <point x="180" y="2"/>
      <point x="258" y="2" type="curve" smooth="yes"/>
      <point x="333" y="2"/>
      <point x="375" y="58"/>
      <point x="375" y="153" type="curve" smooth="yes"/>
      <point x="375" y="231" type="line" smooth="yes"/>
      <point x="375" y="322"/>
      <point x="339" y="374"/>
      <point x="265" y="374" type="curve" smooth="yes"/>
    </contour>
  </outline>
</glyph>
<glyph name="seven" format="1">
  <advance width="393"/>
  <unicode hex="0037"/>
  <outline>
    <contour>
      <point x="110" y="0" type="line"/>
      <point x="118" y="77"/>
      <point x="142" y="152"/>
      <point x="182" y="226" type="curve" smooth="yes"/>
      <point x="201" y="259"/>
      <point x="218" y="292"/>
      <point x="235" y="322" type="curve" smooth="yes"/>
      <point x="282" y="405"/>
      <point x="317" y="481"/>
      <point x="338" y="550" type="curve"/>
      <point x="73" y="550" type="line"/>
      <point x="52" y="456" type="line"/>
      <point x="32" y="456" type="line"/>
      <point x="32" y="632" type="line"/>
      <point x="378" y="632" type="line"/>
      <point x="366" y="524"/>
      <point x="329" y="394"/>
      <point x="295" y="307" type="curve" smooth="yes"/>
      <point x="262" y="220"/>
      <point x="227" y="98"/>
      <point x="218" y="0" type="curve"/>
    </contour>
  </outline>
</glyph>
<glyph name="eight" format="1">
  <advance width="508"/>
  <unicode hex="0038"/>
  <outline>
    <contour>
      <point x="40" y="214"/>
      <point x="71" y="267"/>
      <point x="132" y="309" type="curve" smooth="yes"/>
      <point x="147" y="319"/>
      <point x="165" y="329"/>
      <point x="186" y="340" type="curve"/>
      <point x="150" y="364" type="line"/>
      <point x="93" y="404"/>
      <point x="65" y="448"/>
      <point x="65" y="495" type="curve" smooth="yes"/>
      <point x="65" y="589"/>
      <point x="152" y="648"/>
      <point x="253" y="648" type="curve" smooth="yes"/>
      <point x="353" y="648"/>
      <point x="435" y="598"/>
      <point x="435" y="515" type="curve" smooth="yes"/>
      <point x="435" y="446"/>
      <point x="393" y="401"/>
      <point x="320" y="362" type="curve"/>
      <point x="400" y="312"/>
      <point x="423" y="294"/>
      <point x="450" y="246" type="curve" smooth="yes"/>
      <point x="464" y="223"/>
      <point x="470" y="197"/>
      <point x="470" y="169" type="curve" smooth="yes"/>
      <point x="470" y="55"/>
      <point x="374" y="-16"/>
      <point x="248" y="-16" type="curve" smooth="yes"/>
      <point x="122" y="-16"/>
      <point x="40" y="43"/>
      <point x="40" y="149" type="curve" smooth="yes"/>
    </contour>
    <contour>
      <point x="209" y="325" type="line"/>
      <point x="149" y="279"/>
      <point x="121" y="215"/>
      <point x="121" y="140" type="curve" smooth="yes"/>
      <point x="121" y="65"/>
      <point x="163" y="2"/>
      <point x="250" y="2" type="curve" smooth="yes"/>
      <point x="338" y="2"/>
      <point x="395" y="58"/>
      <point x="395" y="118" type="curve" smooth="yes"/>
      <point x="395" y="178"/>
      <point x="368" y="220"/>
      <point x="295" y="270" type="curve" smooth="yes"/>
    </contour>
    <contour>
      <point x="187" y="630"/>
      <point x="135" y="590"/>
      <point x="135" y="543" type="curve" smooth="yes"/>
      <point x="135" y="495"/>
      <point x="161" y="463"/>
      <point x="214" y="428" type="curve" smooth="yes"/>
      <point x="298" y="375" type="line"/>
      <point x="341" y="406"/>
      <point x="363" y="452"/>
      <point x="363" y="513" type="curve" smooth="yes"/>
      <point x="363" y="581"/>
      <point x="315" y="630"/>
      <point x="251" y="630" type="curve" smooth="yes"/>
    </contour>
  </outline>
</glyph>
<glyph name="nine" format="1">
  <advance width="509"/>
  <unicode hex="0039"/>
  <outline>
    <contour>
      <point x="320" y="0"/>
      <point x="365" y="70"/>
      <point x="366" y="209" type="curve" smooth="yes"/>
      <point x="366" y="298" type="line"/>
      <point x="334" y="258"/>
      <point x="290" y="239"/>
      <point x="234" y="239" type="curve" smooth="yes"/>
      <point x="121" y="239"/>
      <point x="39" y="314"/>
      <point x="39" y="441" type="curve" smooth="yes"/>
      <point x="39" y="567"/>
      <point x="132" y="648"/>
      <point x="251" y="648" type="curve" smooth="yes"/>
      <point x="410" y="648"/>
      <point x="464" y="515"/>
      <point x="464" y="306" type="curve" smooth="yes"/>
      <point x="464" y="96"/>
      <point x="376" y="-16"/>
      <point x="231" y="-16" type="curve" smooth="yes"/>
      <point x="132" y="-16"/>
      <point x="58" y="30"/>
      <point x="58" y="91" type="curve" smooth="yes"/>
      <point x="58" y="126"/>
      <point x="85" y="155"/>
      <point x="116" y="155" type="curve" smooth="yes"/>
      <point x="147" y="155"/>
      <point x="167" y="138"/>
      <point x="167" y="111" type="curve"/>
      <point x="152" y="99"/>
      <point x="145" y="85"/>
      <point x="145" y="66" type="curve" smooth="yes"/>
      <point x="145" y="31"/>
      <point x="180" y="0"/>
      <point x="231" y="0" type="curve" smooth="yes"/>
    </contour>
    <contour>
      <point x="294" y="258"/>
      <point x="342" y="288"/>
      <point x="367" y="336" type="curve"/>
      <point x="367" y="446" type="line" smooth="yes"/>
      <point x="367" y="447"/>
      <point x="367" y="449"/>
      <point x="367" y="450" type="curve" smooth="yes"/>
      <point x="367" y="570"/>
      <point x="329" y="630"/>
      <point x="251" y="630" type="curve" smooth="yes"/>
      <point x="175" y="630"/>
      <point x="134" y="574"/>
      <point x="134" y="479" type="curve" smooth="yes"/>
      <point x="134" y="401" type="line" smooth="yes"/>
      <point x="134" y="310"/>
      <point x="170" y="258"/>
      <point x="243" y="258" type="curve" smooth="yes"/>
    </contour>
  </outline>
</glyph>
<glyph name="colon" format="1">
  <advance width="192"/>
  <unicode hex="003A"/>
  <outline>
    <contour>
      <point x="54" y="14"/>
      <point x="49" y="26"/>
      <point x="49" y="40" type="curve" smooth="yes"/>
      <point x="49" y="66"/>
      <point x="72" y="85"/>
      <point x="96" y="85" type="curve" smooth="yes"/>
      <point x="121" y="85"/>
      <point x="143" y="66"/>
      <point x="143" y="40" type="curve" smooth="yes"/>
      <point x="143" y="13"/>
      <point x="123" y="-8"/>
      <point x="96" y="-8" type="curve" smooth="yes"/>
      <point x="83" y="-8"/>
      <point x="71" y="-3"/>
      <point x="62" y="6" type="curve" smooth="yes"/>
    </contour>
    <contour>
      <point x="54" y="292"/>
      <point x="49" y="303"/>
      <point x="49" y="317" type="curve" smooth="yes"/>
      <point x="49" y="344"/>
      <point x="72" y="363"/>
      <point x="96" y="363" type="curve" smooth="yes"/>
      <point x="121" y="363"/>
      <point x="143" y="343"/>
      <point x="143" y="317" type="curve" smooth="yes"/>
      <point x="143" y="291"/>
      <point x="123" y="269"/>
      <point x="96" y="269" type="curve" smooth="yes"/>
      <point x="83" y="269"/>
      <point x="71" y="274"/>
      <point x="62" y="283" type="curve" smooth="yes"/>
    </contour>
  </outline>
</glyph>
<glyph name="semicolon" format="1">
  <advance width="212"/>
  <unicode hex="003B"/>
  <outline>
    <contour>
      <point x="58" y="292"/>
      <point x="54" y="303"/>
      <point x="54" y="317" type="curve" smooth="yes"/>
      <point x="54" y="344"/>
      <point x="77" y="363"/>
      <point x="101" y="363" type="curve" smooth="yes"/>
      <point x="126" y="363"/>
      <point x="148" y="343"/>
      <point x="148" y="317" type="curve" smooth="yes"/>
      <point x="148" y="291"/>
      <point x="128" y="269"/>
      <point x="101" y="269" type="curve" smooth="yes"/>
      <point x="88" y="269"/>
      <point x="76" y="274"/>
      <point x="67" y="283" type="curve" smooth="yes"/>
    </contour>
    <contour>
      <point x="55" y="-115" type="line"/>
      <point x="86" y="-96"/>
      <point x="117" y="-58"/>
      <point x="117" y="-24" type="curve" smooth="yes"/>
      <point x="117" y="-13"/>
      <point x="111" y="-8"/>
      <point x="100" y="-8" type="curve" smooth="yes"/>
      <point x="76" y="-8"/>
      <point x="54" y="13"/>
      <point x="54" y="40" type="curve" smooth="yes"/>
      <point x="54" y="66"/>
      <point x="73" y="85"/>
      <point x="105" y="85" type="curve" smooth="yes"/>
      <point x="137" y="85"/>
      <point x="161" y="56"/>
      <point x="161" y="13" type="curve" smooth="yes"/>
      <point x="161" y="-49"/>
      <point x="129" y="-96"/>
      <point x="63" y="-128" type="curve"/>
    </contour>
  </outline>
</glyph>
<glyph name="less" format="1">
  <advance width="384"/>
  <unicode hex="003C"/>
  <outline>
    <contour>
      <point x="24" y="274" type="line"/>
      <point x="24" y="290" type="line"/>
      <point x="332" y="456" type="line"/>
      <point x="332" y="426" type="line"/>
      <point x="67" y="282" type="line"/>
      <point x="332" y="140" type="line"/>
      <point x="332" y="110" type="line"/>
    </contour>
  </outline>
</glyph>
<glyph name="equal" format="1">
  <advance width="476"/>
  <unicode hex="003D"/>
  <outline>
    <contour>
      <point x="57" y="201" type="line"/>
      <point x="57" y="231" type="line"/>
      <point x="419" y="231" type="line"/>
      <point x="419" y="201" type="line"/>
    </contour>
    <contour>
      <point x="57" y="333" type="line"/>
      <point x="57" y="363" type="line"/>
      <point x="419" y="363" type="line"/>
      <point x="419" y="333" type="line"/>
    </contour>
  </outline>
</glyph>
<glyph name="greater" format="1">
  <advance width="384"/>
  <unicode hex="003E"/>
  <outline>
    <contour>
      <point x="359" y="290" type="line"/>
      <point x="359" y="274" type="line"/>
      <point x="52" y="110" type="line"/>
      <point x="52" y="140" type="line"/>
      <point x="317" y="282" type="line"/>
      <point x="52" y="426" type="line"/>
      <point x="52" y="456" type="line"/>
    </contour>
  </outline>
</glyph>
<glyph name="question" format="1">
  <advance width="412"/>
  <unicode hex="003F"/>
  <outline>
    <contour>
      <point x="209" y="-3"/>
      <point x="198" y="-8"/>
      <point x="184" y="-8" type="curve" smooth="yes"/>
      <point x="158" y="-8"/>
      <point x="137" y="13"/>
      <point x="137" y="40" type="curve" smooth="yes"/>
      <point x="137" y="66"/>
      <point x="158" y="85"/>
      <point x="184" y="85" type="curve" smooth="yes"/>
      <point x="210" y="85"/>
      <point x="231" y="66"/>
      <point x="231" y="40" type="curve" smooth="yes"/>
      <point x="231" y="26"/>
      <point x="226" y="15"/>
      <point x="217" y="6" type="curve"/>
    </contour>
    <contour>
      <point x="175" y="130" type="line"/>
      <point x="175" y="187"/>
      <point x="189" y="241"/>
      <point x="215" y="291" type="curve" smooth="yes"/>
      <point x="225" y="312"/>
      <point x="236" y="333"/>
      <point x="246" y="352" type="curve" smooth="yes"/>
      <point x="273" y="401"/>
      <point x="285" y="446"/>
      <point x="285" y="487" type="curve" smooth="yes"/>
      <point x="285" y="594"/>
      <point x="253" y="630"/>
      <point x="200" y="630" type="curve" smooth="yes"/>
      <point x="146" y="630"/>
      <point x="101" y="600"/>
      <point x="101" y="557" type="curve" smooth="yes"/>
      <point x="101" y="529"/>
      <point x="115" y="510"/>
      <point x="141" y="497" type="curve"/>
      <point x="141" y="460"/>
      <point x="116" y="440"/>
      <point x="85" y="440" type="curve" smooth="yes"/>
      <point x="54" y="440"/>
      <point x="26" y="465"/>
      <point x="26" y="506" type="curve" smooth="yes"/>
      <point x="26" y="589"/>
      <point x="109" y="648"/>
      <point x="216" y="648" type="curve" smooth="yes"/>
      <point x="323" y="648"/>
      <point x="382" y="605"/>
      <point x="382" y="492" type="curve" smooth="yes"/>
      <point x="382" y="446"/>
      <point x="361" y="401"/>
      <point x="333" y="369" type="curve" smooth="yes"/>
      <point x="304" y="337"/>
      <point x="270" y="299"/>
      <point x="242" y="265" type="curve" smooth="yes"/>
      <point x="213" y="232"/>
      <point x="193" y="182"/>
      <point x="193" y="130" type="curve"/>
    </contour>
  </outline>
</glyph>
<glyph name="at" format="1">
  <advance width="697"/>
  <unicode hex="0040"/>
  <outline>
    <contour>
      <point x="668" y="239"/>
      <point x="589" y="145"/>
      <point x="491" y="145" type="curve" smooth="yes"/>
      <point x="442" y="145"/>
      <point x="410" y="160"/>
      <point x="395" y="191" type="curve"/>
      <point x="366" y="161"/>
      <point x="331" y="146"/>
      <point x="290" y="146" type="curve" smooth="yes"/>
      <point x="208" y="146"/>
      <point x="162" y="205"/>
      <point x="162" y="284" type="curve" smooth="yes"/>
      <point x="162" y="411"/>
      <point x="261" y="507"/>
      <point x="365" y="507" type="curve" smooth="yes"/>
      <point x="408" y="507"/>
      <point x="445" y="486"/>
      <point x="461" y="455" type="curve"/>
      <point x="474" y="494" type="line"/>
      <point x="539" y="494" type="line"/>
      <point x="464" y="231" type="line" smooth="yes"/>
      <point x="461" y="219"/>
      <point x="459" y="209"/>
      <point x="459" y="201" type="curve" smooth="yes"/>
      <point x="459" y="180"/>
      <point x="473" y="170"/>
      <point x="502" y="170" type="curve" smooth="yes"/>
      <point x="579" y="170"/>
      <point x="644" y="262"/>
      <point x="644" y="367" type="curve" smooth="yes"/>
      <point x="644" y="521"/>
      <point x="535" y="619"/>
      <point x="365" y="619" type="curve" smooth="yes"/>
      <point x="195" y="619"/>
      <point x="63" y="487"/>
      <point x="63" y="317" type="curve" smooth="yes"/>
      <point x="63" y="146"/>
      <point x="195" y="16"/>
      <point x="365" y="16" type="curve" smooth="yes"/>
      <point x="444" y="16"/>
      <point x="493" y="31"/>
      <point x="555" y="66" type="curve"/>
      <point x="566" y="45" type="line"/>
      <point x="500" y="8"/>
      <point x="445" y="-8"/>
      <point x="365" y="-8" type="curve" smooth="yes"/>
      <point x="182" y="-8"/>
      <point x="40" y="133"/>
      <point x="40" y="316" type="curve" smooth="yes"/>
      <point x="40" y="499"/>
      <point x="182" y="640"/>
      <point x="366" y="640" type="curve" smooth="yes"/>
      <point x="550" y="640"/>
      <point x="668" y="532"/>
      <point x="668" y="367" type="curve" smooth="yes"/>
    </contour>
    <contour>
      <point x="453" y="428" type="line"/>
      <point x="436" y="465"/>
      <point x="408" y="483"/>
      <point x="371" y="483" type="curve" smooth="yes"/>
      <point x="296" y="483"/>
      <point x="237" y="369"/>
      <point x="237" y="258" type="curve" smooth="yes"/>
      <point x="237" y="208"/>
      <point x="259" y="175"/>
      <point x="304" y="175" type="curve" smooth="yes"/>
      <point x="339" y="175"/>
      <point x="368" y="190"/>
      <point x="391" y="222" type="curve"/>
    </contour>
  </outline>
</glyph>
<glyph name="B" format="1">
  <advance width="585"/>
  <unicode hex="0042"/>
  <outline>
    <contour>
      <point x="544" y="55"/>
      <point x="453" y="0"/>
      <point x="309" y="0" type="curve" smooth="yes"/>
      <point x="30" y="0" type="line"/>
      <point x="30" y="17" type="line"/>
      <point x="103" y="28" type="line"/>
      <point x="103" y="604" type="line"/>
      <point x="30" y="615" type="line"/>
      <point x="30" y="632" type="line"/>
      <point x="271" y="632" type="line" smooth="yes"/>
      <point x="438" y="632"/>
      <point x="503" y="588"/>
      <point x="503" y="484" type="curve" smooth="yes"/>
      <point x="503" y="408"/>
      <point x="455" y="360"/>
      <point x="359" y="339" type="curve"/>
      <point x="359" y="335" type="line"/>
      <point x="483" y="318"/>
      <point x="544" y="264"/>
      <point x="544" y="171" type="curve" smooth="yes"/>
    </contour>
    <contour>
      <point x="190" y="322" type="line"/>
      <point x="190" y="19" type="line"/>
      <point x="309" y="19" type="line" smooth="yes"/>
      <point x="398" y="19"/>
      <point x="450" y="73"/>
      <point x="450" y="170" type="curve" smooth="yes"/>
      <point x="450" y="179" type="line" smooth="yes"/>
      <point x="450" y="274"/>
      <point x="400" y="322"/>
      <point x="309" y="322" type="curve" smooth="yes"/>
    </contour>
    <contour>
      <point x="190" y="612" type="line"/>
      <point x="190" y="341" type="line"/>
      <point x="277" y="341" type="line" smooth="yes"/>
      <point x="362" y="341"/>
      <point x="408" y="390"/>
      <point x="408" y="478" type="curve" smooth="yes"/>
      <point x="408" y="483" type="line" smooth="yes"/>
      <point x="408" y="569"/>
      <point x="363" y="612"/>
      <point x="271" y="612" type="curve" smooth="yes"/>
    </contour>
  </outline>
</glyph>
<glyph name="C" format="1">
  <advance width="585"/>
  <unicode hex="0043"/>
  <outline>
    <contour>
      <point x="517" y="648" type="line"/>
      <point x="533" y="648" type="line"/>
      <point x="533" y="452" type="line"/>
      <point x="517" y="452" type="line"/>
      <point x="468" y="574" type="line"/>
      <point x="427" y="611"/>
      <point x="382" y="630"/>
      <point x="331" y="630" type="curve" smooth="yes"/>
      <point x="218" y="630"/>
      <point x="144" y="537"/>
      <point x="144" y="389" type="curve" smooth="yes"/>
      <point x="144" y="244" type="line" smooth="yes"/>
      <point x="144" y="95"/>
      <point x="214" y="2"/>
      <point x="327" y="2" type="curve" smooth="yes"/>
      <point x="381" y="2"/>
      <point x="439" y="28"/>
      <point x="475" y="68" type="curve"/>
      <point x="521" y="195" type="line"/>
      <point x="537" y="195" type="line"/>
      <point x="537" y="-8" type="line"/>
      <point x="521" y="-8" type="line"/>
      <point x="464" y="32" type="line"/>
      <point x="423" y="0"/>
      <point x="380" y="-16"/>
      <point x="333" y="-16" type="curve" smooth="yes"/>
      <point x="238" y="-16"/>
      <point x="169" y="18"/>
      <point x="119" y="76" type="curve" smooth="yes"/>
      <point x="67" y="137"/>
      <point x="41" y="217"/>
      <point x="41" y="316" type="curve" smooth="yes"/>
      <point x="41" y="512"/>
      <point x="158" y="648"/>
      <point x="331" y="648" type="curve" smooth="yes"/>
      <point x="378" y="648"/>
      <point x="423" y="633"/>
      <point x="464" y="603" type="curve"/>
    </contour>
  </outline>
</glyph>
<glyph name="E" format="1">
  <advance width="566"/>
  <unicode hex="0045"/>
  <outline>
    <contour>
      <point x="339" y="442" type="line"/>
      <point x="359" y="442" type="line"/>
      <point x="359" y="193" type="line"/>
      <point x="339" y="193" type="line"/>
      <point x="292" y="309" type="line"/>
      <point x="190" y="309" type="line"/>
      <point x="190" y="19" type="line"/>
      <point x="438" y="19" type="line"/>
      <point x="502" y="193" type="line"/>
      <point x="523" y="193" type="line"/>
      <point x="523" y="0" type="line"/>
      <point x="30" y="0" type="line"/>
      <point x="30" y="17" type="line"/>
      <point x="103" y="28" type="line"/>
      <point x="103" y="604" type="line"/>
      <point x="30" y="615" type="line"/>
      <point x="30" y="632" type="line"/>
      <point x="506" y="632" type="line"/>
      <point x="506" y="451" type="line"/>
      <point x="484" y="451" type="line"/>
      <point x="423" y="612" type="line"/>
      <point x="190" y="612" type="line"/>
      <point x="190" y="328" type="line"/>
      <point x="292" y="328" type="line"/>
    </contour>
  </outline>
</glyph>
<glyph name="F" format="1">
  <advance width="529"/>
  <unicode hex="0046"/>
  <outline>
    <contour>
      <point x="262" y="17" type="line"/>
      <point x="262" y="0" type="line"/>
      <point x="30" y="0" type="line"/>
      <point x="30" y="17" type="line"/>
      <point x="103" y="28" type="line"/>
      <point x="103" y="604" type="line"/>
      <point x="30" y="615" type="line"/>
      <point x="30" y="632" type="line"/>
      <point x="506" y="632" type="line"/>
      <point x="506" y="439" type="line"/>
      <point x="484" y="439" type="line"/>
      <point x="423" y="612" type="line"/>
      <point x="190" y="612" type="line"/>
      <point x="190" y="316" type="line"/>
      <point x="323" y="316" type="line"/>
      <point x="370" y="431" type="line"/>
      <point x="391" y="431" type="line"/>
      <point x="391" y="181" type="line"/>
      <point x="370" y="181" type="line"/>
      <point x="323" y="297" type="line"/>
      <point x="190" y="297" type="line"/>
      <point x="190" y="28" type="line"/>
    </contour>
  </outline>
</glyph>
<glyph name="G" format="1">
  <advance width="641"/>
  <unicode hex="0047"/>
  <outline>
    <contour>
      <point x="521" y="648" type="line"/>
      <point x="537" y="648" type="line"/>
      <point x="537" y="452" type="line"/>
      <point x="521" y="452" type="line"/>
      <point x="468" y="582" type="line"/>
      <point x="431" y="614"/>
      <point x="385" y="630"/>
      <point x="331" y="630" type="curve" smooth="yes"/>
      <point x="224" y="630"/>
      <point x="142" y="538"/>
      <point x="142" y="389" type="curve" smooth="yes"/>
      <point x="142" y="244" type="line" smooth="yes"/>
      <point x="142" y="93"/>
      <point x="216" y="2"/>
      <point x="327" y="2" type="curve" smooth="yes"/>
      <point x="418" y="2"/>
      <point x="470" y="68"/>
      <point x="470" y="172" type="curve" smooth="yes"/>
      <point x="470" y="261" type="line"/>
      <point x="397" y="273" type="line"/>
      <point x="397" y="290" type="line"/>
      <point x="633" y="290" type="line"/>
      <point x="633" y="273" type="line"/>
      <point x="559" y="261" type="line"/>
      <point x="559" y="172" type="line" smooth="yes"/>
      <point x="559" y="68"/>
      <point x="482" y="-16"/>
      <point x="327" y="-16" type="curve" smooth="yes"/>
      <point x="153" y="-16"/>
      <point x="41" y="119"/>
      <point x="41" y="316" type="curve" smooth="yes"/>
      <point x="41" y="514"/>
      <point x="160" y="648"/>
      <point x="335" y="648" type="curve" smooth="yes"/>
      <point x="389" y="648"/>
      <point x="435" y="634"/>
      <point x="472" y="607" type="curve"/>
    </contour>
  </outline>
</glyph>
<glyph name="H" format="1">
  <advance width="679"/>
  <unicode hex="0048"/>
  <outline>
    <contour>
      <point x="649" y="17" type="line"/>
      <point x="649" y="0" type="line"/>
      <point x="416" y="0" type="line"/>
      <point x="416" y="17" type="line"/>
      <point x="490" y="28" type="line"/>
      <point x="490" y="325" type="line"/>
      <point x="190" y="325" type="line"/>
      <point x="190" y="28" type="line"/>
      <point x="262" y="17" type="line"/>
      <point x="262" y="0" type="line"/>
      <point x="30" y="0" type="line"/>
      <point x="30" y="17" type="line"/>
      <point x="103" y="28" type="line"/>
      <point x="103" y="604" type="line"/>
      <point x="30" y="615" type="line"/>
      <point x="30" y="632" type="line"/>
      <point x="262" y="632" type="line"/>
      <point x="262" y="615" type="line"/>
      <point x="190" y="604" type="line"/>
      <point x="190" y="344" type="line"/>
      <point x="490" y="344" type="line"/>
      <point x="490" y="604" type="line"/>
      <point x="416" y="615" type="line"/>
      <point x="416" y="632" type="line"/>
      <point x="649" y="632" type="line"/>
      <point x="649" y="615" type="line"/>
      <point x="576" y="604" type="line"/>
      <point x="576" y="28" type="line"/>
    </contour>
  </outline>
</glyph>
<glyph name="I" format="1">
  <advance width="292"/>
  <unicode hex="0049"/>
  <outline>
    <contour>
      <point x="262" y="17" type="line"/>
      <point x="262" y="0" type="line"/>
      <point x="30" y="0" type="line"/>
      <point x="30" y="17" type="line"/>
      <point x="103" y="28" type="line"/>
      <point x="103" y="604" type="line"/>
      <point x="30" y="615" type="line"/>
      <point x="30" y="632" type="line"/>
      <point x="262" y="632" type="line"/>
      <point x="262" y="615" type="line"/>
      <point x="190" y="604" type="line"/>
      <point x="190" y="28" type="line"/>
    </contour>
  </outline>
</glyph>
<glyph name="J" format="1">
  <advance width="353"/>
  <unicode hex="004A"/>
  <outline>
    <contour>
      <point x="215" y="0"/>
      <point x="176" y="-16"/>
      <point x="115" y="-16" type="curve" smooth="yes"/>
      <point x="53" y="-16"/>
      <point x="6" y="12"/>
      <point x="6" y="65" type="curve" smooth="yes"/>
      <point x="6" y="100"/>
      <point x="28" y="123"/>
      <point x="56" y="123" type="curve" smooth="yes"/>
      <point x="85" y="123"/>
      <point x="102" y="103"/>
      <point x="106" y="88" type="curve"/>
      <point x="108" y="77" type="line"/>
      <point x="93" y="66"/>
      <point x="85" y="54"/>
      <point x="85" y="42" type="curve" smooth="yes"/>
      <point x="85" y="17"/>
      <point x="99" y="2"/>
      <point x="121" y="2" type="curve" smooth="yes"/>
      <point x="137" y="2"/>
      <point x="151" y="13"/>
      <point x="160" y="36" type="curve" smooth="yes"/>
      <point x="168" y="59"/>
      <point x="173" y="99"/>
      <point x="175" y="156" type="curve"/>
      <point x="175" y="604" type="line"/>
      <point x="103" y="615" type="line"/>
      <point x="103" y="632" type="line"/>
      <point x="332" y="632" type="line"/>
      <point x="332" y="615" type="line"/>
      <point x="259" y="604" type="line"/>
      <point x="259" y="156" type="line" smooth="yes"/>
      <point x="259" y="101"/>
      <point x="254" y="68"/>
      <point x="235" y="34" type="curve" smooth="yes"/>
    </contour>
  </outline>
</glyph>
<glyph name="K" format="1">
  <advance width="582"/>
  <unicode hex="004B"/>
  <outline>
    <contour>
      <point x="605" y="0" type="line"/>
      <point x="372" y="0" type="line"/>
      <point x="372" y="17" type="line"/>
      <point x="444" y="28" type="line"/>
      <point x="237" y="340" type="line"/>
      <point x="190" y="292" type="line"/>
      <point x="190" y="28" type="line"/>
      <point x="262" y="17" type="line"/>
      <point x="262" y="0" type="line"/>
      <point x="30" y="0" type="line"/>
      <point x="30" y="17" type="line"/>
      <point x="103" y="28" type="line"/>
      <point x="103" y="604" type="line"/>
      <point x="30" y="615" type="line"/>
      <point x="30" y="632" type="line"/>
      <point x="262" y="632" type="line"/>
      <point x="262" y="615" type="line"/>
      <point x="190" y="604" type="line"/>
      <point x="190" y="319" type="line"/>
      <point x="446" y="581" type="line"/>
      <point x="360" y="615" type="line"/>
      <point x="360" y="632" type="line"/>
      <point x="543" y="632" type="line"/>
      <point x="543" y="615" type="line"/>
      <point x="478" y="581" type="line"/>
      <point x="299" y="401" type="line"/>
      <point x="551" y="28" type="line"/>
      <point x="605" y="17" type="line"/>
    </contour>
  </outline>
</glyph>
<glyph name="L" format="1">
  <advance width="531"/>
  <unicode hex="004C"/>
  <outline>
    <contour>
      <point x="30" y="632" type="line"/>
      <point x="262" y="632" type="line"/>
      <point x="262" y="615" type="line"/>
      <point x="190" y="604" type="line"/>
      <point x="190" y="19" type="line"/>
      <point x="426" y="19" type="line"/>
      <point x="491" y="193" type="line"/>
      <point x="512" y="193" type="line"/>
      <point x="512" y="0" type="line"/>
      <point x="30" y="0" type="line"/>
      <point x="30" y="17" type="line"/>
      <point x="103" y="28" type="line"/>
      <point x="103" y="604" type="line"/>
      <point x="30" y="615" type="line"/>
    </contour>
  </outline>
</glyph>
<glyph name="M" format="1">
  <advance width="796"/>
  <unicode hex="004D"/>
  <outline>
    <contour>
      <point x="104" y="48" type="line"/>
      <point x="104" y="604" type="line"/>
      <point x="32" y="615" type="line"/>
      <point x="32" y="632" type="line"/>
      <point x="206" y="632" type="line"/>
      <point x="404" y="125" type="line"/>
      <point x="607" y="632" type="line"/>
      <point x="766" y="632" type="line"/>
      <point x="766" y="615" type="line"/>
      <point x="694" y="604" type="line"/>
      <point x="694" y="28" type="line"/>
      <point x="766" y="17" type="line"/>
      <point x="766" y="0" type="line"/>
      <point x="534" y="0" type="line"/>
      <point x="534" y="17" type="line"/>
      <point x="607" y="28" type="line"/>
      <point x="607" y="580" type="line"/>
      <point x="373" y="-8" type="line"/>
      <point x="359" y="-8" type="line"/>
      <point x="123" y="604" type="line"/>
      <point x="123" y="48" type="line"/>
      <point x="199" y="17" type="line"/>
      <point x="199" y="0" type="line"/>
      <point x="30" y="0" type="line"/>
      <point x="30" y="17" type="line"/>
    </contour>
  </outline>
</glyph>
<glyph name="N" format="1">
  <advance width="640"/>
  <unicode hex="004E"/>
  <outline>
    <contour>
      <point x="106" y="48" type="line"/>
      <point x="106" y="584" type="line"/>
      <point x="32" y="615" type="line"/>
      <point x="32" y="632" type="line"/>
      <point x="179" y="632" type="line"/>
      <point x="520" y="155" type="line"/>
      <point x="520" y="584" type="line"/>
      <point x="446" y="615" type="line"/>
      <point x="446" y="632" type="line"/>
      <point x="615" y="632" type="line"/>
      <point x="615" y="615" type="line"/>
      <point x="540" y="584" type="line"/>
      <point x="540" y="0" type="line"/>
      <point x="520" y="0" type="line"/>
      <point x="126" y="554" type="line"/>
      <point x="126" y="48" type="line"/>
      <point x="201" y="17" type="line"/>
      <point x="201" y="0" type="line"/>
      <point x="32" y="0" type="line"/>
      <point x="32" y="17" type="line"/>
    </contour>
  </outline>
</glyph>
<glyph name="P" format="1">
  <advance width="534"/>
  <unicode hex="0050"/>
  <outline>
    <contour>
      <point x="190" y="245" type="line"/>
      <point x="190" y="28" type="line"/>
      <point x="262" y="17" type="line"/>
      <point x="262" y="0" type="line"/>
      <point x="30" y="0" type="line"/>
      <point x="30" y="17" type="line"/>
      <point x="103" y="28" type="line"/>
      <point x="103" y="604" type="line"/>
      <point x="30" y="615" type="line"/>
      <point x="30" y="632" type="line"/>
      <point x="278" y="632" type="line" smooth="yes"/>
      <point x="432" y="632"/>
      <point x="509" y="567"/>
      <point x="509" y="438" type="curve" smooth="yes"/>
      <point x="509" y="310"/>
      <point x="432" y="245"/>
      <point x="278" y="245" type="curve" smooth="yes"/>
    </contour>
    <contour>
      <point x="190" y="612" type="line"/>
      <point x="190" y="264" type="line"/>
      <point x="267" y="264" type="line" smooth="yes"/>
      <point x="364" y="264"/>
      <point x="413" y="317"/>
      <point x="413" y="423" type="curve" smooth="yes"/>
      <point x="413" y="454" type="line" smooth="yes"/>
      <point x="413" y="559"/>
      <point x="364" y="612"/>
      <point x="267" y="612" type="curve" smooth="yes"/>
    </contour>
  </outline>
</glyph>
<glyph name="Q" format="1">
  <advance width="676"/>
  <unicode hex="0051"/>
  <outline>
    <contour>
      <point x="484" y="-182" type="line"/>
      <point x="458" y="-182" type="line" smooth="yes"/>
      <point x="347" y="-182"/>
      <point x="291" y="-137"/>
      <point x="291" y="-46" type="curve" smooth="yes"/>
      <point x="291" y="-12" type="line"/>
      <point x="140" y="9"/>
      <point x="40" y="140"/>
      <point x="40" y="316" type="curve" smooth="yes"/>
      <point x="40" y="512"/>
      <point x="165" y="648"/>
      <point x="338" y="648" type="curve" smooth="yes"/>
      <point x="424" y="648"/>
      <point x="499" y="614"/>
      <point x="552" y="555" type="curve" smooth="yes"/>
      <point x="608" y="493"/>
      <point x="636" y="413"/>
      <point x="636" y="316" type="curve" smooth="yes"/>
      <point x="636" y="142"/>
      <point x="536" y="11"/>
      <point x="388" y="-12" type="curve"/>
      <point x="388" y="-65" type="line" smooth="yes"/>
      <point x="388" y="-131"/>
      <point x="420" y="-164"/>
      <point x="484" y="-164" type="curve"/>
    </contour>
    <contour>
      <point x="140" y="255" type="line" smooth="yes"/>
      <point x="140" y="98"/>
      <point x="221" y="2"/>
      <point x="338" y="2" type="curve" smooth="yes"/>
      <point x="454" y="2"/>
      <point x="536" y="98"/>
      <point x="536" y="255" type="curve" smooth="yes"/>
      <point x="536" y="377" type="line" smooth="yes"/>
      <point x="536" y="534"/>
      <point x="454" y="630"/>
      <point x="338" y="630" type="curve" smooth="yes"/>
      <point x="221" y="630"/>
      <point x="140" y="534"/>
      <point x="140" y="377" type="curve" smooth="yes"/>
    </contour>
  </outline>
</glyph>
<glyph name="R" format="1">
  <advance width="574"/>
  <unicode hex="0052"/>
  <outline>
    <contour>
      <point x="589" y="40" type="line"/>
      <point x="561" y="8"/>
      <point x="528" y="-8"/>
      <point x="489" y="-8" type="curve" smooth="yes"/>
      <point x="430" y="-8"/>
      <point x="403" y="17"/>
      <point x="393" y="86" type="curve" smooth="yes"/>
      <point x="378" y="192" type="line" smooth="yes"/>
      <point x="367" y="269"/>
      <point x="325" y="307"/>
      <point x="251" y="307" type="curve" smooth="yes"/>
      <point x="190" y="307" type="line"/>
      <point x="190" y="28" type="line"/>
      <point x="262" y="17" type="line"/>
      <point x="262" y="0" type="line"/>
      <point x="30" y="0" type="line"/>
      <point x="30" y="17" type="line"/>
      <point x="103" y="28" type="line"/>
      <point x="103" y="604" type="line"/>
      <point x="30" y="615" type="line"/>
      <point x="30" y="632" type="line"/>
      <point x="251" y="632" type="line" smooth="yes"/>
      <point x="423" y="632"/>
      <point x="495" y="579"/>
      <point x="495" y="469" type="curve" smooth="yes"/>
      <point x="495" y="378"/>
      <point x="441" y="326"/>
      <point x="331" y="312" type="curve"/>
      <point x="331" y="307" type="line"/>
      <point x="414" y="295"/>
      <point x="461" y="250"/>
      <point x="475" y="171" type="curve" smooth="yes"/>
      <point x="485" y="103" type="line" smooth="yes"/>
      <point x="494" y="51"/>
      <point x="500" y="28"/>
      <point x="529" y="28" type="curve" smooth="yes"/>
      <point x="543" y="28"/>
      <point x="559" y="36"/>
      <point x="576" y="55" type="curve"/>
    </contour>
    <contour>
      <point x="190" y="612" type="line"/>
      <point x="190" y="325" type="line"/>
      <point x="278" y="325" type="line" smooth="yes"/>
      <point x="355" y="325"/>
      <point x="400" y="373"/>
      <point x="400" y="465" type="curve" smooth="yes"/>
      <point x="400" y="481" type="line" smooth="yes"/>
      <point x="400" y="569"/>
      <point x="350" y="612"/>
      <point x="251" y="612" type="curve" smooth="yes"/>
    </contour>
  </outline>
</glyph>
<glyph name="S" format="1">
  <advance width="514"/>
  <unicode hex="0053"/>
  <outline>
    <contour>
      <point x="424" y="648" type="line"/>
      <point x="442" y="648" type="line"/>
      <point x="442" y="487" type="line"/>
      <point x="424" y="487" type="line"/>
      <point x="367" y="602" type="line"/>
      <point x="328" y="621"/>
      <point x="285" y="630"/>
      <point x="239" y="630" type="curve" smooth="yes"/>
      <point x="147" y="630"/>
      <point x="91" y="579"/>
      <point x="91" y="502" type="curve" smooth="yes"/>
      <point x="91" y="446"/>
      <point x="129" y="416"/>
      <point x="201" y="397" type="curve" smooth="yes"/>
      <point x="343" y="359" type="line" smooth="yes"/>
      <point x="435" y="337"/>
      <point x="479" y="287"/>
      <point x="479" y="171" type="curve" smooth="yes"/>
      <point x="479" y="55"/>
      <point x="401" y="-16"/>
      <point x="280" y="-16" type="curve" smooth="yes"/>
      <point x="231" y="-16"/>
      <point x="182" y="-2"/>
      <point x="135" y="26" type="curve"/>
      <point x="68" y="-8" type="line"/>
      <point x="51" y="-8" type="line"/>
      <point x="51" y="195" type="line"/>
      <point x="68" y="195" type="line"/>
      <point x="136" y="48" type="line"/>
      <point x="179" y="17"/>
      <point x="228" y="2"/>
      <point x="279" y="2" type="curve" smooth="yes"/>
      <point x="382" y="2"/>
      <point x="446" y="53"/>
      <point x="446" y="141" type="curve" smooth="yes"/>
      <point x="446" y="205"/>
      <point x="410" y="240"/>
      <point x="322" y="262" type="curve" smooth="yes"/>
      <point x="191" y="296" type="line" smooth="yes"/>
      <point x="100" y="321"/>
      <point x="53" y="382"/>
      <point x="53" y="462" type="curve" smooth="yes"/>
      <point x="53" y="574"/>
      <point x="122" y="648"/>
      <point x="238" y="648" type="curve" smooth="yes"/>
      <point x="286" y="648"/>
      <point x="329" y="640"/>
      <point x="367" y="623" type="curve"/>
    </contour>
  </outline>
</glyph>
<glyph name="T" format="1">
  <advance width="551"/>
  <unicode hex="0054"/>
  <outline>
    <contour>
      <point x="510" y="456" type="line"/>
      <point x="450" y="612" type="line"/>
      <point x="319" y="612" type="line"/>
      <point x="319" y="28" type="line"/>
      <point x="392" y="17" type="line"/>
      <point x="392" y="0" type="line"/>
      <point x="160" y="0" type="line"/>
      <point x="160" y="17" type="line"/>
      <point x="232" y="28" type="line"/>
      <point x="232" y="612" type="line"/>
      <point x="102" y="612" type="line"/>
      <point x="42" y="456" type="line"/>
      <point x="19" y="456" type="line"/>
      <point x="19" y="632" type="line"/>
      <point x="533" y="632" type="line"/>
      <point x="533" y="456" type="line"/>
    </contour>
  </outline>
</glyph>
<glyph name="U" format="1">
  <advance width="638"/>
  <unicode hex="0055"/>
  <outline>
    <contour>
      <point x="542" y="173" type="line" smooth="yes"/>
      <point x="542" y="47"/>
      <point x="476" y="-16"/>
      <point x="318" y="-16" type="curve" smooth="yes"/>
      <point x="161" y="-16"/>
      <point x="93" y="59"/>
      <point x="93" y="173" type="curve" smooth="yes"/>
      <point x="93" y="604" type="line"/>
      <point x="21" y="615" type="line"/>
      <point x="21" y="632" type="line"/>
      <point x="253" y="632" type="line"/>
      <point x="253" y="615" type="line"/>
      <point x="180" y="604" type="line"/>
      <point x="180" y="173" type="line" smooth="yes"/>
      <point x="180" y="66"/>
      <point x="239" y="13"/>
      <point x="356" y="13" type="curve" smooth="yes"/>
      <point x="467" y="13"/>
      <point x="523" y="66"/>
      <point x="523" y="173" type="curve" smooth="yes"/>
      <point x="523" y="584" type="line"/>
      <point x="450" y="615" type="line"/>
      <point x="450" y="632" type="line"/>
      <point x="618" y="632" type="line"/>
      <point x="618" y="615" type="line"/>
      <point x="542" y="584" type="line"/>
    </contour>
  </outline>
</glyph>
<glyph name="V" format="1">
  <advance width="547"/>
  <unicode hex="0056"/>
  <outline>
    <contour>
      <point x="269" y="-16" type="line"/>
      <point x="41" y="604" type="line"/>
      <point x="-22" y="615" type="line"/>
      <point x="-22" y="632" type="line"/>
      <point x="209" y="632" type="line"/>
      <point x="209" y="615" type="line"/>
      <point x="135" y="605" type="line"/>
      <point x="309" y="132" type="line"/>
      <point x="480" y="579" type="line"/>
      <point x="389" y="615" type="line"/>
      <point x="389" y="632" type="line"/>
      <point x="559" y="632" type="line"/>
      <point x="559" y="615" type="line"/>
      <point x="501" y="580" type="line"/>
      <point x="275" y="-16" type="line"/>
    </contour>
  </outline>
</glyph>
<glyph name="W" format="1">
  <advance width="856"/>
  <unicode hex="0057"/>
  <outline>
    <contour>
      <point x="704" y="615" type="line"/>
      <point x="704" y="632" type="line"/>
      <point x="874" y="632" type="line"/>
      <point x="874" y="615" type="line"/>
      <point x="814" y="580" type="line"/>
      <point x="588" y="-16" type="line"/>
      <point x="581" y="-16" type="line"/>
      <point x="427" y="410" type="line"/>
      <point x="266" y="-16" type="line"/>
      <point x="260" y="-16" type="line"/>
      <point x="37" y="604" type="line"/>
      <point x="-16" y="615" type="line"/>
      <point x="-16" y="632" type="line"/>
      <point x="204" y="632" type="line"/>
      <point x="204" y="615" type="line"/>
      <point x="132" y="604" type="line"/>
      <point x="302" y="136" type="line"/>
      <point x="417" y="438" type="line"/>
      <point x="358" y="604" type="line"/>
      <point x="285" y="615" type="line"/>
      <point x="285" y="632" type="line"/>
      <point x="520" y="632" type="line"/>
      <point x="520" y="615" type="line"/>
      <point x="452" y="605" type="line"/>
      <point x="623" y="137" type="line"/>
      <point x="793" y="579" type="line"/>
    </contour>
  </outline>
</glyph>
<glyph name="X" format="1">
  <advance width="601"/>
  <unicode hex="0058"/>
  <outline>
    <contour>
      <point x="190" y="17" type="line"/>
      <point x="190" y="0" type="line"/>
      <point x="2" y="0" type="line"/>
      <point x="2" y="17" type="line"/>
      <point x="80" y="61" type="line"/>
      <point x="261" y="303" type="line"/>
      <point x="61" y="604" type="line"/>
      <point x="-6" y="615" type="line"/>
      <point x="-6" y="632" type="line"/>
      <point x="233" y="632" type="line"/>
      <point x="233" y="615" type="line"/>
      <point x="171" y="605" type="line"/>
      <point x="324" y="373" type="line"/>
      <point x="476" y="577" type="line"/>
      <point x="382" y="615" type="line"/>
      <point x="382" y="632" type="line"/>
      <point x="571" y="632" type="line"/>
      <point x="571" y="615" type="line"/>
      <point x="496" y="573" type="line"/>
      <point x="335" y="357" type="line"/>
      <point x="554" y="28" type="line"/>
      <point x="622" y="17" type="line"/>
      <point x="622" y="0" type="line"/>
      <point x="382" y="0" type="line"/>
      <point x="382" y="17" type="line"/>
      <point x="444" y="27" type="line"/>
      <point x="272" y="286" type="line"/>
      <point x="97" y="54" type="line"/>
    </contour>
  </outline>
</glyph>
<glyph name="Y" format="1">
  <advance width="534"/>
  <unicode hex="0059"/>
  <outline>
    <contour>
      <point x="315" y="295" type="line"/>
      <point x="315" y="28" type="line"/>
      <point x="389" y="17" type="line"/>
      <point x="389" y="0" type="line"/>
      <point x="156" y="0" type="line"/>
      <point x="156" y="17" type="line"/>
      <point x="230" y="28" type="line"/>
      <point x="230" y="269" type="line"/>
      <point x="38" y="604" type="line"/>
      <point x="-24" y="615" type="line"/>
      <point x="-24" y="632" type="line"/>
      <point x="213" y="632" type="line"/>
      <point x="213" y="615" type="line"/>
      <point x="140" y="604" type="line"/>
      <point x="306" y="317" type="line"/>
      <point x="458" y="577" type="line"/>
      <point x="363" y="615" type="line"/>
      <point x="363" y="632" type="line"/>
      <point x="540" y="632" type="line"/>
      <point x="540" y="615" type="line"/>
      <point x="480" y="576" type="line"/>
    </contour>
  </outline>
</glyph>
<glyph name="Z" format="1">
  <advance width="539"/>
  <unicode hex="005A"/>
  <outline>
    <contour>
      <point x="63" y="632" type="line"/>
      <point x="498" y="632" type="line"/>
      <point x="498" y="612" type="line"/>
      <point x="127" y="19" type="line"/>
      <point x="404" y="19" type="line"/>
      <point x="485" y="181" type="line"/>
      <point x="506" y="181" type="line"/>
      <point x="487" y="0" type="line"/>
      <point x="21" y="0" type="line"/>
      <point x="21" y="19" type="line"/>
      <point x="391" y="612" type="line"/>
      <point x="146" y="612" type="line"/>
      <point x="65" y="462" type="line"/>
      <point x="44" y="462" type="line"/>
    </contour>
  </outline>
</glyph>
<glyph name="bracketleft" format="1">
  <advance width="245"/>
  <unicode hex="005B"/>
  <outline>
    <contour>
      <point x="237" y="-146" type="line"/>
      <point x="68" y="-146" type="line"/>
      <point x="68" y="709" type="line"/>
      <point x="237" y="709" type="line"/>
      <point x="237" y="685" type="line"/>
      <point x="148" y="685" type="line"/>
      <point x="148" y="-122" type="line"/>
      <point x="237" y="-122" type="line"/>
    </contour>
  </outline>
</glyph>
<glyph name="backslash" format="1">
  <advance width="344"/>
  <unicode hex="005C"/>
  <outline>
    <contour>
      <point x="278" y="0" type="line"/>
      <point x="33" y="553" type="line"/>
      <point x="73" y="553" type="line"/>
      <point x="319" y="0" type="line"/>
    </contour>
  </outline>
</glyph>
<glyph name="bracketright" format="1">
  <advance width="245"/>
  <unicode hex="005D"/>
  <outline>
    <contour>
      <point x="9" y="-146" type="line"/>
      <point x="178" y="-146" type="line"/>
      <point x="178" y="709" type="line"/>
      <point x="9" y="709" type="line"/>
      <point x="9" y="685" type="line"/>
      <point x="98" y="685" type="line"/>
      <point x="98" y="-122" type="line"/>
      <point x="9" y="-122" type="line"/>
    </contour>
  </outline>
</glyph>
<glyph name="asciicircum" format="1">
  <advance width="453"/>
  <unicode hex="005E"/>
  <outline>
    <contour>
      <point x="211" y="532" type="line"/>
      <point x="242" y="532" type="line"/>
      <point x="404" y="211" type="line"/>
      <point x="365" y="211" type="line"/>
      <point x="226" y="483" type="line"/>
      <point x="88" y="211" type="line"/>
      <point x="48" y="211" type="line"/>
    </contour>
  </outline>
</glyph>
<glyph name="underscore" format="1">
  <advance width="363"/>
  <unicode hex="005F"/>
  <outline>
    <contour>
      <point x="363" y="-62" type="line"/>
      <point x="363" y="-89" type="line"/>
      <point x="0" y="-89" type="line"/>
      <point x="0" y="-62" type="line"/>
    </contour>
  </outline>
</glyph>
<glyph name="grave" format="1">
  <advance width="175"/>
  <unicode hex="0060"/>
  <outline>
    <contour>
      <point x="-2" y="543" type="line"/>
      <point x="-11" y="550"/>
      <point x="-16" y="559"/>
      <point x="-16" y="570" type="curve" smooth="yes"/>
      <point x="-16" y="591"/>
      <point x="2" y="608"/>
      <point x="21" y="608" type="curve" smooth="yes"/>
      <point x="37" y="608"/>
      <point x="49" y="600"/>
      <point x="56" y="585" type="curve" smooth="yes"/>
      <point x="114" y="461" type="line"/>
      <point x="101" y="451" type="line"/>
    </contour>
  </outline>
</glyph>
<glyph name="a" format="1">
  <advance width="441"/>
  <unicode hex="0061"/>
  <outline>
    <contour>
      <point x="333" y="31"/>
      <point x="262" y="-10"/>
      <point x="179" y="-10" type="curve" smooth="yes"/>
      <point x="96" y="-10"/>
      <point x="37" y="38"/>
      <point x="37" y="116" type="curve" smooth="yes"/>
      <point x="37" y="194"/>
      <point x="73" y="234"/>
      <point x="128" y="262" type="curve" smooth="yes"/>
      <point x="177" y="286"/>
      <point x="244" y="298"/>
      <point x="329" y="298" type="curve" smooth="yes"/>
      <point x="366" y="298" type="line"/>
      <point x="366" y="393" type="line" smooth="yes"/>
      <point x="366" y="468"/>
      <point x="332" y="505"/>
      <point x="264" y="505" type="curve" smooth="yes"/>
      <point x="204" y="505"/>
      <point x="161" y="472"/>
      <point x="161" y="436" type="curve" smooth="yes"/>
      <point x="161" y="417"/>
      <point x="170" y="405"/>
      <point x="189" y="399" type="curve"/>
      <point x="189" y="366"/>
      <point x="160" y="336"/>
      <point x="125" y="336" type="curve" smooth="yes"/>
      <point x="90" y="336"/>
      <point x="63" y="364"/>
      <point x="63" y="401" type="curve" smooth="yes"/>
      <point x="63" y="437"/>
      <point x="87" y="469"/>
      <point x="124" y="492" type="curve" smooth="yes"/>
      <point x="161" y="515"/>
      <point x="208" y="527"/>
      <point x="264" y="527" type="curve" smooth="yes"/>
      <point x="399" y="527"/>
      <point x="466" y="476"/>
      <point x="466" y="373" type="curve" smooth="yes"/>
      <point x="466" y="67" type="line" smooth="yes"/>
      <point x="466" y="37"/>
      <point x="478" y="22"/>
      <point x="503" y="22" type="curve" smooth="yes"/>
      <point x="528" y="22"/>
      <point x="540" y="36"/>
      <point x="540" y="65" type="curve"/>
      <point x="561" y="65" type="line"/>
      <point x="561" y="18"/>
      <point x="529" y="-10"/>
      <point x="472" y="-10" type="curve" smooth="yes"/>
      <point x="415" y="-10"/>
      <point x="367" y="26"/>
      <point x="366" y="99" type="curve"/>
    </contour>
    <contour>
      <point x="366" y="273" type="line"/>
      <point x="329" y="273" type="line" smooth="yes"/>
      <point x="225" y="273"/>
      <point x="146" y="224"/>
      <point x="146" y="123" type="curve" smooth="yes"/>
      <point x="146" y="70"/>
      <point x="176" y="37"/>
      <point x="234" y="37" type="curve" smooth="yes"/>
      <point x="292" y="37"/>
      <point x="358" y="89"/>
      <point x="366" y="170" type="curve"/>
    </contour>
  </outline>
</glyph>
<glyph name="b" format="1">
  <advance width="506"/>
  <unicode hex="0062"/>
  <outline>
    <contour>
      <point x="16" y="0" type="line"/>
      <point x="16" y="16" type="line"/>
      <point x="71" y="24" type="line"/>
      <point x="71" y="608" type="line"/>
      <point x="16" y="616" type="line"/>
      <point x="16" y="632" type="line"/>
      <point x="150" y="632" type="line"/>
      <point x="150" y="326" type="line"/>
      <point x="179" y="386"/>
      <point x="223" y="416"/>
      <point x="284" y="416" type="curve" smooth="yes"/>
      <point x="398" y="416"/>
      <point x="472" y="330"/>
      <point x="472" y="205" type="curve" smooth="yes"/>
      <point x="472" y="78"/>
      <point x="399" y="-8"/>
      <point x="281" y="-8" type="curve" smooth="yes"/>
      <point x="222" y="-8"/>
      <point x="179" y="22"/>
      <point x="150" y="82" type="curve"/>
      <point x="150" y="0" type="line"/>
    </contour>
    <contour>
      <point x="386" y="244" type="line" smooth="yes"/>
      <point x="386" y="346"/>
      <point x="349" y="397"/>
      <point x="276" y="397" type="curve" smooth="yes"/>
      <point x="205" y="397"/>
      <point x="152" y="331"/>
      <point x="150" y="250" type="curve" smooth="yes"/>
      <point x="150" y="165" type="line" smooth="yes"/>
      <point x="150" y="82"/>
      <point x="204" y="12"/>
      <point x="276" y="12" type="curve" smooth="yes"/>
      <point x="349" y="12"/>
      <point x="386" y="63"/>
      <point x="386" y="165" type="curve" smooth="yes"/>
    </contour>
  </outline>
</glyph>
<glyph name="c" format="1">
  <advance width="429"/>
  <unicode hex="0063"/>
  <outline>
    <contour>
      <point x="315" y="302"/>
      <point x="322" y="316"/>
      <point x="322" y="334" type="curve" smooth="yes"/>
      <point x="322" y="371"/>
      <point x="288" y="399"/>
      <point x="237" y="399" type="curve" smooth="yes"/>
      <point x="161" y="399"/>
      <point x="119" y="342"/>
      <point x="119" y="244" type="curve" smooth="yes"/>
      <point x="119" y="165" type="line" smooth="yes"/>
      <point x="119" y="71"/>
      <point x="160" y="9"/>
      <point x="235" y="9" type="curve" smooth="yes"/>
      <point x="310" y="9"/>
      <point x="367" y="54"/>
      <point x="380" y="120" type="curve"/>
      <point x="398" y="120" type="line"/>
      <point x="383" y="42"/>
      <point x="320" y="-8"/>
      <point x="237" y="-8" type="curve" smooth="yes"/>
      <point x="121" y="-8"/>
      <point x="32" y="77"/>
      <point x="32" y="206" type="curve" smooth="yes"/>
      <point x="32" y="335"/>
      <point x="126" y="416"/>
      <point x="237" y="416" type="curve" smooth="yes"/>
      <point x="329" y="416"/>
      <point x="400" y="365"/>
      <point x="400" y="295" type="curve" smooth="yes"/>
      <point x="400" y="261"/>
      <point x="380" y="242"/>
      <point x="352" y="242" type="curve" smooth="yes"/>
      <point x="322" y="242"/>
      <point x="301" y="263"/>
      <point x="301" y="292" type="curve"/>
    </contour>
  </outline>
</glyph>
<glyph name="d" format="1">
  <advance width="506"/>
  <unicode hex="0064"/>
  <outline>
    <contour>
      <point x="356" y="0" type="line"/>
      <point x="356" y="82" type="line"/>
      <point x="327" y="22"/>
      <point x="283" y="-8"/>
      <point x="222" y="-8" type="curve" smooth="yes"/>
      <point x="108" y="-8"/>
      <point x="33" y="76"/>
      <point x="33" y="205" type="curve" smooth="yes"/>
      <point x="33" y="333"/>
      <point x="107" y="416"/>
      <point x="225" y="416" type="curve" smooth="yes"/>
      <point x="284" y="416"/>
      <point x="327" y="386"/>
      <point x="356" y="326" type="curve"/>
      <point x="356" y="608" type="line"/>
      <point x="300" y="616" type="line"/>
      <point x="300" y="632" type="line"/>
      <point x="435" y="632" type="line"/>
      <point x="435" y="24" type="line"/>
      <point x="490" y="16" type="line"/>
      <point x="490" y="0" type="line"/>
    </contour>
    <contour>
      <point x="120" y="165" type="line" smooth="yes"/>
      <point x="120" y="63"/>
      <point x="156" y="12"/>
      <point x="230" y="12" type="curve" smooth="yes"/>
      <point x="299" y="12"/>
      <point x="353" y="77"/>
      <point x="356" y="159" type="curve" smooth="yes"/>
      <point x="356" y="250" type="line"/>
      <point x="353" y="331"/>
      <point x="299" y="397"/>
      <point x="230" y="397" type="curve" smooth="yes"/>
      <point x="156" y="397"/>
      <point x="120" y="346"/>
      <point x="120" y="244" type="curve" smooth="yes"/>
    </contour>
  </outline>
</glyph>
<glyph name="f" format="1">
  <advance width="270"/>
  <unicode hex="0066"/>
  <outline>
    <contour>
      <point x="21" y="0" type="line"/>
      <point x="21" y="16" type="line"/>
      <point x="76" y="24" type="line"/>
      <point x="76" y="386" type="line"/>
      <point x="21" y="393" type="line"/>
      <point x="21" y="409" type="line"/>
      <point x="76" y="409" type="line"/>
      <point x="76" y="476" type="line" smooth="yes"/>
      <point x="76" y="585"/>
      <point x="121" y="640"/>
      <point x="212" y="640" type="curve" smooth="yes"/>
      <point x="274" y="640"/>
      <point x="319" y="608"/>
      <point x="319" y="556" type="curve" smooth="yes"/>
      <point x="319" y="525"/>
      <point x="300" y="502"/>
      <point x="273" y="502" type="curve" smooth="yes"/>
      <point x="244" y="502"/>
      <point x="221" y="526"/>
      <point x="221" y="552" type="curve"/>
      <point x="239" y="558"/>
      <point x="248" y="570"/>
      <point x="248" y="589" type="curve" smooth="yes"/>
      <point x="248" y="608"/>
      <point x="231" y="623"/>
      <point x="212" y="623" type="curve" smooth="yes"/>
      <point x="191" y="623"/>
      <point x="177" y="613"/>
      <point x="168" y="594" type="curve" smooth="yes"/>
      <point x="160" y="574"/>
      <point x="155" y="544"/>
      <point x="155" y="500" type="curve" smooth="yes"/>
      <point x="155" y="409" type="line"/>
      <point x="258" y="409" type="line"/>
      <point x="258" y="393" type="line"/>
      <point x="155" y="386" type="line"/>
      <point x="155" y="24" type="line"/>
      <point x="249" y="16" type="line"/>
      <point x="249" y="0" type="line"/>
    </contour>
  </outline>
</glyph>
<glyph name="g" format="1">
  <advance width="426"/>
  <unicode hex="0067"/>
  <outline>
    <contour>
      <point x="147" y="-21" type="line" smooth="yes"/>
      <point x="73" y="-21"/>
      <point x="36" y="5"/>
      <point x="36" y="57" type="curve" smooth="yes"/>
      <point x="36" y="104"/>
      <point x="63" y="136"/>
      <point x="107" y="145" type="curve"/>
      <point x="66" y="171"/>
      <point x="46" y="213"/>
      <point x="46" y="267" type="curve" smooth="yes"/>
      <point x="46" y="359"/>
      <point x="115" y="416"/>
      <point x="205" y="416" type="curve" smooth="yes"/>
      <point x="250" y="416"/>
      <point x="287" y="404"/>
      <point x="316" y="382" type="curve"/>
      <point x="356" y="385"/>
      <point x="376" y="404"/>
      <point x="376" y="423" type="curve" smooth="yes"/>
      <point x="376" y="443"/>
      <point x="364" y="453"/>
      <point x="349" y="453" type="curve"/>
      <point x="349" y="480"/>
      <point x="371" y="502"/>
      <point x="399" y="502" type="curve" smooth="yes"/>
      <point x="427" y="502"/>
      <point x="448" y="483"/>
      <point x="448" y="453" type="curve" smooth="yes"/>
      <point x="448" y="408"/>
      <point x="412" y="374"/>
      <point x="331" y="367" type="curve"/>
      <point x="356" y="341"/>
      <point x="368" y="307"/>
      <point x="368" y="263" type="curve" smooth="yes"/>
      <point x="368" y="177"/>
      <point x="300" y="119"/>
      <point x="206" y="119" type="curve" smooth="yes"/>
      <point x="176" y="119"/>
      <point x="150" y="123"/>
      <point x="129" y="134" type="curve"/>
      <point x="97" y="131"/>
      <point x="76" y="118"/>
      <point x="76" y="93" type="curve" smooth="yes"/>
      <point x="76" y="68"/>
      <point x="106" y="55"/>
      <point x="147" y="55" type="curve" smooth="yes"/>
      <point x="277" y="55" type="line" smooth="yes"/>
      <point x="362" y="55"/>
      <point x="405" y="25"/>
      <point x="405" y="-53" type="curve" smooth="yes"/>
      <point x="405" y="-154"/>
      <point x="334" y="-231"/>
      <point x="205" y="-231" type="curve" smooth="yes"/>
      <point x="77" y="-231"/>
      <point x="12" y="-186"/>
      <point x="12" y="-120" type="curve" smooth="yes"/>
      <point x="12" y="-81"/>
      <point x="41" y="-47"/>
      <point x="88" y="-47" type="curve" smooth="yes"/>
      <point x="93" y="-47"/>
      <point x="103" y="-48"/>
      <point x="118" y="-51" type="curve"/>
      <point x="101" y="-68"/>
      <point x="93" y="-89"/>
      <point x="93" y="-115" type="curve" smooth="yes"/>
      <point x="93" y="-167"/>
      <point x="126" y="-216"/>
      <point x="218" y="-216" type="curve" smooth="yes"/>
      <point x="310" y="-216"/>
      <point x="382" y="-152"/>
      <point x="382" y="-86" type="curve" smooth="yes"/>
      <point x="382" y="-41"/>
      <point x="363" y="-21"/>
      <point x="301" y="-21" type="curve" smooth="yes"/>
    </contour>
    <contour>
      <point x="294" y="287" type="line" smooth="yes"/>
      <point x="294" y="364"/>
      <point x="265" y="403"/>
      <point x="206" y="403" type="curve" smooth="yes"/>
      <point x="149" y="403"/>
      <point x="120" y="364"/>
      <point x="120" y="287" type="curve" smooth="yes"/>
      <point x="120" y="248" type="line" smooth="yes"/>
      <point x="120" y="175"/>
      <point x="149" y="132"/>
      <point x="207" y="132" type="curve" smooth="yes"/>
      <point x="265" y="132"/>
      <point x="294" y="175"/>
      <point x="294" y="248" type="curve" smooth="yes"/>
    </contour>
  </outline>
</glyph>
<glyph name="h" format="1">
  <advance width="495"/>
  <unicode hex="0068"/>
  <outline>
    <contour>
      <point x="16" y="616" type="line"/>
      <point x="16" y="632" type="line"/>
      <point x="150" y="632" type="line"/>
      <point x="150" y="324" type="line"/>
      <point x="193" y="386"/>
      <point x="244" y="416"/>
      <point x="304" y="416" type="curve" smooth="yes"/>
      <point x="380" y="416"/>
      <point x="427" y="378"/>
      <point x="427" y="303" type="curve" smooth="yes"/>
      <point x="427" y="24" type="line"/>
      <point x="482" y="16" type="line"/>
      <point x="482" y="0" type="line"/>
      <point x="300" y="0" type="line"/>
      <point x="300" y="16" type="line"/>
      <point x="348" y="24" type="line"/>
      <point x="348" y="302" type="line" smooth="yes"/>
      <point x="348" y="359"/>
      <point x="325" y="388"/>
      <point x="280" y="388" type="curve" smooth="yes"/>
      <point x="231" y="388"/>
      <point x="185" y="348"/>
      <point x="150" y="296" type="curve"/>
      <point x="150" y="24" type="line"/>
      <point x="198" y="16" type="line"/>
      <point x="198" y="0" type="line"/>
      <point x="16" y="0" type="line"/>
      <point x="16" y="16" type="line"/>
      <point x="71" y="24" type="line"/>
      <point x="71" y="608" type="line"/>
    </contour>
  </outline>
</glyph>
<glyph name="i" format="1">
  <advance width="227"/>
  <unicode hex="0069"/>
  <outline>
    <contour>
      <point x="51" y="583"/>
      <point x="75" y="606"/>
      <point x="104" y="606" type="curve" smooth="yes"/>
      <point x="134" y="606"/>
      <point x="156" y="583"/>
      <point x="156" y="554" type="curve" smooth="yes"/>
      <point x="156" y="525"/>
      <point x="134" y="501"/>
      <point x="105" y="501" type="curve" smooth="yes"/>
      <point x="76" y="501"/>
      <point x="51" y="525"/>
      <point x="51" y="554" type="curve" smooth="yes"/>
    </contour>
    <contour>
      <point x="21" y="393" type="line"/>
      <point x="21" y="408" type="line"/>
      <point x="156" y="408" type="line"/>
      <point x="156" y="24" type="line"/>
      <point x="211" y="16" type="line"/>
      <point x="211" y="0" type="line"/>
      <point x="21" y="0" type="line"/>
      <point x="21" y="16" type="line"/>
      <point x="77" y="24" type="line"/>
      <point x="77" y="385" type="line"/>
    </contour>
  </outline>
</glyph>
<glyph name="j" format="1">
  <advance width="210"/>
  <unicode hex="006A"/>
  <outline>
    <contour>
      <point x="15" y="-154"/>
      <point x="-24" y="-122"/>
      <point x="-24" y="-70" type="curve" smooth="yes"/>
      <point x="-24" y="-39"/>
      <point x="-5" y="-17"/>
      <point x="23" y="-17" type="curve" smooth="yes"/>
      <point x="51" y="-17"/>
      <point x="68" y="-35"/>
      <point x="71" y="-48" type="curve"/>
      <point x="74" y="-58" type="line"/>
      <point x="58" y="-70"/>
      <point x="49" y="-84"/>
      <point x="49" y="-100" type="curve" smooth="yes"/>
      <point x="49" y="-122"/>
      <point x="60" y="-133"/>
      <point x="81" y="-133" type="curve" smooth="yes"/>
      <point x="109" y="-133"/>
      <point x="126" y="-110"/>
      <point x="126" y="-66" type="curve" smooth="yes"/>
      <point x="126" y="-45"/>
      <point x="117" y="-17"/>
      <point x="99" y="15" type="curve" smooth="yes"/>
      <point x="80" y="47"/>
      <point x="70" y="77"/>
      <point x="70" y="105" type="curve" smooth="yes"/>
      <point x="70" y="386" type="line"/>
      <point x="11" y="393" type="line"/>
      <point x="11" y="409" type="line"/>
      <point x="149" y="409" type="line"/>
      <point x="149" y="-45" type="line" smooth="yes"/>
      <point x="149" y="-118"/>
      <point x="122" y="-154"/>
      <point x="69" y="-154" type="curve" smooth="yes"/>
    </contour>
    <contour>
      <point x="47" y="583"/>
      <point x="70" y="606"/>
      <point x="100" y="606" type="curve" smooth="yes"/>
      <point x="129" y="606"/>
      <point x="152" y="583"/>
      <point x="152" y="554" type="curve" smooth="yes"/>
      <point x="152" y="525"/>
      <point x="129" y="501"/>
      <point x="100" y="501" type="curve" smooth="yes"/>
      <point x="71" y="501"/>
      <point x="47" y="525"/>
      <point x="47" y="554" type="curve" smooth="yes"/>
    </contour>
  </outline>
</glyph>
<glyph name="k" format="1">
  <advance width="447"/>
  <unicode hex="006B"/>
  <outline>
    <contour>
      <point x="16" y="0" type="line"/>
      <point x="16" y="16" type="line"/>
      <point x="71" y="24" type="line"/>
      <point x="71" y="608" type="line"/>
      <point x="16" y="616" type="line"/>
      <point x="16" y="632" type="line"/>
      <point x="150" y="632" type="line"/>
      <point x="150" y="227" type="line"/>
      <point x="331" y="375" type="line"/>
      <point x="262" y="393" type="line"/>
      <point x="262" y="409" type="line"/>
      <point x="411" y="409" type="line"/>
      <point x="411" y="393" type="line"/>
      <point x="360" y="375" type="line"/>
      <point x="229" y="268" type="line"/>
      <point x="414" y="23" type="line"/>
      <point x="457" y="16" type="line"/>
      <point x="457" y="0" type="line"/>
      <point x="272" y="0" type="line"/>
      <point x="272" y="16" type="line"/>
      <point x="319" y="24" type="line"/>
      <point x="171" y="220" type="line"/>
      <point x="150" y="202" type="line"/>
      <point x="150" y="24" type="line"/>
      <point x="198" y="16" type="line"/>
      <point x="198" y="0" type="line"/>
    </contour>
  </outline>
</glyph>
<glyph name="l" format="1">
  <advance width="224"/>
  <unicode hex="006C"/>
  <outline>
    <contour>
      <point x="14" y="616" type="line"/>
      <point x="14" y="632" type="line"/>
      <point x="152" y="632" type="line"/>
      <point x="152" y="24" type="line"/>
      <point x="208" y="16" type="line"/>
      <point x="208" y="0" type="line"/>
      <point x="14" y="0" type="line"/>
      <point x="14" y="16" type="line"/>
      <point x="73" y="24" type="line"/>
      <point x="73" y="608" type="line"/>
    </contour>
  </outline>
</glyph>
<glyph name="m" format="1">
  <advance width="746"/>
  <unicode hex="006D"/>
  <outline>
    <contour>
      <point x="289" y="0" type="line"/>
      <point x="289" y="16" type="line"/>
      <point x="337" y="24" type="line"/>
      <point x="337" y="302" type="line" smooth="yes"/>
      <point x="337" y="359"/>
      <point x="315" y="388"/>
      <point x="273" y="388" type="curve" smooth="yes"/>
      <point x="231" y="388"/>
      <point x="192" y="362"/>
      <point x="155" y="309" type="curve"/>
      <point x="155" y="24" type="line"/>
      <point x="202" y="16" type="line"/>
      <point x="202" y="0" type="line"/>
      <point x="21" y="0" type="line"/>
      <point x="21" y="16" type="line"/>
      <point x="76" y="24" type="line"/>
      <point x="76" y="386" type="line"/>
      <point x="21" y="393" type="line"/>
      <point x="21" y="409" type="line"/>
      <point x="155" y="409" type="line"/>
      <point x="155" y="337" type="line"/>
      <point x="195" y="389"/>
      <point x="243" y="416"/>
      <point x="297" y="416" type="curve" smooth="yes"/>
      <point x="364" y="416"/>
      <point x="403" y="389"/>
      <point x="414" y="333" type="curve"/>
      <point x="454" y="389"/>
      <point x="502" y="416"/>
      <point x="559" y="416" type="curve" smooth="yes"/>
      <point x="634" y="416"/>
      <point x="677" y="379"/>
      <point x="677" y="303" type="curve" smooth="yes"/>
      <point x="677" y="24" type="line"/>
      <point x="732" y="16" type="line"/>
      <point x="732" y="0" type="line"/>
      <point x="551" y="0" type="line"/>
      <point x="551" y="16" type="line"/>
      <point x="598" y="24" type="line"/>
      <point x="598" y="302" type="line" smooth="yes"/>
      <point x="598" y="359"/>
      <point x="577" y="388"/>
      <point x="534" y="388" type="curve" smooth="yes"/>
      <point x="493" y="388"/>
      <point x="453" y="362"/>
      <point x="416" y="309" type="curve"/>
      <point x="416" y="24" type="line"/>
      <point x="464" y="16" type="line"/>
      <point x="464" y="0" type="line"/>
    </contour>
  </outline>
</glyph>
<glyph name="n" format="1">
  <advance width="500"/>
  <unicode hex="006E"/>
  <outline>
    <contour>
      <point x="305" y="0" type="line"/>
      <point x="305" y="16" type="line"/>
      <point x="352" y="24" type="line"/>
      <point x="352" y="302" type="line" smooth="yes"/>
      <point x="352" y="359"/>
      <point x="329" y="388"/>
      <point x="284" y="388" type="curve" smooth="yes"/>
      <point x="236" y="388"/>
      <point x="190" y="348"/>
      <point x="155" y="296" type="curve"/>
      <point x="155" y="24" type="line"/>
      <point x="202" y="16" type="line"/>
      <point x="202" y="0" type="line"/>
      <point x="21" y="0" type="line"/>
      <point x="21" y="16" type="line"/>
      <point x="76" y="24" type="line"/>
      <point x="76" y="386" type="line"/>
      <point x="21" y="393" type="line"/>
      <point x="21" y="409" type="line"/>
      <point x="155" y="409" type="line"/>
      <point x="155" y="324" type="line"/>
      <point x="198" y="386"/>
      <point x="249" y="416"/>
      <point x="309" y="416" type="curve" smooth="yes"/>
      <point x="385" y="416"/>
      <point x="431" y="378"/>
      <point x="431" y="303" type="curve" smooth="yes"/>
      <point x="431" y="24" type="line"/>
      <point x="487" y="16" type="line"/>
      <point x="487" y="0" type="line"/>
    </contour>
  </outline>
</glyph>
<glyph name="o" format="1">
  <advance width="474"/>
  <unicode hex="006F"/>
  <outline>
    <contour>
      <point x="355" y="244" type="line" smooth="yes"/>
      <point x="355" y="339"/>
      <point x="316" y="399"/>
      <point x="237" y="399" type="curve" smooth="yes"/>
      <point x="158" y="399"/>
      <point x="119" y="339"/>
      <point x="119" y="244" type="curve" smooth="yes"/>
      <point x="119" y="165" type="line" smooth="yes"/>
      <point x="119" y="71"/>
      <point x="159" y="9"/>
      <point x="237" y="9" type="curve" smooth="yes"/>
      <point x="315" y="9"/>
      <point x="355" y="71"/>
      <point x="355" y="165" type="curve" smooth="yes"/>
    </contour>
    <contour>
      <point x="52" y="91"/>
      <point x="32" y="142"/>
      <point x="32" y="205" type="curve" smooth="yes"/>
      <point x="32" y="329"/>
      <point x="119" y="416"/>
      <point x="237" y="416" type="curve" smooth="yes"/>
      <point x="354" y="416"/>
      <point x="442" y="328"/>
      <point x="442" y="205" type="curve" smooth="yes"/>
      <point x="442" y="81"/>
      <point x="354" y="-8"/>
      <point x="238" y="-8" type="curve" smooth="yes"/>
      <point x="180" y="-8"/>
      <point x="131" y="12"/>
      <point x="91" y="51" type="curve"/>
    </contour>
  </outline>
</glyph>
<glyph name="p" format="1">
  <advance width="506"/>
  <unicode hex="0070"/>
  <outline>
    <contour>
      <point x="150" y="409" type="line"/>
      <point x="150" y="325" type="line"/>
      <point x="178" y="386"/>
      <point x="221" y="416"/>
      <point x="280" y="416" type="curve" smooth="yes"/>
      <point x="398" y="416"/>
      <point x="472" y="333"/>
      <point x="472" y="204" type="curve" smooth="yes"/>
      <point x="472" y="75"/>
      <point x="398" y="-8"/>
      <point x="281" y="-8" type="curve" smooth="yes"/>
      <point x="222" y="-8"/>
      <point x="179" y="22"/>
      <point x="150" y="82" type="curve"/>
      <point x="150" y="-200" type="line"/>
      <point x="224" y="-208" type="line"/>
      <point x="224" y="-224" type="line"/>
      <point x="16" y="-224" type="line"/>
      <point x="16" y="-208" type="line"/>
      <point x="71" y="-200" type="line"/>
      <point x="71" y="386" type="line"/>
      <point x="16" y="393" type="line"/>
      <point x="16" y="409" type="line"/>
    </contour>
    <contour>
      <point x="386" y="243" type="line" smooth="yes"/>
      <point x="386" y="345"/>
      <point x="349" y="397"/>
      <point x="276" y="397" type="curve" smooth="yes"/>
      <point x="205" y="397"/>
      <point x="152" y="330"/>
      <point x="150" y="249" type="curve" smooth="yes"/>
      <point x="150" y="164" type="line" smooth="yes"/>
      <point x="150" y="81"/>
      <point x="204" y="12"/>
      <point x="276" y="12" type="curve" smooth="yes"/>
      <point x="349" y="12"/>
      <point x="386" y="62"/>
      <point x="386" y="164" type="curve" smooth="yes"/>
    </contour>
  </outline>
</glyph>
<glyph name="q" format="1">
  <advance width="506"/>
  <unicode hex="0071"/>
  <outline>
    <contour>
      <point x="356" y="-200" type="line"/>
      <point x="356" y="82" type="line"/>
      <point x="327" y="22"/>
      <point x="284" y="-8"/>
      <point x="225" y="-8" type="curve" smooth="yes"/>
      <point x="107" y="-8"/>
      <point x="33" y="75"/>
      <point x="33" y="204" type="curve" smooth="yes"/>
      <point x="33" y="333"/>
      <point x="107" y="416"/>
      <point x="225" y="416" type="curve" smooth="yes"/>
      <point x="284" y="416"/>
      <point x="328" y="386"/>
      <point x="356" y="325" type="curve"/>
      <point x="356" y="409" type="line"/>
      <point x="490" y="409" type="line"/>
      <point x="490" y="393" type="line"/>
      <point x="435" y="386" type="line"/>
      <point x="435" y="-200" type="line"/>
      <point x="490" y="-208" type="line"/>
      <point x="490" y="-224" type="line"/>
      <point x="261" y="-224" type="line"/>
      <point x="261" y="-208" type="line"/>
    </contour>
    <contour>
      <point x="120" y="164" type="line" smooth="yes"/>
      <point x="120" y="62"/>
      <point x="156" y="12"/>
      <point x="230" y="12" type="curve" smooth="yes"/>
      <point x="299" y="12"/>
      <point x="353" y="78"/>
      <point x="356" y="158" type="curve" smooth="yes"/>
      <point x="356" y="249" type="line"/>
      <point x="353" y="330"/>
      <point x="299" y="397"/>
      <point x="230" y="397" type="curve" smooth="yes"/>
      <point x="156" y="397"/>
      <point x="120" y="345"/>
      <point x="120" y="243" type="curve" smooth="yes"/>
    </contour>
  </outline>
</glyph>
<glyph name="r" format="1">
  <advance width="348"/>
  <unicode hex="0072"/>
  <outline>
    <contour>
      <point x="21" y="0" type="line"/>
      <point x="21" y="16" type="line"/>
      <point x="76" y="24" type="line"/>
      <point x="76" y="386" type="line"/>
      <point x="21" y="393" type="line"/>
      <point x="21" y="409" type="line"/>
      <point x="155" y="409" type="line"/>
      <point x="155" y="348" type="line"/>
      <point x="188" y="393"/>
      <point x="225" y="416"/>
      <point x="267" y="416" type="curve" smooth="yes"/>
      <point x="307" y="416"/>
      <point x="343" y="393"/>
      <point x="343" y="361" type="curve" smooth="yes"/>
      <point x="343" y="329"/>
      <point x="324" y="309"/>
      <point x="292" y="309" type="curve" smooth="yes"/>
      <point x="277" y="309"/>
      <point x="263" y="315"/>
      <point x="253" y="329" type="curve"/>
      <point x="258" y="336"/>
      <point x="261" y="344"/>
      <point x="261" y="353" type="curve" smooth="yes"/>
      <point x="261" y="371"/>
      <point x="248" y="382"/>
      <point x="228" y="382" type="curve" smooth="yes"/>
      <point x="209" y="382"/>
      <point x="184" y="361"/>
      <point x="155" y="319" type="curve"/>
      <point x="155" y="24" type="line"/>
      <point x="218" y="16" type="line"/>
      <point x="218" y="0" type="line"/>
    </contour>
  </outline>
</glyph>
<glyph name="s" format="1">
  <advance width="373"/>
  <unicode hex="0073"/>
  <outline>
    <contour>
      <point x="85" y="-8"/>
      <point x="32" y="21"/>
      <point x="32" y="80" type="curve" smooth="yes"/>
      <point x="32" y="111"/>
      <point x="54" y="136"/>
      <point x="79" y="136" type="curve" smooth="yes"/>
      <point x="103" y="136"/>
      <point x="119" y="125"/>
      <point x="126" y="103" type="curve"/>
      <point x="118" y="92"/>
      <point x="113" y="81"/>
      <point x="113" y="70" type="curve" smooth="yes"/>
      <point x="113" y="28"/>
      <point x="140" y="7"/>
      <point x="198" y="7" type="curve" smooth="yes"/>
      <point x="255" y="7"/>
      <point x="305" y="42"/>
      <point x="305" y="83" type="curve" smooth="yes"/>
      <point x="305" y="123"/>
      <point x="278" y="137"/>
      <point x="212" y="159" type="curve" smooth="yes"/>
      <point x="110" y="191" type="line" smooth="yes"/>
      <point x="62" y="205"/>
      <point x="39" y="239"/>
      <point x="39" y="295" type="curve" smooth="yes"/>
      <point x="39" y="365"/>
      <point x="98" y="416"/>
      <point x="186" y="416" type="curve" smooth="yes"/>
      <point x="273" y="416"/>
      <point x="325" y="383"/>
      <point x="325" y="335" type="curve" smooth="yes"/>
      <point x="325" y="307"/>
      <point x="307" y="287"/>
      <point x="282" y="287" type="curve" smooth="yes"/>
      <point x="258" y="287"/>
      <point x="243" y="299"/>
      <point x="243" y="321" type="curve"/>
      <point x="254" y="328"/>
      <point x="259" y="338"/>
      <point x="259" y="352" type="curve" smooth="yes"/>
      <point x="259" y="385"/>
      <point x="235" y="401"/>
      <point x="187" y="401" type="curve" smooth="yes"/>
      <point x="119" y="401"/>
      <point x="76" y="369"/>
      <point x="76" y="334" type="curve" smooth="yes"/>
      <point x="76" y="299"/>
      <point x="87" y="287"/>
      <point x="128" y="273" type="curve" smooth="yes"/>
      <point x="254" y="235" type="line" smooth="yes"/>
      <point x="314" y="216"/>
      <point x="339" y="180"/>
      <point x="339" y="116" type="curve" smooth="yes"/>
      <point x="339" y="52"/>
      <point x="290" y="-8"/>
      <point x="192" y="-8" type="curve" smooth="yes"/>
    </contour>
  </outline>
</glyph>
<glyph name="t" format="1">
  <advance width="273"/>
  <unicode hex="0074"/>
  <outline>
    <contour>
      <point x="251" y="409" type="line"/>
      <point x="251" y="393" type="line"/>
      <point x="149" y="386" type="line"/>
      <point x="149" y="103" type="line" smooth="yes"/>
      <point x="149" y="47"/>
      <point x="168" y="19"/>
      <point x="209" y="19" type="curve" smooth="yes"/>
      <point x="227" y="19"/>
      <point x="244" y="24"/>
      <point x="259" y="36" type="curve"/>
      <point x="269" y="24" type="line"/>
      <point x="246" y="2"/>
      <point x="217" y="-8"/>
      <point x="184" y="-8" type="curve" smooth="yes"/>
      <point x="107" y="-8"/>
      <point x="70" y="28"/>
      <point x="70" y="101" type="curve" smooth="yes"/>
      <point x="70" y="386" type="line"/>
      <point x="13" y="393" type="line"/>
      <point x="13" y="409" type="line"/>
      <point x="70" y="409" type="line"/>
      <point x="70" y="475" type="line"/>
      <point x="149" y="495" type="line"/>
      <point x="149" y="409" type="line"/>
    </contour>
  </outline>
</glyph>
<glyph name="u" format="1">
  <advance width="495"/>
  <unicode hex="0075"/>
  <outline>
    <contour>
      <point x="147" y="409" type="line"/>
      <point x="147" y="107" type="line" smooth="yes"/>
      <point x="147" y="49"/>
      <point x="170" y="21"/>
      <point x="215" y="21" type="curve" smooth="yes"/>
      <point x="260" y="21"/>
      <point x="303" y="48"/>
      <point x="344" y="104" type="curve"/>
      <point x="344" y="386" type="line"/>
      <point x="289" y="393" type="line"/>
      <point x="289" y="409" type="line"/>
      <point x="423" y="409" type="line"/>
      <point x="423" y="24" type="line"/>
      <point x="479" y="16" type="line"/>
      <point x="479" y="0" type="line"/>
      <point x="344" y="0" type="line"/>
      <point x="344" y="76" type="line"/>
      <point x="303" y="20"/>
      <point x="252" y="-8"/>
      <point x="190" y="-8" type="curve" smooth="yes"/>
      <point x="115" y="-8"/>
      <point x="68" y="29"/>
      <point x="68" y="105" type="curve" smooth="yes"/>
      <point x="68" y="386" type="line"/>
      <point x="13" y="393" type="line"/>
      <point x="13" y="409" type="line"/>
    </contour>
  </outline>
</glyph>
<glyph name="v" format="1">
  <advance width="419"/>
  <unicode hex="0076"/>
  <outline>
    <contour>
      <point x="232" y="-16" type="line"/>
      <point x="210" y="-16" type="line"/>
      <point x="41" y="386" type="line"/>
      <point x="-10" y="393" type="line"/>
      <point x="-10" y="409" type="line"/>
      <point x="186" y="409" type="line"/>
      <point x="186" y="393" type="line"/>
      <point x="130" y="383" type="line"/>
      <point x="249" y="86" type="line"/>
      <point x="356" y="373" type="line"/>
      <point x="286" y="393" type="line"/>
      <point x="286" y="408" type="line"/>
      <point x="427" y="408" type="line"/>
      <point x="427" y="393" type="line"/>
      <point x="378" y="374" type="line"/>
    </contour>
  </outline>
</glyph>
<glyph name="w" format="1">
  <advance width="650"/>
  <unicode hex="0077"/>
  <outline>
    <contour>
      <point x="464" y="-16" type="line"/>
      <point x="442" y="-16" type="line"/>
      <point x="330" y="251" type="line"/>
      <point x="232" y="-16" type="line"/>
      <point x="210" y="-16" type="line"/>
      <point x="41" y="386" type="line"/>
      <point x="-10" y="393" type="line"/>
      <point x="-10" y="409" type="line"/>
      <point x="167" y="409" type="line"/>
      <point x="167" y="393" type="line"/>
      <point x="130" y="383" type="line"/>
      <point x="249" y="86" type="line"/>
      <point x="319" y="278" type="line"/>
      <point x="273" y="386" type="line"/>
      <point x="231" y="393" type="line"/>
      <point x="231" y="409" type="line"/>
      <point x="418" y="409" type="line"/>
      <point x="418" y="393" type="line"/>
      <point x="361" y="383" type="line"/>
      <point x="480" y="86" type="line"/>
      <point x="587" y="372" type="line"/>
      <point x="521" y="393" type="line"/>
      <point x="521" y="408" type="line"/>
      <point x="658" y="408" type="line"/>
      <point x="658" y="393" type="line"/>
      <point x="609" y="374" type="line"/>
    </contour>
  </outline>
</glyph>
<glyph name="x" format="1">
  <advance width="472"/>
  <unicode hex="0078"/>
  <outline>
    <contour>
      <point x="10" y="0" type="line"/>
      <point x="10" y="16" type="line"/>
      <point x="63" y="36" type="line"/>
      <point x="197" y="194" type="line"/>
      <point x="48" y="386" type="line"/>
      <point x="1" y="393" type="line"/>
      <point x="1" y="409" type="line"/>
      <point x="194" y="409" type="line"/>
      <point x="194" y="393" type="line"/>
      <point x="145" y="385" type="line"/>
      <point x="252" y="246" type="line"/>
      <point x="364" y="374" type="line"/>
      <point x="302" y="393" type="line"/>
      <point x="302" y="408" type="line"/>
      <point x="447" y="408" type="line"/>
      <point x="447" y="393" type="line"/>
      <point x="389" y="372" type="line"/>
      <point x="265" y="229" type="line"/>
      <point x="424" y="23" type="line"/>
      <point x="474" y="16" type="line"/>
      <point x="474" y="0" type="line"/>
      <point x="281" y="0" type="line"/>
      <point x="281" y="16" type="line"/>
      <point x="328" y="24" type="line"/>
      <point x="210" y="176" type="line"/>
      <point x="88" y="34" type="line"/>
      <point x="152" y="16" type="line"/>
      <point x="152" y="0" type="line"/>
    </contour>
  </outline>
</glyph>
<glyph name="y" format="1">
  <advance width="423"/>
  <unicode hex="0079"/>
  <outline>
    <contour>
      <point x="431" y="408" type="line"/>
      <point x="431" y="393" type="line"/>
      <point x="378" y="373" type="line"/>
      <point x="201" y="-141" type="line" smooth="yes"/>
      <point x="179" y="-204"/>
      <point x="152" y="-231"/>
      <point x="96" y="-231" type="curve" smooth="yes"/>
      <point x="39" y="-231"/>
      <point x="2" y="-199"/>
      <point x="2" y="-160" type="curve" smooth="yes"/>
      <point x="2" y="-122"/>
      <point x="23" y="-102"/>
      <point x="51" y="-102" type="curve" smooth="yes"/>
      <point x="72" y="-102"/>
      <point x="88" y="-111"/>
      <point x="96" y="-127" type="curve"/>
      <point x="88" y="-138"/>
      <point x="85" y="-149"/>
      <point x="85" y="-160" type="curve" smooth="yes"/>
      <point x="85" y="-183"/>
      <point x="100" y="-198"/>
      <point x="121" y="-198" type="curve" smooth="yes"/>
      <point x="146" y="-198"/>
      <point x="165" y="-179"/>
      <point x="179" y="-141" type="curve" smooth="yes"/>
      <point x="226" y="-6" type="line"/>
      <point x="43" y="385" type="line"/>
      <point x="-10" y="393" type="line"/>
      <point x="-10" y="408" type="line"/>
      <point x="186" y="408" type="line"/>
      <point x="186" y="393" type="line"/>
      <point x="131" y="383" type="line"/>
      <point x="263" y="101" type="line"/>
      <point x="357" y="373" type="line"/>
      <point x="289" y="393" type="line"/>
      <point x="289" y="408" type="line"/>
    </contour>
  </outline>
</glyph>
<glyph name="z" format="1">
  <advance width="405"/>
  <unicode hex="007A"/>
  <outline>
    <contour>
      <point x="59" y="291" type="line"/>
      <point x="35" y="291" type="line"/>
      <point x="43" y="409" type="line"/>
      <point x="367" y="409" type="line"/>
      <point x="367" y="389" type="line"/>
      <point x="122" y="19" type="line"/>
      <point x="296" y="19" type="line"/>
      <point x="348" y="127" type="line"/>
      <point x="375" y="127" type="line"/>
      <point x="366" y="0" type="line"/>
      <point x="29" y="0" type="line"/>
      <point x="29" y="19" type="line"/>
      <point x="274" y="389" type="line"/>
      <point x="107" y="389" type="line"/>
    </contour>
  </outline>
</glyph>
<glyph name="braceleft" format="1">
  <advance width="247"/>
  <unicode hex="007B"/>
  <outline>
    <contour>
      <point x="178" y="347"/>
      <point x="136" y="297"/>
      <point x="62" y="281" type="curve"/>
      <point x="136" y="266"/>
      <point x="178" y="216"/>
      <point x="178" y="144" type="curve" smooth="yes"/>
      <point x="178" y="130"/>
      <point x="175" y="98"/>
      <point x="171" y="47" type="curve" smooth="yes"/>
      <point x="165" y="-3"/>
      <point x="163" y="-36"/>
      <point x="163" y="-50" type="curve" smooth="yes"/>
      <point x="163" y="-114"/>
      <point x="181" y="-138"/>
      <point x="229" y="-138" type="curve"/>
      <point x="229" y="-153" type="line"/>
      <point x="135" y="-153"/>
      <point x="86" y="-119"/>
      <point x="86" y="-36" type="curve" smooth="yes"/>
      <point x="86" y="-19"/>
      <point x="89" y="13"/>
      <point x="95" y="61" type="curve" smooth="yes"/>
      <point x="100" y="107"/>
      <point x="103" y="139"/>
      <point x="103" y="155" type="curve" smooth="yes"/>
      <point x="103" y="235"/>
      <point x="72" y="275"/>
      <point x="9" y="275" type="curve"/>
      <point x="9" y="288" type="line"/>
      <point x="72" y="288"/>
      <point x="103" y="329"/>
      <point x="103" y="408" type="curve" smooth="yes"/>
      <point x="103" y="424"/>
      <point x="100" y="456"/>
      <point x="95" y="503" type="curve" smooth="yes"/>
      <point x="89" y="550"/>
      <point x="86" y="582"/>
      <point x="86" y="600" type="curve" smooth="yes"/>
      <point x="86" y="683"/>
      <point x="135" y="717"/>
      <point x="229" y="717" type="curve"/>
      <point x="229" y="702" type="line"/>
      <point x="181" y="702"/>
      <point x="163" y="678"/>
      <point x="163" y="614" type="curve" smooth="yes"/>
      <point x="163" y="599"/>
      <point x="165" y="566"/>
      <point x="171" y="516" type="curve" smooth="yes"/>
      <point x="175" y="465"/>
      <point x="178" y="433"/>
      <point x="178" y="419" type="curve" smooth="yes"/>
    </contour>
  </outline>
</glyph>
<glyph name="bar" format="1">
  <advance width="167"/>
  <unicode hex="007C"/>
  <outline>
    <contour>
      <point x="97" y="600" type="line"/>
      <point x="97" y="-190" type="line"/>
      <point x="70" y="-190" type="line"/>
      <point x="70" y="600" type="line"/>
    </contour>
  </outline>
</glyph>
<glyph name="braceright" format="1">
  <advance width="247"/>
  <unicode hex="007D"/>
  <outline>
    <contour>
      <point x="70" y="347"/>
      <point x="111" y="297"/>
      <point x="185" y="281" type="curve"/>
      <point x="111" y="266"/>
      <point x="70" y="216"/>
      <point x="70" y="144" type="curve" smooth="yes"/>
      <point x="70" y="130"/>
      <point x="72" y="98"/>
      <point x="77" y="47" type="curve" smooth="yes"/>
      <point x="82" y="-3"/>
      <point x="85" y="-36"/>
      <point x="85" y="-50" type="curve" smooth="yes"/>
      <point x="85" y="-114"/>
      <point x="66" y="-138"/>
      <point x="18" y="-138" type="curve"/>
      <point x="18" y="-153" type="line"/>
      <point x="112" y="-153"/>
      <point x="161" y="-119"/>
      <point x="161" y="-36" type="curve" smooth="yes"/>
      <point x="161" y="-19"/>
      <point x="159" y="13"/>
      <point x="153" y="61" type="curve" smooth="yes"/>
      <point x="148" y="107"/>
      <point x="145" y="139"/>
      <point x="145" y="155" type="curve" smooth="yes"/>
      <point x="145" y="235"/>
      <point x="175" y="275"/>
      <point x="238" y="275" type="curve"/>
      <point x="238" y="288" type="line"/>
      <point x="175" y="288"/>
      <point x="145" y="329"/>
      <point x="145" y="408" type="curve" smooth="yes"/>
      <point x="145" y="424"/>
      <point x="148" y="456"/>
      <point x="153" y="503" type="curve" smooth="yes"/>
      <point x="159" y="550"/>
      <point x="161" y="582"/>
      <point x="161" y="600" type="curve" smooth="yes"/>
      <point x="161" y="683"/>
      <point x="112" y="717"/>
      <point x="18" y="717" type="curve"/>
      <point x="18" y="702" type="line"/>
      <point x="66" y="702"/>
      <point x="85" y="678"/>
      <point x="85" y="614" type="curve" smooth="yes"/>
      <point x="85" y="599"/>
      <point x="82" y="566"/>
      <point x="77" y="516" type="curve" smooth="yes"/>
      <point x="72" y="465"/>
      <point x="70" y="433"/>
      <point x="70" y="419" type="curve" smooth="yes"/>
    </contour>
  </outline>
</glyph>
<glyph name="asciitilde" format="1">
  <advance width="419"/>
  <unicode hex="007E"/>
  <outline>
    <contour>
      <point x="355" y="247" type="line"/>
      <point x="383" y="239" type="line"/>
      <point x="380" y="225"/>
      <point x="363" y="191"/>
      <point x="351" y="174" type="curve" smooth="yes"/>
      <point x="337" y="156"/>
      <point x="313" y="139"/>
      <point x="288" y="139" type="curve" smooth="yes"/>
      <point x="264" y="139"/>
      <point x="239" y="153"/>
      <point x="226" y="165" type="curve" smooth="yes"/>
      <point x="220" y="171"/>
      <point x="212" y="179"/>
      <point x="201" y="190" type="curve" smooth="yes"/>
      <point x="182" y="213"/>
      <point x="161" y="236"/>
      <point x="134" y="236" type="curve" smooth="yes"/>
      <point x="106" y="236"/>
      <point x="83" y="204"/>
      <point x="74" y="179" type="curve" smooth="yes"/>
      <point x="67" y="159" type="line"/>
      <point x="28" y="171"/>
      <point x="36" y="172"/>
      <point x="50" y="199" type="curve" smooth="yes"/>
      <point x="63" y="226"/>
      <point x="74" y="242"/>
      <point x="97" y="256" type="curve" smooth="yes"/>
      <point x="108" y="263"/>
      <point x="120" y="266"/>
      <point x="133" y="266" type="curve" smooth="yes"/>
      <point x="157" y="266"/>
      <point x="182" y="252"/>
      <point x="196" y="240" type="curve" smooth="yes"/>
      <point x="203" y="234"/>
      <point x="211" y="225"/>
      <point x="221" y="215" type="curve"/>
      <point x="240" y="193"/>
      <point x="261" y="169"/>
      <point x="288" y="169" type="curve" smooth="yes"/>
      <point x="313" y="169"/>
      <point x="333" y="190"/>
      <point x="350" y="234" type="curve" smooth="yes"/>
    </contour>
  </outline>
</glyph>
<glyph name="exclamdown" format="1">
  <advance width="180"/>
  <unicode hex="00A1"/>
  <outline>
    <contour>
      <point x="115" y="412"/>
      <point x="104" y="417"/>
      <point x="91" y="417" type="curve" smooth="yes"/>
      <point x="65" y="417"/>
      <point x="44" y="396"/>
      <point x="44" y="370" type="curve" smooth="yes"/>
      <point x="44" y="344"/>
      <point x="65" y="324"/>
      <point x="91" y="324" type="curve" smooth="yes"/>
      <point x="117" y="324"/>
      <point x="137" y="344"/>
      <point x="137" y="370" type="curve" smooth="yes"/>
      <point x="137" y="383"/>
      <point x="133" y="394"/>
      <point x="124" y="404" type="curve"/>
    </contour>
    <contour>
      <point x="81" y="279" type="line"/>
      <point x="81" y="203"/>
      <point x="74" y="113"/>
      <point x="64" y="8" type="curve" smooth="yes"/>
      <point x="53" y="-97"/>
      <point x="47" y="-159"/>
      <point x="47" y="-176" type="curve" smooth="yes"/>
      <point x="47" y="-212"/>
      <point x="65" y="-231"/>
      <point x="91" y="-231" type="curve" smooth="yes"/>
      <point x="117" y="-231"/>
      <point x="134" y="-212"/>
      <point x="134" y="-176" type="curve" smooth="yes"/>
      <point x="134" y="-158"/>
      <point x="129" y="-96"/>
      <point x="119" y="9" type="curve" smooth="yes"/>
      <point x="108" y="114"/>
      <point x="102" y="204"/>
      <point x="100" y="279" type="curve"/>
    </contour>
  </outline>
</glyph>
<glyph name="cent" format="1">
  <advance width="432"/>
  <unicode hex="00A2"/>
  <outline>
    <contour>
      <point x="246" y="523" type="line"/>
      <point x="246" y="416" type="line"/>
      <point x="335" y="414"/>
      <point x="402" y="364"/>
      <point x="402" y="295" type="curve" smooth="yes"/>
      <point x="402" y="261"/>
      <point x="382" y="242"/>
      <point x="354" y="242" type="curve" smooth="yes"/>
      <point x="325" y="242"/>
      <point x="303" y="263"/>
      <point x="303" y="292" type="curve"/>
      <point x="318" y="302"/>
      <point x="325" y="315"/>
      <point x="325" y="333" type="curve" smooth="yes"/>
      <point x="325" y="369"/>
      <point x="294" y="397"/>
      <point x="246" y="399" type="curve"/>
      <point x="246" y="9" type="line"/>
      <point x="315" y="12"/>
      <point x="370" y="56"/>
      <point x="383" y="120" type="curve"/>
      <point x="401" y="120" type="line"/>
      <point x="386" y="43"/>
      <point x="325" y="-6"/>
      <point x="246" y="-8" type="curve"/>
      <point x="246" y="-113" type="line"/>
      <point x="217" y="-113" type="line"/>
      <point x="217" y="-6" type="line"/>
      <point x="112" y="3"/>
      <point x="36" y="86"/>
      <point x="36" y="206" type="curve" smooth="yes"/>
      <point x="36" y="325"/>
      <point x="116" y="404"/>
      <point x="217" y="415" type="curve"/>
      <point x="217" y="523" type="line"/>
    </contour>
    <contour>
      <point x="122" y="165" type="line" smooth="yes"/>
      <point x="122" y="81"/>
      <point x="154" y="21"/>
      <point x="217" y="11" type="curve"/>
      <point x="217" y="397" type="line"/>
      <point x="156" y="387"/>
      <point x="122" y="332"/>
      <point x="122" y="244" type="curve" smooth="yes"/>
    </contour>
  </outline>
</glyph>
<glyph name="sterling" format="1">
  <advance width="499"/>
  <unicode hex="00A3"/>
  <outline>
    <contour>
      <point x="50" y="323" type="line"/>
      <point x="50" y="353" type="line"/>
      <point x="135" y="353" type="line"/>
      <point x="131" y="359"/>
      <point x="122" y="371"/>
      <point x="111" y="388" type="curve" smooth="yes"/>
      <point x="86" y="421"/>
      <point x="78" y="431"/>
      <point x="67" y="463" type="curve" smooth="yes"/>
      <point x="62" y="478"/>
      <point x="58" y="494"/>
      <point x="58" y="509" type="curve" smooth="yes"/>
      <point x="58" y="585"/>
      <point x="130" y="648"/>
      <point x="247" y="648" type="curve" smooth="yes"/>
      <point x="364" y="648"/>
      <point x="450" y="586"/>
      <point x="450" y="501" type="curve" smooth="yes"/>
      <point x="450" y="457"/>
      <point x="421" y="431"/>
      <point x="389" y="431" type="curve" smooth="yes"/>
      <point x="356" y="431"/>
      <point x="330" y="452"/>
      <point x="330" y="490" type="curve"/>
      <point x="358" y="503"/>
      <point x="371" y="522"/>
      <point x="371" y="548" type="curve" smooth="yes"/>
      <point x="371" y="600"/>
      <point x="325" y="630"/>
      <point x="265" y="630" type="curve" smooth="yes"/>
      <point x="205" y="630"/>
      <point x="160" y="589"/>
      <point x="160" y="522" type="curve" smooth="yes"/>
      <point x="160" y="484"/>
      <point x="169" y="443"/>
      <point x="187" y="399" type="curve" smooth="yes"/>
      <point x="196" y="378"/>
      <point x="202" y="362"/>
      <point x="205" y="353" type="curve"/>
      <point x="335" y="353" type="line"/>
      <point x="335" y="323" type="line"/>
      <point x="213" y="323" type="line"/>
      <point x="215" y="309"/>
      <point x="216" y="295"/>
      <point x="216" y="284" type="curve" smooth="yes"/>
      <point x="216" y="272"/>
      <point x="216" y="261"/>
      <point x="214" y="253" type="curve"/>
      <point x="335" y="253" type="line"/>
      <point x="335" y="224" type="line"/>
      <point x="208" y="224" type="line"/>
      <point x="196" y="183"/>
      <point x="160" y="137"/>
      <point x="146" y="124" type="curve" smooth="yes"/>
      <point x="139" y="117"/>
      <point x="126" y="105"/>
      <point x="107" y="88" type="curve"/>
      <point x="379" y="88" type="line"/>
      <point x="427" y="216" type="line"/>
      <point x="449" y="216" type="line"/>
      <point x="449" y="0" type="line"/>
      <point x="51" y="0" type="line"/>
      <point x="51" y="61" type="line"/>
      <point x="53" y="62"/>
      <point x="62" y="70"/>
      <point x="77" y="85" type="curve" smooth="yes"/>
      <point x="107" y="115"/>
      <point x="108" y="119"/>
      <point x="128" y="145" type="curve" smooth="yes"/>
      <point x="146" y="167"/>
      <point x="158" y="194"/>
      <point x="164" y="224" type="curve"/>
      <point x="50" y="224" type="line"/>
      <point x="50" y="253" type="line"/>
      <point x="167" y="253" type="line"/>
      <point x="167" y="260" type="line" smooth="yes"/>
      <point x="167" y="281"/>
      <point x="162" y="302"/>
      <point x="152" y="323" type="curve"/>
    </contour>
  </outline>
</glyph>
<glyph name="currency" format="1">
  <advance width="427"/>
  <unicode hex="00A4"/>
  <outline>
    <contour>
      <point x="45" y="136" type="line"/>
      <point x="104" y="196" type="line"/>
      <point x="84" y="220"/>
      <point x="73" y="250"/>
      <point x="73" y="283" type="curve" smooth="yes"/>
      <point x="73" y="315"/>
      <point x="84" y="345"/>
      <point x="105" y="371" type="curve"/>
      <point x="46" y="430" type="line"/>
      <point x="67" y="452" type="line"/>
      <point x="126" y="393" type="line"/>
      <point x="152" y="412"/>
      <point x="181" y="423"/>
      <point x="213" y="423" type="curve" smooth="yes"/>
      <point x="246" y="423"/>
      <point x="274" y="412"/>
      <point x="300" y="392" type="curve"/>
      <point x="361" y="453" type="line"/>
      <point x="382" y="431" type="line"/>
      <point x="322" y="371" type="line"/>
      <point x="344" y="345"/>
      <point x="354" y="317"/>
      <point x="354" y="284" type="curve" smooth="yes"/>
      <point x="354" y="252"/>
      <point x="344" y="222"/>
      <point x="322" y="196" type="curve"/>
      <point x="382" y="137" type="line"/>
      <point x="361" y="115" type="line"/>
      <point x="301" y="175" type="line"/>
      <point x="276" y="154"/>
      <point x="246" y="144"/>
      <point x="214" y="144" type="curve" smooth="yes"/>
      <point x="181" y="144"/>
      <point x="152" y="154"/>
      <point x="126" y="174" type="curve"/>
      <point x="66" y="115" type="line"/>
    </contour>
    <contour>
      <point x="274" y="174"/>
      <point x="324" y="223"/>
      <point x="324" y="284" type="curve" smooth="yes"/>
      <point x="324" y="344"/>
      <point x="274" y="393"/>
      <point x="214" y="393" type="curve" smooth="yes"/>
      <point x="153" y="393"/>
      <point x="104" y="344"/>
      <point x="104" y="284" type="curve" smooth="yes"/>
      <point x="104" y="223"/>
      <point x="153" y="174"/>
      <point x="214" y="174" type="curve" smooth="yes"/>
    </contour>
  </outline>
</glyph>
<glyph name="yen" format="1">
  <advance width="612"/>
  <unicode hex="00A5"/>
  <outline>
    <contour>
      <point x="149" y="272" type="line"/>
      <point x="149" y="302" type="line"/>
      <point x="258" y="302" type="line"/>
      <point x="86" y="604" type="line"/>
      <point x="24" y="615" type="line"/>
      <point x="24" y="632" type="line"/>
      <point x="261" y="632" type="line"/>
      <point x="261" y="615" type="line"/>
      <point x="188" y="604" type="line"/>
      <point x="354" y="317" type="line"/>
      <point x="506" y="577" type="line"/>
      <point x="412" y="615" type="line"/>
      <point x="412" y="632" type="line"/>
      <point x="589" y="632" type="line"/>
      <point x="589" y="615" type="line"/>
      <point x="528" y="576" type="line"/>
      <point x="367" y="302" type="line"/>
      <point x="488" y="302" type="line"/>
      <point x="488" y="272" type="line"/>
      <point x="363" y="272" type="line"/>
      <point x="363" y="217" type="line"/>
      <point x="488" y="217" type="line"/>
      <point x="488" y="187" type="line"/>
      <point x="363" y="187" type="line"/>
      <point x="363" y="28" type="line"/>
      <point x="437" y="17" type="line"/>
      <point x="437" y="0" type="line"/>
      <point x="205" y="0" type="line"/>
      <point x="205" y="17" type="line"/>
      <point x="278" y="28" type="line"/>
      <point x="278" y="187" type="line"/>
      <point x="149" y="187" type="line"/>
      <point x="149" y="217" type="line"/>
      <point x="278" y="217" type="line"/>
      <point x="278" y="269" type="line"/>
      <point x="276" y="272" type="line"/>
    </contour>
  </outline>
</glyph>
<glyph name="brokenbar" format="1">
  <advance width="174"/>
  <unicode hex="00A6"/>
  <outline>
    <contour>
      <point x="103" y="600" type="line"/>
      <point x="103" y="284" type="line"/>
      <point x="71" y="284" type="line"/>
      <point x="71" y="600" type="line"/>
    </contour>
    <contour>
      <point x="103" y="126" type="line"/>
      <point x="103" y="-190" type="line"/>
      <point x="71" y="-190" type="line"/>
      <point x="71" y="126" type="line"/>
    </contour>
  </outline>
</glyph>
<glyph name="section" format="1">
  <advance width="413"/>
  <unicode hex="00A7"/>
  <outline>
    <contour>
      <point x="42" y="322"/>
      <point x="66" y="360"/>
      <point x="110" y="397" type="curve"/>
      <point x="73" y="427"/>
      <point x="54" y="464"/>
      <point x="54" y="508" type="curve" smooth="yes"/>
      <point x="54" y="596"/>
      <point x="105" y="640"/>
      <point x="198" y="640" type="curve" smooth="yes"/>
      <point x="289" y="640"/>
      <point x="351" y="603"/>
      <point x="351" y="549" type="curve" smooth="yes"/>
      <point x="351" y="518"/>
      <point x="329" y="495"/>
      <point x="303" y="495" type="curve" smooth="yes"/>
      <point x="277" y="495"/>
      <point x="258" y="510"/>
      <point x="258" y="533" type="curve"/>
      <point x="271" y="542"/>
      <point x="277" y="554"/>
      <point x="277" y="569" type="curve" smooth="yes"/>
      <point x="277" y="600"/>
      <point x="243" y="624"/>
      <point x="189" y="624" type="curve" smooth="yes"/>
      <point x="135" y="624"/>
      <point x="86" y="596"/>
      <point x="86" y="546" type="curve" smooth="yes"/>
      <point x="86" y="514"/>
      <point x="105" y="486"/>
      <point x="120" y="474" type="curve" smooth="yes"/>
      <point x="127" y="468"/>
      <point x="138" y="461"/>
      <point x="152" y="452" type="curve"/>
      <point x="288" y="387" type="line" smooth="yes"/>
      <point x="345" y="359"/>
      <point x="374" y="321"/>
      <point x="374" y="272" type="curve" smooth="yes"/>
      <point x="374" y="216"/>
      <point x="351" y="168"/>
      <point x="305" y="129" type="curve"/>
      <point x="340" y="100"/>
      <point x="359" y="63"/>
      <point x="359" y="21" type="curve" smooth="yes"/>
      <point x="359" y="-64"/>
      <point x="306" y="-108"/>
      <point x="213" y="-108" type="curve" smooth="yes"/>
      <point x="119" y="-108"/>
      <point x="57" y="-72"/>
      <point x="57" y="-18" type="curve" smooth="yes"/>
      <point x="57" y="13"/>
      <point x="79" y="36"/>
      <point x="106" y="36" type="curve" smooth="yes"/>
      <point x="133" y="36"/>
      <point x="149" y="21"/>
      <point x="149" y="-2" type="curve"/>
      <point x="137" y="-11"/>
      <point x="130" y="-23"/>
      <point x="130" y="-38" type="curve" smooth="yes"/>
      <point x="130" y="-68"/>
      <point x="166" y="-92"/>
      <point x="220" y="-92" type="curve" smooth="yes"/>
      <point x="274" y="-92"/>
      <point x="325" y="-65"/>
      <point x="325" y="-15" type="curve" smooth="yes"/>
      <point x="325" y="17"/>
      <point x="306" y="45"/>
      <point x="290" y="58" type="curve"/>
      <point x="282" y="63"/>
      <point x="270" y="71"/>
      <point x="255" y="80" type="curve"/>
      <point x="121" y="145" type="line" smooth="yes"/>
      <point x="68" y="172"/>
      <point x="42" y="210"/>
      <point x="42" y="259" type="curve" smooth="yes"/>
    </contour>
    <contour>
      <point x="285" y="143" type="line"/>
      <point x="286" y="142"/>
      <point x="287" y="142"/>
      <point x="288" y="141" type="curve" smooth="yes"/>
      <point x="290" y="141"/>
      <point x="291" y="140"/>
      <point x="292" y="139" type="curve"/>
      <point x="326" y="170"/>
      <point x="344" y="202"/>
      <point x="344" y="238" type="curve" smooth="yes"/>
      <point x="344" y="273"/>
      <point x="315" y="296"/>
      <point x="249" y="328" type="curve" smooth="yes"/>
      <point x="124" y="388" type="line"/>
      <point x="88" y="356"/>
      <point x="72" y="329"/>
      <point x="72" y="294" type="curve" smooth="yes"/>
      <point x="72" y="258"/>
      <point x="98" y="235"/>
      <point x="159" y="203" type="curve"/>
    </contour>
  </outline>
</glyph>
<glyph name="dieresis" format="1">
  <advance width="309"/>
  <unicode hex="00A8"/>
  <outline>
    <contour>
      <point x="39" y="508"/>
      <point x="34" y="519"/>
      <point x="34" y="532" type="curve" smooth="yes"/>
      <point x="34" y="559"/>
      <point x="55" y="579"/>
      <point x="81" y="579" type="curve" smooth="yes"/>
      <point x="107" y="579"/>
      <point x="128" y="559"/>
      <point x="128" y="532" type="curve" smooth="yes"/>
      <point x="128" y="506"/>
      <point x="107" y="486"/>
      <point x="81" y="486" type="curve" smooth="yes"/>
      <point x="68" y="486"/>
      <point x="57" y="491"/>
      <point x="47" y="499" type="curve"/>
    </contour>
    <contour>
      <point x="186" y="508"/>
      <point x="181" y="519"/>
      <point x="181" y="532" type="curve" smooth="yes"/>
      <point x="181" y="559"/>
      <point x="201" y="579"/>
      <point x="228" y="579" type="curve" smooth="yes"/>
      <point x="254" y="579"/>
      <point x="274" y="559"/>
      <point x="274" y="532" type="curve" smooth="yes"/>
      <point x="274" y="506"/>
      <point x="254" y="486"/>
      <point x="228" y="486" type="curve" smooth="yes"/>
      <point x="214" y="486"/>
      <point x="203" y="491"/>
      <point x="194" y="499" type="curve" smooth="yes"/>
    </contour>
  </outline>
</glyph>
<glyph name="copyright" format="1">
  <advance width="725"/>
  <unicode hex="00A9"/>
  <outline>
    <contour>
      <point x="75" y="146"/>
      <point x="39" y="227"/>
      <point x="39" y="316" type="curve" smooth="yes"/>
      <point x="39" y="404"/>
      <point x="75" y="485"/>
      <point x="134" y="544" type="curve" smooth="yes"/>
      <point x="194" y="604"/>
      <point x="274" y="640"/>
      <point x="363" y="640" type="curve" smooth="yes"/>
      <point x="451" y="640"/>
      <point x="532" y="603"/>
      <point x="591" y="544" type="curve" smooth="yes"/>
      <point x="650" y="484"/>
      <point x="687" y="404"/>
      <point x="687" y="315" type="curve" smooth="yes"/>
      <point x="687" y="227"/>
      <point x="650" y="146"/>
      <point x="591" y="88" type="curve" smooth="yes"/>
      <point x="532" y="29"/>
      <point x="451" y="-8"/>
      <point x="363" y="-8" type="curve" smooth="yes"/>
      <point x="274" y="-8"/>
      <point x="194" y="29"/>
      <point x="134" y="88" type="curve" smooth="yes"/>
    </contour>
    <contour>
      <point x="101" y="469"/>
      <point x="69" y="397"/>
      <point x="69" y="315" type="curve" smooth="yes"/>
      <point x="69" y="233"/>
      <point x="101" y="160"/>
      <point x="155" y="107" type="curve" smooth="yes"/>
      <point x="208" y="54"/>
      <point x="280" y="21"/>
      <point x="363" y="21" type="curve" smooth="yes"/>
      <point x="445" y="21"/>
      <point x="517" y="55"/>
      <point x="570" y="108" type="curve" smooth="yes"/>
      <point x="623" y="161"/>
      <point x="656" y="234"/>
      <point x="656" y="315" type="curve" smooth="yes"/>
      <point x="656" y="397"/>
      <point x="623" y="469"/>
      <point x="570" y="523" type="curve" smooth="yes"/>
      <point x="517" y="576"/>
      <point x="445" y="609"/>
      <point x="363" y="609" type="curve" smooth="yes"/>
      <point x="281" y="609"/>
      <point x="208" y="576"/>
      <point x="155" y="523" type="curve" smooth="yes"/>
    </contour>
    <contour>
      <point x="482" y="523" type="line"/>
      <point x="497" y="523" type="line"/>
      <point x="497" y="398" type="line"/>
      <point x="482" y="398" type="line"/>
      <point x="451" y="465" type="line"/>
      <point x="427" y="488"/>
      <point x="398" y="500"/>
      <point x="363" y="500" type="curve" smooth="yes"/>
      <point x="289" y="500"/>
      <point x="252" y="454"/>
      <point x="252" y="362" type="curve" smooth="yes"/>
      <point x="252" y="269" type="line" smooth="yes"/>
      <point x="252" y="178"/>
      <point x="289" y="132"/>
      <point x="363" y="132" type="curve" smooth="yes"/>
      <point x="397" y="132"/>
      <point x="435" y="149"/>
      <point x="458" y="175" type="curve"/>
      <point x="487" y="244" type="line"/>
      <point x="502" y="244" type="line"/>
      <point x="502" y="114" type="line"/>
      <point x="487" y="114" type="line"/>
      <point x="450" y="140" type="line"/>
      <point x="424" y="119"/>
      <point x="396" y="109"/>
      <point x="363" y="109" type="curve" smooth="yes"/>
      <point x="252" y="109"/>
      <point x="176" y="193"/>
      <point x="176" y="316" type="curve" smooth="yes"/>
      <point x="176" y="439"/>
      <point x="252" y="523"/>
      <point x="363" y="523" type="curve" smooth="yes"/>
      <point x="393" y="523"/>
      <point x="421" y="514"/>
      <point x="448" y="494" type="curve"/>
    </contour>
  </outline>
</glyph>
<glyph name="ordfeminine" format="1">
  <advance width="394"/>
  <unicode hex="00AA"/>
  <outline>
    <contour>
      <point x="243" y="493" type="line"/>
      <point x="243" y="550" type="line" smooth="yes"/>
      <point x="243" y="597"/>
      <point x="223" y="614"/>
      <point x="184" y="614" type="curve" smooth="yes"/>
      <point x="145" y="614"/>
      <point x="122" y="601"/>
      <point x="122" y="577" type="curve" smooth="yes"/>
      <point x="122" y="565"/>
      <point x="128" y="556"/>
      <point x="141" y="551" type="curve"/>
      <point x="141" y="529"/>
      <point x="120" y="507"/>
      <point x="96" y="507" type="curve" smooth="yes"/>
      <point x="71" y="507"/>
      <point x="53" y="527"/>
      <point x="53" y="551" type="curve" smooth="yes"/>
      <point x="53" y="604"/>
      <point x="109" y="636"/>
      <point x="181" y="636" type="curve" smooth="yes"/>
      <point x="269" y="636"/>
      <point x="314" y="603"/>
      <point x="314" y="537" type="curve" smooth="yes"/>
      <point x="314" y="342" type="line" smooth="yes"/>
      <point x="314" y="329"/>
      <point x="321" y="322"/>
      <point x="334" y="322" type="curve" smooth="yes"/>
      <point x="344" y="322"/>
      <point x="353" y="329"/>
      <point x="353" y="341" type="curve"/>
      <point x="374" y="341" type="line"/>
      <point x="374" y="310"/>
      <point x="350" y="293"/>
      <point x="316" y="293" type="curve" smooth="yes"/>
      <point x="281" y="293"/>
      <point x="254" y="310"/>
      <point x="245" y="344" type="curve"/>
      <point x="220" y="310"/>
      <point x="182" y="293"/>
      <point x="131" y="293" type="curve" smooth="yes"/>
      <point x="72" y="293"/>
      <point x="32" y="324"/>
      <point x="32" y="373" type="curve" smooth="yes"/>
      <point x="32" y="422"/>
      <point x="56" y="452"/>
      <point x="94" y="468" type="curve" smooth="yes"/>
      <point x="131" y="485"/>
      <point x="174" y="493"/>
      <point x="223" y="493" type="curve" smooth="yes"/>
    </contour>
    <contour>
      <point x="243" y="470" type="line"/>
      <point x="223" y="470" type="line" smooth="yes"/>
      <point x="159" y="470"/>
      <point x="109" y="435"/>
      <point x="109" y="378" type="curve" smooth="yes"/>
      <point x="109" y="341"/>
      <point x="126" y="323"/>
      <point x="158" y="323" type="curve" smooth="yes"/>
      <point x="199" y="323"/>
      <point x="237" y="357"/>
      <point x="243" y="408" type="curve"/>
    </contour>
  </outline>
</glyph>
<glyph name="guillemetleft" format="1">
  <advance width="288"/>
  <unicode hex="00AB"/>
  <outline>
    <contour>
      <point x="152" y="219" type="line"/>
      <point x="240" y="312" type="line"/>
      <point x="247" y="305" type="line"/>
      <point x="213" y="213" type="line"/>
      <point x="247" y="121" type="line"/>
      <point x="240" y="115" type="line"/>
      <point x="152" y="208" type="line"/>
    </contour>
    <contour>
      <point x="172" y="371" type="line"/>
      <point x="179" y="363" type="line"/>
      <point x="105" y="213" type="line"/>
      <point x="179" y="62" type="line"/>
      <point x="172" y="55" type="line"/>
      <point x="36" y="206" type="line"/>
      <point x="36" y="220" type="line"/>
    </contour>
  </outline>
</glyph>
<glyph name="logicalnot" format="1">
  <advance width="442"/>
  <unicode hex="00AC"/>
  <outline>
    <contour>
      <point x="57" y="296" type="line"/>
      <point x="384" y="296" type="line"/>
      <point x="384" y="97" type="line"/>
      <point x="356" y="97" type="line"/>
      <point x="356" y="269" type="line"/>
      <point x="57" y="269" type="line"/>
    </contour>
  </outline>
</glyph>
<glyph name="softhyphen" format="1">
  <advance width="303"/>
  <unicode hex="00AD"/>
  <outline>
    <contour>
      <point x="254" y="268" type="line"/>
      <point x="49" y="268" type="line"/>
      <point x="49" y="296" type="line"/>
      <point x="254" y="296" type="line"/>
    </contour>
  </outline>
</glyph>
<glyph name="registered" format="1">
  <advance width="725"/>
  <unicode hex="00AE"/>
  <outline>
    <contour>
      <point x="75" y="146"/>
      <point x="39" y="227"/>
      <point x="39" y="316" type="curve" smooth="yes"/>
      <point x="39" y="404"/>
      <point x="75" y="485"/>
      <point x="134" y="544" type="curve" smooth="yes"/>
      <point x="194" y="604"/>
      <point x="274" y="640"/>
      <point x="363" y="640" type="curve" smooth="yes"/>
      <point x="451" y="640"/>
      <point x="532" y="603"/>
      <point x="591" y="544" type="curve" smooth="yes"/>
      <point x="650" y="484"/>
      <point x="687" y="404"/>
      <point x="687" y="315" type="curve" smooth="yes"/>
      <point x="687" y="227"/>
      <point x="650" y="146"/>
      <point x="591" y="88" type="curve" smooth="yes"/>
      <point x="532" y="29"/>
      <point x="451" y="-8"/>
      <point x="363" y="-8" type="curve" smooth="yes"/>
      <point x="274" y="-8"/>
      <point x="194" y="29"/>
      <point x="134" y="88" type="curve" smooth="yes"/>
    </contour>
    <contour>
      <point x="101" y="469"/>
      <point x="69" y="397"/>
      <point x="69" y="315" type="curve" smooth="yes"/>
      <point x="69" y="233"/>
      <point x="101" y="160"/>
      <point x="155" y="107" type="curve" smooth="yes"/>
      <point x="208" y="54"/>
      <point x="280" y="21"/>
      <point x="363" y="21" type="curve" smooth="yes"/>
      <point x="445" y="21"/>
      <point x="517" y="55"/>
      <point x="570" y="108" type="curve" smooth="yes"/>
      <point x="623" y="161"/>
      <point x="656" y="234"/>
      <point x="656" y="315" type="curve" smooth="yes"/>
      <point x="656" y="397"/>
      <point x="623" y="469"/>
      <point x="570" y="523" type="curve" smooth="yes"/>
      <point x="517" y="576"/>
      <point x="445" y="609"/>
      <point x="363" y="609" type="curve" smooth="yes"/>
      <point x="281" y="609"/>
      <point x="208" y="576"/>
      <point x="155" y="523" type="curve" smooth="yes"/>
    </contour>
    <contour>
      <point x="562" y="138" type="line"/>
      <point x="544" y="118"/>
      <point x="521" y="107"/>
      <point x="493" y="107" type="curve" smooth="yes"/>
      <point x="453" y="107"/>
      <point x="431" y="127"/>
      <point x="425" y="167" type="curve" smooth="yes"/>
      <point x="415" y="235" type="line" smooth="yes"/>
      <point x="408" y="280"/>
      <point x="389" y="304"/>
      <point x="337" y="304" type="curve" smooth="yes"/>
      <point x="305" y="304" type="line"/>
      <point x="305" y="138" type="line"/>
      <point x="352" y="131" type="line"/>
      <point x="352" y="112" type="line"/>
      <point x="193" y="112" type="line"/>
      <point x="193" y="131" type="line"/>
      <point x="240" y="138" type="line"/>
      <point x="240" y="491" type="line"/>
      <point x="193" y="498" type="line"/>
      <point x="193" y="517" type="line"/>
      <point x="366" y="517" type="line" smooth="yes"/>
      <point x="477" y="517"/>
      <point x="523" y="483"/>
      <point x="523" y="412" type="curve" smooth="yes"/>
      <point x="523" y="355"/>
      <point x="480" y="321"/>
      <point x="396" y="312" type="curve"/>
      <point x="396" y="309" type="line"/>
      <point x="450" y="302"/>
      <point x="481" y="272"/>
      <point x="490" y="219" type="curve" smooth="yes"/>
      <point x="497" y="175" type="line"/>
      <point x="500" y="149"/>
      <point x="503" y="138"/>
      <point x="520" y="138" type="curve" smooth="yes"/>
      <point x="529" y="138"/>
      <point x="538" y="143"/>
      <point x="549" y="153" type="curve"/>
    </contour>
    <contour>
      <point x="305" y="496" type="line"/>
      <point x="305" y="325" type="line"/>
      <point x="354" y="325" type="line" smooth="yes"/>
      <point x="419" y="325"/>
      <point x="451" y="353"/>
      <point x="451" y="410" type="curve" smooth="yes"/>
      <point x="451" y="420" type="line" smooth="yes"/>
      <point x="451" y="471"/>
      <point x="419" y="496"/>
      <point x="354" y="496" type="curve" smooth="yes"/>
    </contour>
  </outline>
</glyph>
<glyph name="macron" format="1">
  <advance width="363"/>
  <unicode hex="00AF"/>
  <outline>
    <contour>
      <point x="363" y="553" type="line"/>
      <point x="363" y="526" type="line"/>
      <point x="0" y="526" type="line"/>
      <point x="0" y="553" type="line"/>
    </contour>
  </outline>
</glyph>
<glyph name="degree" format="1">
  <advance width="290"/>
  <unicode hex="00B0"/>
  <outline>
    <contour>
      <point x="40" y="422"/>
      <point x="29" y="449"/>
      <point x="29" y="481" type="curve" smooth="yes"/>
      <point x="29" y="547"/>
      <point x="83" y="596"/>
      <point x="145" y="596" type="curve" smooth="yes"/>
      <point x="209" y="596"/>
      <point x="261" y="544"/>
      <point x="261" y="481" type="curve" smooth="yes"/>
      <point x="261" y="419"/>
      <point x="211" y="365"/>
      <point x="146" y="365" type="curve" smooth="yes"/>
      <point x="114" y="365"/>
      <point x="86" y="376"/>
      <point x="63" y="399" type="curve" smooth="yes"/>
    </contour>
    <contour>
      <point x="231" y="503"/>
      <point x="220" y="525"/>
      <point x="205" y="540" type="curve" smooth="yes"/>
      <point x="187" y="558"/>
      <point x="167" y="566"/>
      <point x="145" y="566" type="curve" smooth="yes"/>
      <point x="99" y="566"/>
      <point x="60" y="528"/>
      <point x="60" y="481" type="curve" smooth="yes"/>
      <point x="60" y="435"/>
      <point x="99" y="396"/>
      <point x="145" y="396" type="curve" smooth="yes"/>
      <point x="192" y="396"/>
      <point x="231" y="435"/>
      <point x="231" y="480" type="curve" smooth="yes"/>
    </contour>
  </outline>
</glyph>
<glyph name="plusminus" format="1">
  <advance width="480"/>
  <unicode hex="00B1"/>
  <outline>
    <contour>
      <point x="58" y="88" type="line"/>
      <point x="58" y="119" type="line"/>
      <point x="421" y="119" type="line"/>
      <point x="421" y="88" type="line"/>
    </contour>
    <contour>
      <point x="224" y="424" type="line"/>
      <point x="254" y="424" type="line"/>
      <point x="254" y="297" type="line"/>
      <point x="421" y="297" type="line"/>
      <point x="421" y="267" type="line"/>
      <point x="254" y="267" type="line"/>
      <point x="254" y="140" type="line"/>
      <point x="224" y="140" type="line"/>
      <point x="224" y="267" type="line"/>
      <point x="58" y="267" type="line"/>
      <point x="58" y="297" type="line"/>
      <point x="224" y="297" type="line"/>
    </contour>
  </outline>
</glyph>
<glyph name="twosuperior" format="1">
  <advance width="306"/>
  <unicode hex="00B2"/>
  <outline>
    <contour>
      <point x="257" y="413" type="line"/>
      <point x="257" y="300" type="line"/>
      <point x="40" y="300" type="line"/>
      <point x="40" y="332" type="line"/>
      <point x="132" y="421" type="line" smooth="yes"/>
      <point x="175" y="463"/>
      <point x="197" y="507"/>
      <point x="197" y="552" type="curve" smooth="yes"/>
      <point x="197" y="593"/>
      <point x="175" y="619"/>
      <point x="145" y="619" type="curve" smooth="yes"/>
      <point x="115" y="619"/>
      <point x="93" y="606"/>
      <point x="93" y="581" type="curve" smooth="yes"/>
      <point x="93" y="569"/>
      <point x="101" y="558"/>
      <point x="118" y="549" type="curve"/>
      <point x="118" y="527"/>
      <point x="103" y="514"/>
      <point x="84" y="514" type="curve" smooth="yes"/>
      <point x="64" y="514"/>
      <point x="47" y="530"/>
      <point x="47" y="555" type="curve" smooth="yes"/>
      <point x="47" y="607"/>
      <point x="85" y="636"/>
      <point x="152" y="636" type="curve" smooth="yes"/>
      <point x="217" y="636"/>
      <point x="258" y="600"/>
      <point x="258" y="551" type="curve" smooth="yes"/>
      <point x="258" y="501"/>
      <point x="230" y="466"/>
      <point x="180" y="427" type="curve" smooth="yes"/>
      <point x="85" y="351" type="line"/>
      <point x="216" y="351" type="line"/>
      <point x="239" y="413" type="line"/>
    </contour>
  </outline>
</glyph>
<glyph name="threesuperior" format="1">
  <advance width="292"/>
  <unicode hex="00B3"/>
  <outline>
    <contour>
      <point x="103" y="492" type="line"/>
      <point x="160" y="495"/>
      <point x="180" y="517"/>
      <point x="180" y="565" type="curve" smooth="yes"/>
      <point x="180" y="600"/>
      <point x="164" y="619"/>
      <point x="130" y="619" type="curve" smooth="yes"/>
      <point x="104" y="619"/>
      <point x="91" y="609"/>
      <point x="91" y="589" type="curve" smooth="yes"/>
      <point x="91" y="577"/>
      <point x="99" y="567"/>
      <point x="114" y="562" type="curve"/>
      <point x="114" y="540"/>
      <point x="100" y="529"/>
      <point x="81" y="529" type="curve" smooth="yes"/>
      <point x="62" y="529"/>
      <point x="47" y="544"/>
      <point x="47" y="568" type="curve" smooth="yes"/>
      <point x="47" y="613"/>
      <point x="85" y="636"/>
      <point x="143" y="636" type="curve" smooth="yes"/>
      <point x="200" y="636"/>
      <point x="239" y="611"/>
      <point x="239" y="562" type="curve" smooth="yes"/>
      <point x="239" y="518"/>
      <point x="208" y="492"/>
      <point x="145" y="484" type="curve"/>
      <point x="145" y="483" type="line"/>
      <point x="222" y="478"/>
      <point x="261" y="446"/>
      <point x="261" y="389" type="curve" smooth="yes"/>
      <point x="261" y="336"/>
      <point x="211" y="293"/>
      <point x="130" y="293" type="curve" smooth="yes"/>
      <point x="76" y="293"/>
      <point x="32" y="325"/>
      <point x="32" y="371" type="curve" smooth="yes"/>
      <point x="32" y="395"/>
      <point x="48" y="410"/>
      <point x="67" y="410" type="curve" smooth="yes"/>
      <point x="85" y="410"/>
      <point x="100" y="398"/>
      <point x="100" y="377" type="curve"/>
      <point x="85" y="368"/>
      <point x="77" y="358"/>
      <point x="77" y="345" type="curve" smooth="yes"/>
      <point x="77" y="322"/>
      <point x="94" y="310"/>
      <point x="130" y="310" type="curve" smooth="yes"/>
      <point x="165" y="310"/>
      <point x="194" y="337"/>
      <point x="194" y="391" type="curve" smooth="yes"/>
      <point x="194" y="445"/>
      <point x="169" y="472"/>
      <point x="103" y="476" type="curve"/>
    </contour>
  </outline>
</glyph>
<glyph name="acute" format="1">
  <advance width="185"/>
  <unicode hex="00B4"/>
  <outline>
    <contour>
      <point x="135" y="608"/>
      <point x="152" y="591"/>
      <point x="152" y="569" type="curve" smooth="yes"/>
      <point x="152" y="558"/>
      <point x="148" y="549"/>
      <point x="139" y="543" type="curve"/>
      <point x="36" y="451" type="line"/>
      <point x="23" y="461" type="line"/>
      <point x="81" y="585" type="line"/>
      <point x="88" y="600"/>
      <point x="99" y="608"/>
      <point x="115" y="608" type="curve" smooth="yes"/>
    </contour>
  </outline>
</glyph>
<glyph name="paragraph" format="1">
  <advance width="432"/>
  <unicode hex="00B6"/>
  <outline>
    <contour>
      <point x="180" y="-88" type="line"/>
      <point x="180" y="337" type="line"/>
      <point x="83" y="337"/>
      <point x="25" y="399"/>
      <point x="25" y="484" type="curve" smooth="yes"/>
      <point x="25" y="570"/>
      <point x="84" y="632"/>
      <point x="179" y="632" type="curve" smooth="yes"/>
      <point x="398" y="632" type="line"/>
      <point x="398" y="615" type="line"/>
      <point x="325" y="604" type="line"/>
      <point x="325" y="-88" type="line"/>
      <point x="292" y="-88" type="line"/>
      <point x="292" y="606" type="line"/>
      <point x="214" y="606" type="line"/>
      <point x="214" y="-88" type="line"/>
    </contour>
  </outline>
</glyph>
<glyph name="periodcentered" format="1">
  <advance width="190"/>
  <unicode hex="00B7"/>
  <outline>
    <contour>
      <point x="121" y="190"/>
      <point x="109" y="185"/>
      <point x="95" y="185" type="curve" smooth="yes"/>
      <point x="66" y="185"/>
      <point x="43" y="208"/>
      <point x="43" y="236" type="curve" smooth="yes"/>
      <point x="43" y="265"/>
      <point x="70" y="288"/>
      <point x="96" y="288" type="curve" smooth="yes"/>
      <point x="121" y="288"/>
      <point x="146" y="262"/>
      <point x="146" y="237" type="curve" smooth="yes"/>
      <point x="146" y="224"/>
      <point x="141" y="212"/>
      <point x="131" y="201" type="curve"/>
    </contour>
  </outline>
</glyph>
<glyph name="cedilla" format="1">
  <advance width="271"/>
  <unicode hex="00B8"/>
  <outline>
    <contour>
      <point x="126" y="7" type="line"/>
      <point x="115" y="-35" type="line"/>
      <point x="179" y="-37"/>
      <point x="212" y="-62"/>
      <point x="212" y="-107" type="curve" smooth="yes"/>
      <point x="212" y="-158"/>
      <point x="167" y="-183"/>
      <point x="118" y="-183" type="curve" smooth="yes"/>
      <point x="93" y="-183"/>
      <point x="72" y="-181"/>
      <point x="55" y="-176" type="curve"/>
      <point x="60" y="-159" type="line"/>
      <point x="66" y="-160"/>
      <point x="76" y="-161"/>
      <point x="89" y="-161" type="curve" smooth="yes"/>
      <point x="115" y="-161"/>
      <point x="145" y="-144"/>
      <point x="145" y="-111" type="curve" smooth="yes"/>
      <point x="145" y="-77"/>
      <point x="126" y="-58"/>
      <point x="88" y="-55" type="curve"/>
      <point x="104" y="7" type="line"/>
    </contour>
  </outline>
</glyph>
<glyph name="onesuperior" format="1">
  <advance width="197"/>
  <unicode hex="00B9"/>
  <outline>
    <contour>
      <point x="40" y="615" type="line"/>
      <point x="40" y="632" type="line"/>
      <point x="130" y="632" type="line"/>
      <point x="130" y="317" type="line"/>
      <point x="163" y="313" type="line"/>
      <point x="163" y="296" type="line"/>
      <point x="40" y="296" type="line"/>
      <point x="40" y="313" type="line"/>
      <point x="73" y="317" type="line"/>
      <point x="73" y="611" type="line"/>
    </contour>
  </outline>
</glyph>
<glyph name="ordmasculine" format="1">
  <advance width="396"/>
  <unicode hex="00BA"/>
  <outline>
    <contour>
      <point x="289" y="496" type="line" smooth="yes"/>
      <point x="289" y="569"/>
      <point x="261" y="614"/>
      <point x="198" y="614" type="curve" smooth="yes"/>
      <point x="134" y="614"/>
      <point x="106" y="569"/>
      <point x="106" y="496" type="curve" smooth="yes"/>
      <point x="106" y="432" type="line" smooth="yes"/>
      <point x="106" y="359"/>
      <point x="134" y="314"/>
      <point x="198" y="314" type="curve" smooth="yes"/>
      <point x="261" y="314"/>
      <point x="289" y="359"/>
      <point x="289" y="432" type="curve" smooth="yes"/>
    </contour>
    <contour>
      <point x="28" y="515"/>
      <point x="47" y="559"/>
      <point x="77" y="588" type="curve"/>
      <point x="109" y="620"/>
      <point x="149" y="636"/>
      <point x="198" y="636" type="curve" smooth="yes"/>
      <point x="293" y="636"/>
      <point x="367" y="566"/>
      <point x="367" y="464" type="curve" smooth="yes"/>
      <point x="367" y="363"/>
      <point x="293" y="293"/>
      <point x="198" y="293" type="curve" smooth="yes"/>
      <point x="100" y="293"/>
      <point x="28" y="363"/>
      <point x="28" y="465" type="curve" smooth="yes"/>
    </contour>
  </outline>
</glyph>
<glyph name="guillemetright" format="1">
  <advance width="288"/>
  <unicode hex="00BB"/>
  <outline>
    <contour>
      <point x="136" y="219" type="line"/>
      <point x="48" y="312" type="line"/>
      <point x="41" y="305" type="line"/>
      <point x="76" y="213" type="line"/>
      <point x="41" y="121" type="line"/>
      <point x="48" y="115" type="line"/>
      <point x="136" y="208" type="line"/>
    </contour>
    <contour>
      <point x="116" y="371" type="line"/>
      <point x="109" y="363" type="line"/>
      <point x="183" y="213" type="line"/>
      <point x="109" y="62" type="line"/>
      <point x="116" y="55" type="line"/>
      <point x="253" y="206" type="line"/>
      <point x="253" y="220" type="line"/>
    </contour>
  </outline>
</glyph>
<glyph name="onequarter" format="1">
  <advance width="527"/>
  <unicode hex="00BC"/>
  <outline>
    <contour>
      <point x="35" y="615" type="line"/>
      <point x="35" y="632" type="line"/>
      <point x="125" y="632" type="line"/>
      <point x="125" y="317" type="line"/>
      <point x="158" y="313" type="line"/>
      <point x="158" y="296" type="line"/>
      <point x="35" y="296" type="line"/>
      <point x="35" y="313" type="line"/>
      <point x="68" y="317" type="line"/>
      <point x="68" y="611" type="line"/>
    </contour>
    <contour>
      <point x="262" y="82" type="line"/>
      <point x="262" y="91" type="line"/>
      <point x="439" y="337" type="line"/>
      <point x="459" y="337" type="line"/>
      <point x="459" y="109" type="line"/>
      <point x="497" y="109" type="line"/>
      <point x="497" y="82" type="line"/>
      <point x="459" y="82" type="line"/>
      <point x="459" y="24" type="line"/>
      <point x="497" y="17" type="line"/>
      <point x="497" y="1" type="line"/>
      <point x="364" y="1" type="line"/>
      <point x="364" y="17" type="line"/>
      <point x="403" y="24" type="line"/>
      <point x="403" y="82" type="line"/>
    </contour>
    <contour>
      <point x="299" y="109" type="line"/>
      <point x="403" y="109" type="line"/>
      <point x="403" y="252" type="line"/>
    </contour>
    <contour>
      <point x="450" y="632" type="line"/>
      <point x="134" y="0" type="line"/>
      <point x="93" y="0" type="line"/>
      <point x="409" y="632" type="line"/>
    </contour>
  </outline>
</glyph>
<glyph name="onehalf" format="1">
  <advance width="553"/>
  <unicode hex="00BD"/>
  <outline>
    <contour>
      <point x="37" y="615" type="line"/>
      <point x="37" y="632" type="line"/>
      <point x="127" y="632" type="line"/>
      <point x="127" y="317" type="line"/>
      <point x="160" y="313" type="line"/>
      <point x="160" y="296" type="line"/>
      <point x="37" y="296" type="line"/>
      <point x="37" y="313" type="line"/>
      <point x="70" y="317" type="line"/>
      <point x="70" y="611" type="line"/>
    </contour>
    <contour>
      <point x="519" y="114" type="line"/>
      <point x="519" y="1" type="line"/>
      <point x="303" y="1" type="line"/>
      <point x="303" y="32" type="line"/>
      <point x="394" y="122" type="line" smooth="yes"/>
      <point x="438" y="164"/>
      <point x="459" y="208"/>
      <point x="459" y="253" type="curve" smooth="yes"/>
      <point x="459" y="294"/>
      <point x="437" y="319"/>
      <point x="407" y="319" type="curve" smooth="yes"/>
      <point x="377" y="319"/>
      <point x="356" y="307"/>
      <point x="356" y="282" type="curve" smooth="yes"/>
      <point x="356" y="269"/>
      <point x="363" y="258"/>
      <point x="380" y="250" type="curve"/>
      <point x="380" y="228"/>
      <point x="365" y="215"/>
      <point x="346" y="215" type="curve" smooth="yes"/>
      <point x="326" y="215"/>
      <point x="309" y="231"/>
      <point x="309" y="256" type="curve" smooth="yes"/>
      <point x="309" y="307"/>
      <point x="348" y="337"/>
      <point x="414" y="337" type="curve" smooth="yes"/>
      <point x="480" y="337"/>
      <point x="520" y="301"/>
      <point x="520" y="251" type="curve" smooth="yes"/>
      <point x="520" y="201"/>
      <point x="492" y="167"/>
      <point x="442" y="128" type="curve" smooth="yes"/>
      <point x="348" y="51" type="line"/>
      <point x="479" y="51" type="line"/>
      <point x="501" y="114" type="line"/>
    </contour>
    <contour>
      <point x="427" y="632" type="line"/>
      <point x="112" y="0" type="line"/>
      <point x="71" y="0" type="line"/>
      <point x="387" y="632" type="line"/>
    </contour>
  </outline>
</glyph>
<glyph name="threequarters" format="1">
  <advance width="550"/>
  <unicode hex="00BE"/>
  <outline>
    <contour>
      <point x="280" y="82" type="line"/>
      <point x="280" y="91" type="line"/>
      <point x="457" y="337" type="line"/>
      <point x="477" y="337" type="line"/>
      <point x="477" y="109" type="line"/>
      <point x="515" y="109" type="line"/>
      <point x="515" y="82" type="line"/>
      <point x="477" y="82" type="line"/>
      <point x="477" y="24" type="line"/>
      <point x="515" y="17" type="line"/>
      <point x="515" y="1" type="line"/>
      <point x="382" y="1" type="line"/>
      <point x="382" y="17" type="line"/>
      <point x="421" y="24" type="line"/>
      <point x="421" y="82" type="line"/>
    </contour>
    <contour>
      <point x="318" y="109" type="line"/>
      <point x="421" y="109" type="line"/>
      <point x="421" y="252" type="line"/>
    </contour>
    <contour>
      <point x="100" y="492" type="line"/>
      <point x="157" y="495"/>
      <point x="177" y="517"/>
      <point x="177" y="565" type="curve" smooth="yes"/>
      <point x="177" y="600"/>
      <point x="160" y="619"/>
      <point x="127" y="619" type="curve" smooth="yes"/>
      <point x="101" y="619"/>
      <point x="88" y="609"/>
      <point x="88" y="589" type="curve" smooth="yes"/>
      <point x="88" y="577"/>
      <point x="96" y="567"/>
      <point x="111" y="562" type="curve"/>
      <point x="111" y="540"/>
      <point x="96" y="529"/>
      <point x="78" y="529" type="curve" smooth="yes"/>
      <point x="59" y="529"/>
      <point x="44" y="544"/>
      <point x="44" y="568" type="curve" smooth="yes"/>
      <point x="44" y="613"/>
      <point x="82" y="636"/>
      <point x="140" y="636" type="curve" smooth="yes"/>
      <point x="197" y="636"/>
      <point x="236" y="611"/>
      <point x="236" y="562" type="curve" smooth="yes"/>
      <point x="236" y="518"/>
      <point x="205" y="492"/>
      <point x="141" y="484" type="curve"/>
      <point x="141" y="483" type="line"/>
      <point x="219" y="478"/>
      <point x="258" y="446"/>
      <point x="258" y="389" type="curve" smooth="yes"/>
      <point x="258" y="336"/>
      <point x="208" y="293"/>
      <point x="126" y="293" type="curve" smooth="yes"/>
      <point x="73" y="293"/>
      <point x="29" y="325"/>
      <point x="29" y="371" type="curve" smooth="yes"/>
      <point x="29" y="395"/>
      <point x="45" y="410"/>
      <point x="64" y="410" type="curve" smooth="yes"/>
      <point x="82" y="410"/>
      <point x="97" y="398"/>
      <point x="97" y="377" type="curve"/>
      <point x="81" y="368"/>
      <point x="73" y="358"/>
      <point x="73" y="345" type="curve" smooth="yes"/>
      <point x="73" y="322"/>
      <point x="91" y="310"/>
      <point x="126" y="310" type="curve" smooth="yes"/>
      <point x="162" y="310"/>
      <point x="190" y="337"/>
      <point x="190" y="391" type="curve" smooth="yes"/>
      <point x="190" y="445"/>
      <point x="166" y="472"/>
      <point x="100" y="476" type="curve"/>
    </contour>
    <contour>
      <point x="488" y="632" type="line"/>
      <point x="173" y="0" type="line"/>
      <point x="132" y="0" type="line"/>
      <point x="448" y="632" type="line"/>
    </contour>
  </outline>
</glyph>
<glyph name="questiondown" format="1">
  <advance width="407"/>
  <unicode hex="00BF"/>
  <outline>
    <contour>
      <point x="201" y="412"/>
      <point x="213" y="416"/>
      <point x="226" y="416" type="curve" smooth="yes"/>
      <point x="252" y="416"/>
      <point x="273" y="395"/>
      <point x="273" y="369" type="curve" smooth="yes"/>
      <point x="273" y="343"/>
      <point x="252" y="323"/>
      <point x="226" y="323" type="curve" smooth="yes"/>
      <point x="200" y="323"/>
      <point x="179" y="343"/>
      <point x="179" y="369" type="curve" smooth="yes"/>
      <point x="179" y="382"/>
      <point x="184" y="393"/>
      <point x="193" y="403" type="curve"/>
    </contour>
    <contour>
      <point x="235" y="278" type="line"/>
      <point x="235" y="221"/>
      <point x="221" y="167"/>
      <point x="195" y="118" type="curve" smooth="yes"/>
      <point x="185" y="96"/>
      <point x="174" y="76"/>
      <point x="164" y="56" type="curve" smooth="yes"/>
      <point x="137" y="7"/>
      <point x="125" y="-38"/>
      <point x="125" y="-78" type="curve" smooth="yes"/>
      <point x="125" y="-186"/>
      <point x="157" y="-222"/>
      <point x="211" y="-222" type="curve" smooth="yes"/>
      <point x="264" y="-222"/>
      <point x="309" y="-192"/>
      <point x="309" y="-149" type="curve" smooth="yes"/>
      <point x="309" y="-121"/>
      <point x="295" y="-101"/>
      <point x="269" y="-88" type="curve"/>
      <point x="269" y="-51"/>
      <point x="294" y="-32"/>
      <point x="325" y="-32" type="curve" smooth="yes"/>
      <point x="356" y="-32"/>
      <point x="384" y="-57"/>
      <point x="384" y="-98" type="curve" smooth="yes"/>
      <point x="384" y="-180"/>
      <point x="301" y="-239"/>
      <point x="194" y="-239" type="curve" smooth="yes"/>
      <point x="87" y="-239"/>
      <point x="28" y="-197"/>
      <point x="28" y="-84" type="curve" smooth="yes"/>
      <point x="28" y="-37"/>
      <point x="49" y="8"/>
      <point x="77" y="40" type="curve" smooth="yes"/>
      <point x="106" y="71"/>
      <point x="140" y="111"/>
      <point x="168" y="144" type="curve" smooth="yes"/>
      <point x="197" y="177"/>
      <point x="217" y="227"/>
      <point x="217" y="278" type="curve"/>
    </contour>
  </outline>
</glyph>
<glyph name="Agrave" format="1">
  <advance width="570"/>
  <unicode hex="00C0"/>
  <outline>
    <contour>
      <point x="148" y="17" type="line"/>
      <point x="148" y="0" type="line"/>
      <point x="-21" y="0" type="line"/>
      <point x="-21" y="17" type="line"/>
      <point x="56" y="48" type="line"/>
      <point x="284" y="648" type="line"/>
      <point x="297" y="648" type="line"/>
      <point x="513" y="28" type="line"/>
      <point x="585" y="17" type="line"/>
      <point x="585" y="0" type="line"/>
      <point x="353" y="0" type="line"/>
      <point x="353" y="17" type="line"/>
      <point x="418" y="27" type="line"/>
      <point x="351" y="214" type="line"/>
      <point x="141" y="214" type="line"/>
      <point x="77" y="48" type="line"/>
    </contour>
    <contour>
      <point x="250" y="509" type="line"/>
      <point x="147" y="231" type="line"/>
      <point x="345" y="231" type="line"/>
    </contour>
    <contour>
      <point x="171" y="711" type="line"/>
      <point x="156" y="717"/>
      <point x="144" y="731"/>
      <point x="144" y="748" type="curve" smooth="yes"/>
      <point x="144" y="766"/>
      <point x="161" y="784"/>
      <point x="181" y="784" type="curve" smooth="yes"/>
      <point x="191" y="784"/>
      <point x="200" y="781"/>
      <point x="207" y="774" type="curve" smooth="yes"/>
      <point x="310" y="684" type="line"/>
      <point x="303" y="671" type="line"/>
    </contour>
  </outline>
</glyph>
<glyph name="Aacute" format="1">
  <advance width="570"/>
  <unicode hex="00C1"/>
  <outline>
    <contour>
      <point x="148" y="17" type="line"/>
      <point x="148" y="0" type="line"/>
      <point x="-21" y="0" type="line"/>
      <point x="-21" y="17" type="line"/>
      <point x="56" y="48" type="line"/>
      <point x="284" y="648" type="line"/>
      <point x="297" y="648" type="line"/>
      <point x="513" y="28" type="line"/>
      <point x="585" y="17" type="line"/>
      <point x="585" y="0" type="line"/>
      <point x="353" y="0" type="line"/>
      <point x="353" y="17" type="line"/>
      <point x="418" y="27" type="line"/>
      <point x="351" y="214" type="line"/>
      <point x="141" y="214" type="line"/>
      <point x="77" y="48" type="line"/>
    </contour>
    <contour>
      <point x="250" y="509" type="line"/>
      <point x="147" y="231" type="line"/>
      <point x="345" y="231" type="line"/>
    </contour>
    <contour>
      <point x="260" y="671" type="line"/>
      <point x="252" y="684" type="line"/>
      <point x="356" y="774" type="line" smooth="yes"/>
      <point x="363" y="781"/>
      <point x="372" y="784"/>
      <point x="382" y="784" type="curve" smooth="yes"/>
      <point x="402" y="784"/>
      <point x="419" y="766"/>
      <point x="419" y="748" type="curve" smooth="yes"/>
      <point x="419" y="730"/>
      <point x="408" y="717"/>
      <point x="392" y="711" type="curve"/>
    </contour>
  </outline>
</glyph>
<glyph name="Acircumflex" format="1">
  <advance width="570"/>
  <unicode hex="00C2"/>
  <outline>
    <contour>
      <point x="148" y="17" type="line"/>
      <point x="148" y="0" type="line"/>
      <point x="-21" y="0" type="line"/>
      <point x="-21" y="17" type="line"/>
      <point x="56" y="48" type="line"/>
      <point x="284" y="648" type="line"/>
      <point x="297" y="648" type="line"/>
      <point x="513" y="28" type="line"/>
      <point x="585" y="17" type="line"/>
      <point x="585" y="0" type="line"/>
      <point x="353" y="0" type="line"/>
      <point x="353" y="17" type="line"/>
      <point x="418" y="27" type="line"/>
      <point x="351" y="214" type="line"/>
      <point x="141" y="214" type="line"/>
      <point x="77" y="48" type="line"/>
    </contour>
    <contour>
      <point x="250" y="509" type="line"/>
      <point x="147" y="231" type="line"/>
      <point x="345" y="231" type="line"/>
    </contour>
    <contour>
      <point x="411" y="664" type="line"/>
      <point x="294" y="718" type="line"/>
      <point x="177" y="664" type="line"/>
      <point x="170" y="675" type="line"/>
      <point x="271" y="772" type="line"/>
      <point x="318" y="772" type="line"/>
      <point x="418" y="675" type="line"/>
    </contour>
  </outline>
</glyph>
<glyph name="Atilde" format="1">
  <advance width="570"/>
  <unicode hex="00C3"/>
  <outline>
    <contour>
      <point x="148" y="17" type="line"/>
      <point x="148" y="0" type="line"/>
      <point x="-21" y="0" type="line"/>
      <point x="-21" y="17" type="line"/>
      <point x="56" y="48" type="line"/>
      <point x="284" y="648" type="line"/>
      <point x="297" y="648" type="line"/>
      <point x="513" y="28" type="line"/>
      <point x="585" y="17" type="line"/>
      <point x="585" y="0" type="line"/>
      <point x="353" y="0" type="line"/>
      <point x="353" y="17" type="line"/>
      <point x="418" y="27" type="line"/>
      <point x="351" y="214" type="line"/>
      <point x="141" y="214" type="line"/>
      <point x="77" y="48" type="line"/>
    </contour>
    <contour>
      <point x="250" y="509" type="line"/>
      <point x="147" y="231" type="line"/>
      <point x="345" y="231" type="line"/>
    </contour>
    <contour>
      <point x="376" y="668"/>
      <point x="361" y="665"/>
      <point x="344" y="665" type="curve" smooth="yes"/>
      <point x="326" y="665"/>
      <point x="306" y="675"/>
      <point x="282" y="694" type="curve" smooth="yes"/>
      <point x="258" y="712"/>
      <point x="239" y="721"/>
      <point x="226" y="721" type="curve" smooth="yes"/>
      <point x="206" y="721"/>
      <point x="191" y="709"/>
      <point x="182" y="683" type="curve"/>
      <point x="160" y="686" type="line"/>
      <point x="168" y="721"/>
      <point x="188" y="747"/>
      <point x="218" y="762" type="curve" smooth="yes"/>
      <point x="230" y="769"/>
      <point x="244" y="772"/>
      <point x="259" y="772" type="curve" smooth="yes"/>
      <point x="290" y="772"/>
      <point x="318" y="749"/>
      <point x="344" y="730" type="curve" smooth="yes"/>
      <point x="356" y="720"/>
      <point x="368" y="716"/>
      <point x="380" y="716" type="curve" smooth="yes"/>
      <point x="401" y="716"/>
      <point x="416" y="728"/>
      <point x="424" y="754" type="curve"/>
      <point x="446" y="751" type="line"/>
      <point x="438" y="716"/>
      <point x="418" y="690"/>
      <point x="389" y="675" type="curve" smooth="yes"/>
    </contour>
  </outline>
</glyph>
<glyph name="Adieresis" format="1">
  <advance width="570"/>
  <unicode hex="00C4"/>
  <outline>
    <contour>
      <point x="148" y="17" type="line"/>
      <point x="148" y="0" type="line"/>
      <point x="-21" y="0" type="line"/>
      <point x="-21" y="17" type="line"/>
      <point x="56" y="48" type="line"/>
      <point x="284" y="648" type="line"/>
      <point x="297" y="648" type="line"/>
      <point x="513" y="28" type="line"/>
      <point x="585" y="17" type="line"/>
      <point x="585" y="0" type="line"/>
      <point x="353" y="0" type="line"/>
      <point x="353" y="17" type="line"/>
      <point x="418" y="27" type="line"/>
      <point x="351" y="214" type="line"/>
      <point x="141" y="214" type="line"/>
      <point x="77" y="48" type="line"/>
    </contour>
    <contour>
      <point x="250" y="509" type="line"/>
      <point x="147" y="231" type="line"/>
      <point x="345" y="231" type="line"/>
    </contour>
    <contour>
      <point x="170" y="700"/>
      <point x="165" y="711"/>
      <point x="165" y="724" type="curve" smooth="yes"/>
      <point x="165" y="751"/>
      <point x="186" y="771"/>
      <point x="213" y="771" type="curve" smooth="yes"/>
      <point x="239" y="771"/>
      <point x="259" y="751"/>
      <point x="259" y="724" type="curve" smooth="yes"/>
      <point x="259" y="698"/>
      <point x="239" y="678"/>
      <point x="213" y="678" type="curve" smooth="yes"/>
      <point x="199" y="678"/>
      <point x="188" y="683"/>
      <point x="179" y="691" type="curve"/>
    </contour>
    <contour>
      <point x="317" y="700"/>
      <point x="312" y="711"/>
      <point x="312" y="724" type="curve" smooth="yes"/>
      <point x="312" y="751"/>
      <point x="333" y="771"/>
      <point x="359" y="771" type="curve" smooth="yes"/>
      <point x="386" y="771"/>
      <point x="405" y="751"/>
      <point x="405" y="724" type="curve" smooth="yes"/>
      <point x="405" y="698"/>
      <point x="386" y="678"/>
      <point x="359" y="678" type="curve" smooth="yes"/>
      <point x="346" y="678"/>
      <point x="335" y="683"/>
      <point x="325" y="691" type="curve"/>
    </contour>
  </outline>
</glyph>
<glyph name="Aring" format="1">
  <advance width="570"/>
  <unicode hex="00C5"/>
  <outline>
    <contour>
      <point x="217" y="739"/>
      <point x="250" y="773"/>
      <point x="292" y="773" type="curve" smooth="yes"/>
      <point x="333" y="773"/>
      <point x="367" y="739"/>
      <point x="367" y="698" type="curve" smooth="yes"/>
      <point x="367" y="656"/>
      <point x="336" y="629"/>
      <point x="305" y="623" type="curve"/>
      <point x="513" y="28" type="line"/>
      <point x="585" y="17" type="line"/>
      <point x="585" y="0" type="line"/>
      <point x="353" y="0" type="line"/>
      <point x="353" y="17" type="line"/>
      <point x="418" y="27" type="line"/>
      <point x="351" y="214" type="line"/>
      <point x="141" y="214" type="line"/>
      <point x="77" y="48" type="line"/>
      <point x="148" y="17" type="line"/>
      <point x="148" y="0" type="line"/>
      <point x="-21" y="0" type="line"/>
      <point x="-21" y="17" type="line"/>
      <point x="56" y="48" type="line"/>
      <point x="275" y="624" type="line"/>
      <point x="247" y="630"/>
      <point x="217" y="656"/>
      <point x="217" y="698" type="curve" smooth="yes"/>
    </contour>
    <contour>
      <point x="250" y="509" type="line"/>
      <point x="147" y="231" type="line"/>
      <point x="345" y="231" type="line"/>
    </contour>
    <contour>
      <point x="316" y="742"/>
      <point x="305" y="747"/>
      <point x="292" y="747" type="curve" smooth="yes"/>
      <point x="265" y="747"/>
      <point x="243" y="724"/>
      <point x="243" y="698" type="curve" smooth="yes"/>
      <point x="243" y="672"/>
      <point x="265" y="649"/>
      <point x="292" y="649" type="curve" smooth="yes"/>
      <point x="318" y="649"/>
      <point x="341" y="672"/>
      <point x="341" y="698" type="curve" smooth="yes"/>
      <point x="341" y="711"/>
      <point x="337" y="722"/>
      <point x="326" y="732" type="curve"/>
    </contour>
  </outline>
</glyph>
<glyph name="AE" format="1">
  <advance width="879"/>
  <unicode hex="00C6"/>
  <outline>
    <contour>
      <point x="656" y="442" type="line"/>
      <point x="678" y="442" type="line"/>
      <point x="678" y="193" type="line"/>
      <point x="656" y="193" type="line"/>
      <point x="610" y="309" type="line"/>
      <point x="515" y="309" type="line"/>
      <point x="515" y="19" type="line"/>
      <point x="751" y="19" type="line"/>
      <point x="816" y="193" type="line"/>
      <point x="837" y="193" type="line"/>
      <point x="837" y="0" type="line"/>
      <point x="429" y="0" type="line"/>
      <point x="429" y="244" type="line"/>
      <point x="198" y="244" type="line"/>
      <point x="69" y="47" type="line"/>
      <point x="139" y="17" type="line"/>
      <point x="139" y="0" type="line"/>
      <point x="-30" y="0" type="line"/>
      <point x="-30" y="17" type="line"/>
      <point x="45" y="47" type="line"/>
      <point x="410" y="604" type="line"/>
      <point x="343" y="615" type="line"/>
      <point x="343" y="632" type="line"/>
      <point x="819" y="632" type="line"/>
      <point x="819" y="451" type="line"/>
      <point x="798" y="451" type="line"/>
      <point x="737" y="612" type="line"/>
      <point x="515" y="612" type="line"/>
      <point x="515" y="328" type="line"/>
      <point x="610" y="328" type="line"/>
    </contour>
    <contour>
      <point x="209" y="261" type="line"/>
      <point x="429" y="261" type="line"/>
      <point x="429" y="593" type="line"/>
    </contour>
  </outline>
</glyph>
<glyph name="Ccedilla" format="1">
  <advance width="585"/>
  <unicode hex="00C7"/>
  <outline>
    <contour>
      <point x="517" y="648" type="line"/>
      <point x="533" y="648" type="line"/>
      <point x="533" y="452" type="line"/>
      <point x="517" y="452" type="line"/>
      <point x="468" y="574" type="line"/>
      <point x="427" y="611"/>
      <point x="380" y="630"/>
      <point x="327" y="630" type="curve" smooth="yes"/>
      <point x="220" y="630"/>
      <point x="144" y="540"/>
      <point x="144" y="389" type="curve" smooth="yes"/>
      <point x="144" y="244" type="line" smooth="yes"/>
      <point x="144" y="92"/>
      <point x="216" y="2"/>
      <point x="327" y="2" type="curve" smooth="yes"/>
      <point x="381" y="2"/>
      <point x="439" y="28"/>
      <point x="475" y="68" type="curve"/>
      <point x="521" y="195" type="line"/>
      <point x="537" y="195" type="line"/>
      <point x="537" y="-8" type="line"/>
      <point x="521" y="-8" type="line"/>
      <point x="464" y="32" type="line"/>
      <point x="423" y="0"/>
      <point x="378" y="-16"/>
      <point x="327" y="-16" type="curve" smooth="yes"/>
      <point x="322" y="-16" type="line"/>
      <point x="315" y="-43" type="line"/>
      <point x="379" y="-45"/>
      <point x="412" y="-70"/>
      <point x="412" y="-115" type="curve" smooth="yes"/>
      <point x="412" y="-166"/>
      <point x="367" y="-191"/>
      <point x="317" y="-191" type="curve" smooth="yes"/>
      <point x="292" y="-191"/>
      <point x="272" y="-189"/>
      <point x="255" y="-184" type="curve"/>
      <point x="260" y="-167" type="line"/>
      <point x="266" y="-168"/>
      <point x="276" y="-169"/>
      <point x="289" y="-169" type="curve" smooth="yes"/>
      <point x="314" y="-169"/>
      <point x="344" y="-152"/>
      <point x="344" y="-119" type="curve" smooth="yes"/>
      <point x="344" y="-85"/>
      <point x="325" y="-66"/>
      <point x="288" y="-62" type="curve"/>
      <point x="300" y="-14" type="line"/>
      <point x="142" y="-2"/>
      <point x="41" y="127"/>
      <point x="41" y="320" type="curve" smooth="yes"/>
      <point x="41" y="513"/>
      <point x="157" y="648"/>
      <point x="331" y="648" type="curve" smooth="yes"/>
      <point x="378" y="648"/>
      <point x="423" y="633"/>
      <point x="464" y="603" type="curve"/>
    </contour>
  </outline>
</glyph>
<glyph name="Egrave" format="1">
  <advance width="569"/>
  <unicode hex="00C8"/>
  <outline>
    <contour>
      <point x="342" y="442" type="line"/>
      <point x="363" y="442" type="line"/>
      <point x="363" y="193" type="line"/>
      <point x="342" y="193" type="line"/>
      <point x="295" y="309" type="line"/>
      <point x="193" y="309" type="line"/>
      <point x="193" y="19" type="line"/>
      <point x="441" y="19" type="line"/>
      <point x="506" y="193" type="line"/>
      <point x="526" y="193" type="line"/>
      <point x="526" y="0" type="line"/>
      <point x="33" y="0" type="line"/>
      <point x="33" y="17" type="line"/>
      <point x="106" y="28" type="line"/>
      <point x="106" y="604" type="line"/>
      <point x="33" y="615" type="line"/>
      <point x="33" y="632" type="line"/>
      <point x="509" y="632" type="line"/>
      <point x="509" y="451" type="line"/>
      <point x="487" y="451" type="line"/>
      <point x="427" y="612" type="line"/>
      <point x="193" y="612" type="line"/>
      <point x="193" y="328" type="line"/>
      <point x="295" y="328" type="line"/>
    </contour>
    <contour>
      <point x="210" y="712" type="line"/>
      <point x="194" y="717"/>
      <point x="182" y="732"/>
      <point x="182" y="749" type="curve" smooth="yes"/>
      <point x="182" y="766"/>
      <point x="200" y="784"/>
      <point x="220" y="784" type="curve" smooth="yes"/>
      <point x="230" y="784"/>
      <point x="239" y="781"/>
      <point x="246" y="775" type="curve" smooth="yes"/>
      <point x="349" y="685" type="line"/>
      <point x="342" y="672" type="line"/>
    </contour>
  </outline>
</glyph>
<glyph name="Eacute" format="1">
  <advance width="569"/>
  <unicode hex="00C9"/>
  <outline>
    <contour>
      <point x="342" y="442" type="line"/>
      <point x="363" y="442" type="line"/>
      <point x="363" y="193" type="line"/>
      <point x="342" y="193" type="line"/>
      <point x="295" y="309" type="line"/>
      <point x="193" y="309" type="line"/>
      <point x="193" y="19" type="line"/>
      <point x="441" y="19" type="line"/>
      <point x="506" y="193" type="line"/>
      <point x="526" y="193" type="line"/>
      <point x="526" y="0" type="line"/>
      <point x="33" y="0" type="line"/>
      <point x="33" y="17" type="line"/>
      <point x="106" y="28" type="line"/>
      <point x="106" y="604" type="line"/>
      <point x="33" y="615" type="line"/>
      <point x="33" y="632" type="line"/>
      <point x="509" y="632" type="line"/>
      <point x="509" y="451" type="line"/>
      <point x="487" y="451" type="line"/>
      <point x="427" y="612" type="line"/>
      <point x="193" y="612" type="line"/>
      <point x="193" y="328" type="line"/>
      <point x="295" y="328" type="line"/>
    </contour>
    <contour>
      <point x="276" y="671" type="line"/>
      <point x="268" y="684" type="line"/>
      <point x="372" y="774" type="line" smooth="yes"/>
      <point x="379" y="781"/>
      <point x="388" y="784"/>
      <point x="398" y="784" type="curve" smooth="yes"/>
      <point x="418" y="784"/>
      <point x="435" y="766"/>
      <point x="435" y="748" type="curve" smooth="yes"/>
      <point x="435" y="730"/>
      <point x="423" y="717"/>
      <point x="408" y="711" type="curve"/>
    </contour>
  </outline>
</glyph>
<glyph name="Ecircumflex" format="1">
  <advance width="569"/>
  <unicode hex="00CA"/>
  <outline>
    <contour>
      <point x="342" y="442" type="line"/>
      <point x="363" y="442" type="line"/>
      <point x="363" y="193" type="line"/>
      <point x="342" y="193" type="line"/>
      <point x="295" y="309" type="line"/>
      <point x="193" y="309" type="line"/>
      <point x="193" y="19" type="line"/>
      <point x="441" y="19" type="line"/>
      <point x="506" y="193" type="line"/>
      <point x="526" y="193" type="line"/>
      <point x="526" y="0" type="line"/>
      <point x="33" y="0" type="line"/>
      <point x="33" y="17" type="line"/>
      <point x="106" y="28" type="line"/>
      <point x="106" y="604" type="line"/>
      <point x="33" y="615" type="line"/>
      <point x="33" y="632" type="line"/>
      <point x="509" y="632" type="line"/>
      <point x="509" y="451" type="line"/>
      <point x="487" y="451" type="line"/>
      <point x="427" y="612" type="line"/>
      <point x="193" y="612" type="line"/>
      <point x="193" y="328" type="line"/>
      <point x="295" y="328" type="line"/>
    </contour>
    <contour>
      <point x="422" y="664" type="line"/>
      <point x="305" y="718" type="line"/>
      <point x="188" y="664" type="line"/>
      <point x="181" y="675" type="line"/>
      <point x="282" y="772" type="line"/>
      <point x="329" y="772" type="line"/>
      <point x="429" y="675" type="line"/>
    </contour>
  </outline>
</glyph>
<glyph name="Edieresis" format="1">
  <advance width="569"/>
  <unicode hex="00CB"/>
  <outline>
    <contour>
      <point x="342" y="442" type="line"/>
      <point x="363" y="442" type="line"/>
      <point x="363" y="193" type="line"/>
      <point x="342" y="193" type="line"/>
      <point x="295" y="309" type="line"/>
      <point x="193" y="309" type="line"/>
      <point x="193" y="19" type="line"/>
      <point x="441" y="19" type="line"/>
      <point x="506" y="193" type="line"/>
      <point x="526" y="193" type="line"/>
      <point x="526" y="0" type="line"/>
      <point x="33" y="0" type="line"/>
      <point x="33" y="17" type="line"/>
      <point x="106" y="28" type="line"/>
      <point x="106" y="604" type="line"/>
      <point x="33" y="615" type="line"/>
      <point x="33" y="632" type="line"/>
      <point x="509" y="632" type="line"/>
      <point x="509" y="451" type="line"/>
      <point x="487" y="451" type="line"/>
      <point x="427" y="612" type="line"/>
      <point x="193" y="612" type="line"/>
      <point x="193" y="328" type="line"/>
      <point x="295" y="328" type="line"/>
    </contour>
    <contour>
      <point x="209" y="700"/>
      <point x="204" y="711"/>
      <point x="204" y="724" type="curve" smooth="yes"/>
      <point x="204" y="751"/>
      <point x="225" y="771"/>
      <point x="251" y="771" type="curve" smooth="yes"/>
      <point x="277" y="771"/>
      <point x="298" y="751"/>
      <point x="298" y="724" type="curve" smooth="yes"/>
      <point x="298" y="698"/>
      <point x="277" y="678"/>
      <point x="251" y="678" type="curve" smooth="yes"/>
      <point x="238" y="678"/>
      <point x="227" y="683"/>
      <point x="217" y="691" type="curve"/>
    </contour>
    <contour>
      <point x="356" y="700"/>
      <point x="351" y="711"/>
      <point x="351" y="724" type="curve" smooth="yes"/>
      <point x="351" y="751"/>
      <point x="372" y="771"/>
      <point x="398" y="771" type="curve" smooth="yes"/>
      <point x="424" y="771"/>
      <point x="444" y="751"/>
      <point x="444" y="724" type="curve" smooth="yes"/>
      <point x="444" y="698"/>
      <point x="424" y="678"/>
      <point x="398" y="678" type="curve" smooth="yes"/>
      <point x="385" y="678"/>
      <point x="374" y="683"/>
      <point x="364" y="691" type="curve"/>
    </contour>
  </outline>
</glyph>
